<svg id="Layer_1" data-name="Layer 1" xmlns="http://www.w3.org/2000/svg" viewBox="0 0 1920 1080">
  <defs>
    <style>
      .cls-1 {
        fill: #131438;
      }

      .cls-2 {
        fill: #c9e1ff;
      }

      .cls-3 {
        fill: #b4153c;
      }

      .cls-4 {
        fill: #ffc099;
      }

      .cls-5 {
        fill: #e89881;
      }

      .cls-6 {
        fill: #e88d91;
      }

      .cls-7 {
        fill: #231f20;
      }

      .cls-8 {
        fill: #b48433;
      }

      .cls-9 {
        fill: #8c6839;
      }

      .cls-10 {
        fill: #0071bc;
      }

      .cls-11 {
        fill: #fff;
      }

      .cls-12 {
        fill: #ffb78d;
      }
    </style>
  </defs>
  <title>anja_efter_viktor</title>
  <rect class="cls-1" width="1920" height="1080"/>
  <g>
    <ellipse class="cls-2" cx="1426.03" cy="174.37" rx="161.31" ry="170.8" transform="translate(450.26 1228.8) rotate(-54.19)"/>
    <ellipse class="cls-2" cx="1228.2" cy="211.82" rx="161.31" ry="170.8" transform="translate(337.81 1083.91) rotate(-54.19)"/>
    <ellipse class="cls-2" cx="1252.19" cy="428.04" rx="161.31" ry="170.8" transform="translate(172.41 1193.08) rotate(-54.19)"/>
    <ellipse class="cls-2" cx="1381.81" cy="540.3" rx="161.31" ry="170.8" transform="translate(135.16 1344.78) rotate(-54.19)"/>
    <ellipse class="cls-2" cx="1588.46" cy="559.36" rx="161.31" ry="170.8" transform="translate(205.44 1520.27) rotate(-54.19)"/>
    <ellipse class="cls-2" cx="1740.46" cy="448.5" rx="161.31" ry="170.8" transform="translate(358.41 1597.53) rotate(-54.19)"/>
    <ellipse class="cls-2" cx="1626.2" cy="265.08" rx="161.31" ry="170.8" transform="translate(459.75 1428.78) rotate(-54.19)"/>
    <ellipse class="cls-2" cx="1462.93" cy="346.2" rx="161.31" ry="170.8" transform="translate(326.22 1330.03) rotate(-54.19)"/>
  </g>
  <path class="cls-3" d="M1436.47,491.85s182.23-48.63,247-106.74l14.41-13.05a124.46,124.46,0,0,0,27.53-44.89c22.28-63.71-9.86-132.92-71.81-154.59-39.49-13.81-81.51-4.89-112.59,19.85-8.88-38.72-36.18-71.89-75.67-85.71-61.94-21.67-130.22,12.41-152.51,76.12a124.27,124.27,0,0,0-6.45,52.26l3.12,19.19c14.47,85.84,126.64,237.46,126.64,237.46Z"/>
  <g>
    <path class="cls-4" d="M1253.39,372.91c-47.5,52.4-58.1,134.94-8.17,163.29,95.57,54.26,150.91,85.75,163.87-26.44,4-34.16,98.61-97.64,8.17-163.29C1370.87,312.79,1300.9,320.52,1253.39,372.91Z"/>
    <path class="cls-4" d="M1643.72,525.64c-3.15,70.07-55.44,140.75-110.1,122.66-109.57-36.26-144.16-71.51-98.7-131.1,21-27.52-1.36-137.48,110.1-122.66C1602.2,402.14,1646.87,455.57,1643.72,525.64Z"/>
    <path class="cls-5" d="M1404.47,554.66a.75.75,0,0,0,0,.15,28.65,28.65,0,0,1-6.36,0,30.27,30.27,0,0,1-6.49-1.4h0a23,23,0,0,1-9.09-7.53c-7.09-10-13.72-26.69-13.72-26.69h0s11.4,9.6,21.06,7.89l2.17-.38a29.33,29.33,0,0,1,6.51-.05c6.15.64,11.44,3,13.88,5.82-4,1.18-6.65,3.39-6.85,6.23a5.54,5.54,0,0,0,.52,2.68q.12.27.27.54c1.22,2.22,3.77,4.32,7.15,6C1408.29,548.87,1404.71,551.32,1404.47,554.66Z"/>
    <path class="cls-5" d="M1406.1,541.41a5.54,5.54,0,0,1-.52-2.68c.2-2.84,2.84-5.05,6.85-6.23a5.16,5.16,0,0,1,1.43,3.43,1.62,1.62,0,0,1,0,.22C1413.61,538.6,1410,540.45,1406.1,541.41Z"/>
    <path class="cls-6" d="M1404.47,554.81a.75.75,0,0,1,0-.15c.24-3.34,3.82-5.79,9-6.75-3.38-1.64-5.93-3.74-7.15-6q-.15-.27-.27-.54c3.91-1,7.51-2.81,7.75-5.26-.19,2.59-3,4.57-7.15,5.47,4.1,1.75,6.83,4.3,7,6.9v.26C1413.62,551.88,1409.84,554.17,1404.47,554.81Z"/>
    <path class="cls-7" d="M1481.63,495.21a.57.57,0,0,0-.84-.76c-2.49,2.09-6.68,3.92-13.23,2.24-6.36-1.63-9.13-5.09-10.31-8.05a.61.61,0,0,0-1.17.31,14,14,0,0,0,10.44,11.61A14.35,14.35,0,0,0,1481.63,495.21Z"/>
    <path class="cls-6" d="M1444.12,550.86c-5.79,5.72-4.17,4.61-12.55,9.34-.09,0-4.7,1.86-4.8,1.88l-4.37,1.23a20.21,20.21,0,0,1-6.06.59c-8.39-.85-12.94-4.19-12.47-9.29,4.53-.93,7.81-3.39,8-6.43,0-.08,0-.16,0-.25,0-2.36-2.68-4.55-5.71-6l-.73-.34.53-.18c3.33-1.15,6.44-3.16,6.78-5.58a1.5,1.5,0,0,0,0-.22,4.92,4.92,0,0,0-1-3.28c2.87-1.17,7.3-.59,10.85.9a36.84,36.84,0,0,1,4.32,2.2,31.75,31.75,0,0,1,3.59,2.25l3.64,2.66a17.7,17.7,0,0,0,3.79,2.13c7.62,3.15,11,2.38,11,2.38Z"/>
    <g>
      <path class="cls-8" d="M1630,589.5c-9.93,23-40.48,82.48,29.33,49.87-29,63.38-125.29,31.67-146.42,20.34s-58-238.89,0-271.58C1600.68,385.05,1686.49,431,1630,589.5Z"/>
      <path class="cls-8" d="M1606,589.82c34.28,4.94-41.61-253-108.48-206C1406.68,447.74,1494.74,573.79,1606,589.82Z"/>
    </g>
    <path class="cls-9" d="M1213.76,457.57s93-100.75,162.06-60.05,140-16.68,44.46-73C1331.06,272,1246,251.75,1213.76,457.57Z"/>
    <path class="cls-9" d="M1369.39,434.68s2-41.11,20.35-56.44c19.74-16.48,63-9.76,63-9.76s19.21,37.54-25,57.46C1406.82,435.38,1369.39,434.68,1369.39,434.68Z"/>
    <path class="cls-7" d="M1408.69,463.09c.43-.59-.26-1.31-.8-.83-2.61,2.29-6.91,4.29-13.43,2.47-6.32-1.76-8.94-5.52-10-8.74a.62.62,0,0,0-1.2.33,14,14,0,0,0,10,12.64C1399,470.58,1405.11,468.05,1408.69,463.09Z"/>
  </g>
  <circle class="cls-2" cx="1214.42" cy="614.87" r="62.82"/>
  <circle class="cls-2" cx="1106.5" cy="723.99" r="45.93"/>
  <circle class="cls-2" cx="1013.56" cy="790.52" r="26.78"/>
  <path id="head" class="cls-4" d="M947.56,936.33C926.21,1218.74,906,1419.82,562,1519.44a213.15,213.15,0,0,1-116.64.46C92,1421.1,90.58,1226.53,61.1,936.33,30.45,634.6,259.54,387.19,504.33,387.19S970.43,633.92,947.56,936.33Z"/>
  <path class="cls-9" d="M53.84,869S201.86,615.05,502,615.05,951.88,869,951.88,869c0-240.23-34.81-522.08-449.9-522.08C114.5,346.88,53.84,628.73,53.84,869Z"/>
  <path class="cls-10" d="M615.09,789.61c-.66.19-1.33.29-1.9.48a3,3,0,0,1-.57-1.05,2.23,2.23,0,0,1,.76-.09c.48-.1.86-.1,1.24-.19A3.6,3.6,0,0,0,615.09,789.61Z"/>
  <path class="cls-11" d="M317.46,895.66a23.76,23.76,0,1,0,34.78-21.09h-.1c-.38-.19-.85-.38-1.33-.57l-.57-.29a1.51,1.51,0,0,0-.85-.28,19,19,0,0,0-7.32-1.43,2.74,2.74,0,0,0-.85-.09,2.8,2.8,0,0,0-.86.09,10.87,10.87,0,0,0-1.8.1h-.1A23.75,23.75,0,0,0,317.46,895.66Zm0,0a23.76,23.76,0,1,0,34.78-21.09h-.1c-.38-.19-.85-.38-1.33-.57l-.57-.29a1.51,1.51,0,0,0-.85-.28,19,19,0,0,0-7.32-1.43,2.74,2.74,0,0,0-.85-.09,2.8,2.8,0,0,0-.86.09,10.87,10.87,0,0,0-1.8.1h-.1A23.75,23.75,0,0,0,317.46,895.66Zm0,0a23.76,23.76,0,1,0,34.78-21.09h-.1c-.38-.19-.85-.38-1.33-.57l-.57-.29a1.51,1.51,0,0,0-.85-.28,19,19,0,0,0-7.32-1.43,2.74,2.74,0,0,0-.85-.09,2.8,2.8,0,0,0-.86.09,10.87,10.87,0,0,0-1.8.1h-.1A23.75,23.75,0,0,0,317.46,895.66Zm0,0a23.76,23.76,0,1,0,34.78-21.09h-.1c-.38-.19-.85-.38-1.33-.57l-.57-.29a1.51,1.51,0,0,0-.85-.28,19,19,0,0,0-7.32-1.43,2.74,2.74,0,0,0-.85-.09,2.8,2.8,0,0,0-.86.09,10.87,10.87,0,0,0-1.8.1h-.1A23.75,23.75,0,0,0,317.46,895.66Zm0,0a23.76,23.76,0,1,0,34.78-21.09h-.1c-.38-.19-.85-.38-1.33-.57l-.57-.29a1.51,1.51,0,0,0-.85-.28,19,19,0,0,0-7.32-1.43,2.74,2.74,0,0,0-.85-.09,2.8,2.8,0,0,0-.86.09,10.87,10.87,0,0,0-1.8.1h-.1A23.75,23.75,0,0,0,317.46,895.66Zm0,0a23.76,23.76,0,1,0,34.78-21.09h-.1c-.38-.19-.85-.38-1.33-.57l-.57-.29a1.51,1.51,0,0,0-.85-.28,19,19,0,0,0-7.32-1.43,2.74,2.74,0,0,0-.85-.09,2.8,2.8,0,0,0-.86.09,10.87,10.87,0,0,0-1.8.1h-.1A23.75,23.75,0,0,0,317.46,895.66Zm-56.63-6.08a.13.13,0,0,1,0,.19c.48-.28.95-.66,1.52-1,3.61-2.38,8-5.51,12.83-9l1.71-1.14c1.43-1,2.95-2.09,4.47-3.14s3.23-2.09,4.84-3.13a20.49,20.49,0,0,1,2.66-1.71,7.55,7.55,0,0,1,1.9-1.14c.19-.1.29-.19.48-.29.57-.38,1.23-.76,1.9-1.23,2-1.24,4.08-2.38,6.17-3.52l.1-.09h.09c.76-.38,1.43-.86,2.19-1.24.09-.09.29-.09.38-.19a13.11,13.11,0,0,1,1.62-.76,5.19,5.19,0,0,1,1.61-.85h.1c.85-.38,1.71-.86,2.56-1.24.1,0,.19-.09.29-.09.28-.1.47-.19.76-.29a4.78,4.78,0,0,1,1-.47h.1a11,11,0,0,1,1.61-.67,37.16,37.16,0,0,1,5.32-2.09,6.28,6.28,0,0,1,1.24-.47h.09c.48-.1.86-.29,1.43-.39,1-.38,2.18-.66,3.23-.95s2-.47,2.94-.57a17.16,17.16,0,0,1,2.1-.38h.19a16.67,16.67,0,0,1,2.09-.38h.09a43.91,43.91,0,0,1,6-.38H338a9.82,9.82,0,0,1,1.71.1h.38a16.24,16.24,0,0,1,2.09.09,23,23,0,0,1,2.47.19c.38,0,.85.1,1.33.1s.76.09,1.23.19a2.17,2.17,0,0,1,.76.09,5.19,5.19,0,0,1,1.24.1c2.28.28,4.56.76,6.75,1.14.09,0,.28.09.38.09.47.1.85.19,1.23.29.1,0,.29.09.38.09.67.19,1.24.29,1.9.48.86.19,1.62.38,2.38.57l2,.57c.67.19,1.33.38,1.9.57.1,0,.19.1.29.1.57.18,1,.38,1.61.57h.1c2.09.66,4,1.33,5.89,2.09.09.09.28.09.38.19.66.19,1.14.47,1.71.66l.09.1h.1c.76.28,1.52.66,2.28,1,1.52.66,3,1.42,4.47,2.18.28.38.57.67.85,1.05a.83.83,0,0,0,.29-.57h.09c.48.28,1.14.57,1.62.85H386q3.7,2,7.13,4a21.25,21.25,0,0,1,1.9,1l.19.09a21.6,21.6,0,0,1,2,1.24c.38.28.86.47,1.24.76a14.59,14.59,0,0,1,1.61,1c.86.48,1.71,1.05,2.57,1.62a14.59,14.59,0,0,0,1.61,1c3.23,2.28,6.28,4.37,9,6.37.57.38,1.14.86,1.62,1.14,2.47,1.9,4.75,3.52,6.65,4.94a48.06,48.06,0,0,0-4-13.59c-.57-1.33-1.24-2.18-1.81-3.42l-.09-.19c.09-.09.09-.09,0-.19a63.65,63.65,0,0,0-7.89-11,21.41,21.41,0,0,0-2.57-2.56l-.09-.1A12.1,12.1,0,0,0,404,856.8a33.05,33.05,0,0,0-2.75-2.38l-.1-.09c-1.14-1.05-2.18-1.81-3.42-2.76l-.09-.09c-.1-.1-.29-.19-.38-.29a76.4,76.4,0,0,0-11.4-6.93h-.1a5.76,5.76,0,0,0-1.33-.76c-.38-.19-.76-.38-1.23-.57a12.79,12.79,0,0,0-1.71-.76c-.86-.38-1.72-.76-2.67-1.14h-.09a3.77,3.77,0,0,0-.95-.38.1.1,0,0,1-.1-.1c-.38-.09-.66-.28-1-.38a77.52,77.52,0,0,0-8.27-2.66h-.09c-.1,0-.29-.09-.38-.09a10.8,10.8,0,0,0-1.9-.57c-.29-.1-.48-.1-.76-.19h-.19a17,17,0,0,0-2.28-.48,23.15,23.15,0,0,0-2.57-.47,3.92,3.92,0,0,0-1.52-.29c-.38-.09-.66-.09-1-.19-.86-.09-1.71-.28-2.57-.38q-2.85-.42-5.7-.57c-.57,0-1.24-.09-1.9-.09h-.19a9.82,9.82,0,0,0-1.71-.1h-.48a7,7,0,0,0-2-.09H343a10.87,10.87,0,0,0-1.8-.1h-1.33a14.56,14.56,0,0,0-2.09.1,17.83,17.83,0,0,0-2.19.09q-3.42.15-6.84.57c-.38,0-.66.1-.95.1s-.76.09-1.14.19a2.8,2.8,0,0,0-.86.09c-.19,0-.47.1-.66.1a16.71,16.71,0,0,0-2.38.47,4.8,4.8,0,0,0-1.61.29,3.15,3.15,0,0,0-.95.19h-.1c-.66.09-1.23.28-1.8.38a85.81,85.81,0,0,0-15,4.75c0-.1-.1-.1-.19,0a26.41,26.41,0,0,0-2.95,1.33A76,76,0,0,0,285.44,851c-1.23.86-2.37,1.81-3.51,2.66v.1c-10.84,8.93-18.25,20.14-20.62,32.78v.1A14.68,14.68,0,0,0,260.83,889.58Zm56.63,6.08a23.76,23.76,0,1,0,34.78-21.09h-.1c-.38-.19-.85-.38-1.33-.57l-.57-.29a1.51,1.51,0,0,0-.85-.28,19,19,0,0,0-7.32-1.43,2.74,2.74,0,0,0-.85-.09,2.8,2.8,0,0,0-.86.09,10.87,10.87,0,0,0-1.8.1h-.1A23.75,23.75,0,0,0,317.46,895.66Zm0,0a23.76,23.76,0,1,0,34.78-21.09h-.1c-.38-.19-.85-.38-1.33-.57l-.57-.29a1.51,1.51,0,0,0-.85-.28,19,19,0,0,0-7.32-1.43,2.74,2.74,0,0,0-.85-.09,2.8,2.8,0,0,0-.86.09,10.87,10.87,0,0,0-1.8.1h-.1A23.75,23.75,0,0,0,317.46,895.66Zm0,0a23.76,23.76,0,1,0,34.78-21.09h-.1c-.38-.19-.85-.38-1.33-.57l-.57-.29a1.51,1.51,0,0,0-.85-.28,19,19,0,0,0-7.32-1.43,2.74,2.74,0,0,0-.85-.09,2.8,2.8,0,0,0-.86.09,10.87,10.87,0,0,0-1.8.1h-.1A23.75,23.75,0,0,0,317.46,895.66Zm0,0a23.76,23.76,0,1,0,34.78-21.09h-.1c-.38-.19-.85-.38-1.33-.57l-.57-.29a1.51,1.51,0,0,0-.85-.28,19,19,0,0,0-7.32-1.43,2.74,2.74,0,0,0-.85-.09,2.8,2.8,0,0,0-.86.09,10.87,10.87,0,0,0-1.8.1h-.1A23.75,23.75,0,0,0,317.46,895.66Zm0,0a23.76,23.76,0,1,0,34.78-21.09h-.1c-.38-.19-.85-.38-1.33-.57l-.57-.29a1.51,1.51,0,0,0-.85-.28,19,19,0,0,0-7.32-1.43,2.74,2.74,0,0,0-.85-.09,2.8,2.8,0,0,0-.86.09,10.87,10.87,0,0,0-1.8.1h-.1A23.75,23.75,0,0,0,317.46,895.66Z"/>
  <path class="cls-11" d="M260.45,895.66a44.32,44.32,0,0,0,.38,6.08,6.84,6.84,0,0,1,.29-.76,16.34,16.34,0,0,0-.29-11.21.09.09,0,0,1-.09.1C260.55,891.77,260.45,893.76,260.45,895.66Zm2.28,6.18a17.69,17.69,0,0,1-1.33,3.23c5.89,29.64,39.43,52.35,79.82,52.35,44.56,0,80.76-27.65,80.76-61.76a51.91,51.91,0,0,0-.47-6.65c-1.9-1.42-4.18-3-6.65-4.94-.48-.28-1.05-.76-1.62-1.14-2.75-2-5.8-4.09-9-6.37a14.59,14.59,0,0,1-1.61-1c-.86-.57-1.71-1.14-2.57-1.62a8.29,8.29,0,0,1-.66,1.24,16.46,16.46,0,0,1-1.62-1,7.46,7.46,0,0,0,.67-1.23c-.38-.29-.86-.48-1.24-.76a21.6,21.6,0,0,0-2-1.24l-.19-.09a21.25,21.25,0,0,0-1.9-1q-3.42-2-7.13-4c-.28.38-.47.86-.85,1.33,0,.1,0,.1-.1.19a51,51,0,0,1,8.46,28.41,52.26,52.26,0,1,1-94.17-31.26c-2.09,1.14-4.18,2.28-6.17,3.52a16.91,16.91,0,0,1-1.05,3.13,22.86,22.86,0,0,1-2.75,4.28c-.1.28-.38.28-.67.28a1.47,1.47,0,0,1-.66-.09.92.92,0,0,1-.1-1.33,10.33,10.33,0,0,0,1.43-2.09,25.12,25.12,0,0,0,1.42-2.66,7.55,7.55,0,0,0-1.9,1.14,20.49,20.49,0,0,0-2.66,1.71c-1.61,1-3.32,2.09-4.84,3.13s-3,2.09-4.47,3.14a18.52,18.52,0,0,1-.85,8.84,23.86,23.86,0,0,1-3,6.08c-.57-.19-1.24-.38-1.9-.57a24.47,24.47,0,0,0,3.23-6.46,17.56,17.56,0,0,0,.76-6.75c-4.85,3.52-9.22,6.65-12.83,9A17.65,17.65,0,0,1,262.73,901.84Z"/>
  <path class="cls-10" d="M299.41,864.31h.09c.76-.38,1.43-.86,2.19-1.24.09-.09.29-.09.38-.19a13.11,13.11,0,0,1,1.62-.76,5.19,5.19,0,0,1,1.61-.85h.1c.85-.38,1.71-.86,2.56-1.24.1,0,.19-.09.29-.09.28-.1.47-.19.76-.29a4.78,4.78,0,0,1,1-.47h.1a11,11,0,0,1,1.61-.67,37.16,37.16,0,0,1,5.32-2.09,6.28,6.28,0,0,1,1.24-.47h.09c.48-.1.86-.29,1.43-.39,1-.38,2.18-.66,3.23-.95s2-.47,2.94-.57a17.16,17.16,0,0,1,2.1-.38h.19a16.67,16.67,0,0,1,2.09-.38h.09a43.91,43.91,0,0,1,6-.38H338a9.82,9.82,0,0,1,1.71.1h.38a16.24,16.24,0,0,1,2.09.09,23,23,0,0,1,2.47.19c.38,0,.85.1,1.33.1s.76.09,1.23.19a2.17,2.17,0,0,1,.76.09,5.19,5.19,0,0,1,1.24.1c2.28.28,4.56.76,6.75,1.14.09,0,.28.09.38.09.47.1.85.19,1.23.29.1,0,.29.09.38.09.67.19,1.24.29,1.9.48.86.19,1.62.38,2.38.57l2,.57c.67.19,1.33.38,1.9.57.1,0,.19.1.29.1.57.18,1,.38,1.61.57h.1c2.09.66,4,1.33,5.89,2.09.09.09.28.09.38.19.66.19,1.14.47,1.71.66l.09.1h.1c.76.28,1.52.66,2.28,1,1.52.66,3,1.42,4.47,2.18a38.63,38.63,0,0,0-5.52-6.27c-.47-.47-.95-1-1.52-1.43a41.36,41.36,0,0,0-5.6-4.27,6.69,6.69,0,0,0-1.33-.95c-.1-.1-.19-.1-.29-.19a5.76,5.76,0,0,0-1.33-.76,14.39,14.39,0,0,0-2.09-1.24h-.09a25.37,25.37,0,0,0-2.85-1.33,3.21,3.21,0,0,0-1.33-.47,1.89,1.89,0,0,0-.57-.38,4.93,4.93,0,0,0-1.24-.48c-.19-.09-.38-.09-.57-.19a39.89,39.89,0,0,0-7.51-2H351a3.92,3.92,0,0,0-1.52-.29.35.35,0,0,0-.28-.09,61.93,61.93,0,0,0-6.18-.57,7.77,7.77,0,0,0-1.52-.1h-.28a7.72,7.72,0,0,0-1.52.1h-.48a17.84,17.84,0,0,0-3.8.28c-.09-.09-.09,0-.19,0-1,.1-2.18.29-3.23.48h-.28l-1.43.28c-.09,0-.28.1-.38.1a50.71,50.71,0,0,0-7.41,2.18,15.67,15.67,0,0,1-1.9.76,51.71,51.71,0,0,0-7.51,4,13.29,13.29,0,0,0-1.8,1.33,6.46,6.46,0,0,0-1,.76,8,8,0,0,0-1.81,1.33,46.85,46.85,0,0,0-5.13,4.57c-.57.66-1.14,1.23-1.71,1.9C300.93,862.41,300.07,863.36,299.41,864.31Zm18,31.35a23.76,23.76,0,1,0,34.78-21.09h-.1c-.38-.19-.85-.38-1.33-.57l-.57-.29a1.51,1.51,0,0,0-.85-.28,19,19,0,0,0-7.32-1.43,2.74,2.74,0,0,0-.85-.09,2.8,2.8,0,0,0-.86.09,10.87,10.87,0,0,0-1.8.1h-.1A23.75,23.75,0,0,0,317.46,895.66Z"/>
  <path class="cls-10" d="M289,895.66a52.26,52.26,0,1,0,104.52,0A51,51,0,0,0,385,867.25c-.09-.09-.09-.19-.19-.28-.47-.19-1-.29-1.61-.48a6.66,6.66,0,0,0,.66-1c-.28-.38-.57-.67-.85-1.05-1.43-.76-2.95-1.52-4.47-2.18-.76-.29-1.52-.67-2.28-1h-.1l-.09-.1c-.57-.19-1-.47-1.71-.66-.1-.1-.29-.1-.38-.19-1.9-.76-3.8-1.43-5.89-2.09H368a7.7,7.7,0,0,1-.95,1.71c-.57-.19-1.23-.29-1.9-.57a18.38,18.38,0,0,1,1.24-1.71c-.1,0-.19-.1-.29-.1-.57-.19-1.23-.38-1.9-.57l-2-.57c-.76-.19-1.52-.38-2.38-.57-.66-.19-1.23-.29-1.9-.48-.09,0-.28-.09-.38-.09-.38-.1-.76-.19-1.23-.29-.1,0-.29-.09-.38-.09-2.19-.38-4.47-.86-6.75-1.14a5.19,5.19,0,0,0-1.24-.1,2.73,2.73,0,0,1-.57,1.05c-.57-.19-1.23-.29-1.9-.48a4.06,4.06,0,0,0,.48-.85c-.48,0-1-.1-1.33-.1a23,23,0,0,0-2.47-.19,16.24,16.24,0,0,0-2.09-.09h-.38a9.82,9.82,0,0,0-1.71-.1h-1.52a43.91,43.91,0,0,0-6,.38h-.09a20.58,20.58,0,0,1-2.57,5.23c-.57-.19-1.24-.38-1.9-.57a25.07,25.07,0,0,0,2.38-4.28h-.19a17.16,17.16,0,0,0-2.1.38c-.95.1-2,.38-2.94.57s-2.19.57-3.23.95c-.48.86-1,1.71-1.62,2.67a1.16,1.16,0,0,1-.76.38,1.42,1.42,0,0,1-.57-.19,1,1,0,0,1-.19-1.33,2.28,2.28,0,0,0,.38-.67,37.16,37.16,0,0,0-5.32,2.09A21,21,0,0,1,309,863a25.25,25.25,0,0,1-2.57,5c-.57-.19-1.23-.38-1.9-.57a24.33,24.33,0,0,0,2.76-5c.19-.48.28-.95.47-1.43a3.15,3.15,0,0,0,.19-1c-.85.38-1.71.86-2.56,1.24h-.1a5.19,5.19,0,0,0-1.61.85,13.11,13.11,0,0,0-1.62.76c-.09.1-.29.1-.38.19-.76.38-1.43.86-2.19,1.24h-.09l-.1.09A51.91,51.91,0,0,0,289,895.66Zm28.5,0a23.75,23.75,0,0,1,21-23.56h.1a10.87,10.87,0,0,1,1.8-.1,2.8,2.8,0,0,1,.86-.09,2.74,2.74,0,0,1,.85.09,19,19,0,0,1,7.32,1.43,1.51,1.51,0,0,1,.85.28l.57.29c.48.19.95.38,1.33.57h.1a23.78,23.78,0,1,1-34.78,21.09Z"/>
  <path d="M317.46,895.66a23.76,23.76,0,1,0,34.78-21.09h-.1c-.38-.19-.85-.38-1.33-.57l-.57-.29a1.51,1.51,0,0,0-.85-.28,19,19,0,0,0-7.32-1.43,2.74,2.74,0,0,0-.85-.09,2.8,2.8,0,0,0-.86.09,10.87,10.87,0,0,0-1.8.1h-.1A23.75,23.75,0,0,0,317.46,895.66Z"/>
  <path class="cls-10" d="M316.89,858.42a1.42,1.42,0,0,0,.57.19,1.16,1.16,0,0,0,.76-.38c.57-1,1.14-1.81,1.62-2.67-.57.1-.95.29-1.43.39h-.09a6.28,6.28,0,0,0-1.24.47,2.28,2.28,0,0,1-.38.67A1,1,0,0,0,316.89,858.42Z"/>
  <path class="cls-4" d="M251,890.91c0,4.09,3.61,2.85,9.79-1a.09.09,0,0,0,.09-.1c.48-.28.95-.66,1.52-1,3.61-2.38,8-5.51,12.83-9l1.71-1.14c1.43-1,2.95-2.09,4.47-3.14s3.23-2.09,4.84-3.13a20.49,20.49,0,0,1,2.66-1.71,7.55,7.55,0,0,1,1.9-1.14c.19-.1.29-.19.48-.29.57-.38,1.23-.76,1.9-1.23,2-1.24,4.08-2.38,6.17-3.52l.1-.09h.09c.76-.38,1.43-.86,2.19-1.24.09-.09.29-.09.38-.19a13.11,13.11,0,0,1,1.62-.76,5.19,5.19,0,0,1,1.61-.85h.1c.85-.38,1.71-.86,2.56-1.24.1,0,.19-.09.29-.09.28-.1.47-.19.76-.29a4.78,4.78,0,0,1,1-.47h.1a11,11,0,0,1,1.61-.67,37.16,37.16,0,0,1,5.32-2.09,6.28,6.28,0,0,1,1.24-.47h.09c.48-.1.86-.29,1.43-.39,1-.38,2.18-.66,3.23-.95s2-.47,2.94-.57a17.16,17.16,0,0,1,2.1-.38h.19a16.67,16.67,0,0,1,2.09-.38h.09a43.91,43.91,0,0,1,6-.38H338a9.82,9.82,0,0,1,1.71.1h.38a16.24,16.24,0,0,1,2.09.09,23,23,0,0,1,2.47.19c.38,0,.85.1,1.33.1s.76.09,1.23.19a2.17,2.17,0,0,1,.76.09,5.19,5.19,0,0,1,1.24.1c2.28.28,4.56.76,6.75,1.14.09,0,.28.09.38.09.47.1.85.19,1.23.29.1,0,.29.09.38.09.67.19,1.24.29,1.9.48.86.19,1.62.38,2.38.57l2,.57c.67.19,1.33.38,1.9.57.1,0,.19.1.29.1.57.18,1,.38,1.61.57h.1c2.09.66,4,1.33,5.89,2.09.09.09.28.09.38.19.66.19,1.14.47,1.71.66l.09.1h.1c.76.28,1.52.66,2.28,1,1.52.66,3,1.42,4.47,2.18a6.16,6.16,0,0,1,1.14.48h.09c.48.28,1.14.57,1.62.85H386q3.7,2,7.13,4a21.25,21.25,0,0,1,1.9,1l.19.09a21.6,21.6,0,0,1,2,1.24c.38.28.86.47,1.24.76a14.59,14.59,0,0,1,1.61,1c.86.48,1.71,1.05,2.57,1.62a14.59,14.59,0,0,0,1.61,1c3.23,2.28,6.28,4.37,9,6.37.57.38,1.14.86,1.62,1.14,2.47,1.9,4.75,3.52,6.65,4.94,6.46,4.56,10,6.27,10,1.9,0-23.66-33.44-52.92-70-63-1-.28-2.19-.57-3.23-.76a90.81,90.81,0,0,0-21.76-2.75C291.9,824.4,251,861.84,251,890.91Z"/>
  <path class="cls-11" d="M288,875.52a1.47,1.47,0,0,0,.66.09c.29,0,.57,0,.67-.28a22.86,22.86,0,0,0,2.75-4.28c-.95.29-1.8.67-2.75,1.05a10.33,10.33,0,0,1-1.43,2.09A.92.92,0,0,0,288,875.52Z"/>
  <path class="cls-11" d="M289.34,872.1c1-.38,1.8-.76,2.75-1.05a16.91,16.91,0,0,0,1.05-3.13c-.67.47-1.33.85-1.9,1.23-.19.1-.29.19-.48.29A25.12,25.12,0,0,1,289.34,872.1Z"/>
  <path class="cls-10" d="M325.92,857.94c.66.19,1.33.38,1.9.57a20.58,20.58,0,0,0,2.57-5.23,16.67,16.67,0,0,0-2.09.38A25.07,25.07,0,0,1,325.92,857.94Z"/>
  <path class="cls-10" d="M304.54,867.44c.67.19,1.33.38,1.9.57a25.25,25.25,0,0,0,2.57-5,.65.65,0,0,1-.67.38,1.43,1.43,0,0,1-.66-.19,1.18,1.18,0,0,1-.38-.76A24.33,24.33,0,0,1,304.54,867.44Z"/>
  <path class="cls-10" d="M307.3,862.41a1.18,1.18,0,0,0,.38.76,1.43,1.43,0,0,0,.66.19A.65.65,0,0,0,309,863a4.93,4.93,0,0,0,.38-1.05,16.52,16.52,0,0,0,.66-2.75,4.78,4.78,0,0,0-1,.47,14.35,14.35,0,0,1-1.43,2.19A.81.81,0,0,0,307.3,862.41Z"/>
  <path class="cls-10" d="M307.3,862.41a.81.81,0,0,1,.28-.57,14.35,14.35,0,0,0,1.43-2.19c-.29.1-.48.19-.76.29-.1,0-.19.09-.29.09a3.15,3.15,0,0,1-.19,1C307.58,861.46,307.49,861.93,307.3,862.41Z"/>
  <path class="cls-10" d="M309,863a21,21,0,0,0,2.75-4.47,11,11,0,0,0-1.61.67h-.1a16.52,16.52,0,0,1-.66,2.75A4.93,4.93,0,0,1,309,863Z"/>
  <path class="cls-11" d="M271.19,892.91c.66.19,1.33.38,1.9.57a23.86,23.86,0,0,0,3-6.08,18.52,18.52,0,0,0,.85-8.84l-1.71,1.14a17.56,17.56,0,0,1-.76,6.75A24.47,24.47,0,0,1,271.19,892.91Z"/>
  <path class="cls-11" d="M261.12,901a6.84,6.84,0,0,0-.29.76v.1c.19,1,.38,2.18.57,3.23a20.09,20.09,0,0,0,1-16.34c-.57.38-1,.76-1.52,1A16.34,16.34,0,0,1,261.12,901Z"/>
  <path class="cls-4" d="M257.89,907.35c.66.28,1.33.38,1.9.57a14.68,14.68,0,0,0,1.61-2.85c-.19-1.05-.38-2.19-.57-3.23A22.4,22.4,0,0,1,257.89,907.35Z"/>
  <path class="cls-11" d="M654.71,873.24h-.09a11,11,0,0,0-1.81-.1,2.74,2.74,0,0,0-.85-.09,2.8,2.8,0,0,0-.86.09,18.94,18.94,0,0,0-7.31,1.43,1.54,1.54,0,0,0-.86.28l-.57.29c-.47.19-1,.38-1.33.57h-.09a23.86,23.86,0,1,0,13.77-2.47Zm0,0h-.09a11,11,0,0,0-1.81-.1,2.74,2.74,0,0,0-.85-.09,2.8,2.8,0,0,0-.86.09,18.94,18.94,0,0,0-7.31,1.43,1.54,1.54,0,0,0-.86.28l-.57.29c-.47.19-1,.38-1.33.57h-.09a23.86,23.86,0,1,0,13.77-2.47Zm0,0h-.09a11,11,0,0,0-1.81-.1,2.74,2.74,0,0,0-.85-.09,2.8,2.8,0,0,0-.86.09,18.94,18.94,0,0,0-7.31,1.43,1.54,1.54,0,0,0-.86.28l-.57.29c-.47.19-1,.38-1.33.57h-.09a23.86,23.86,0,1,0,13.77-2.47Zm0,0h-.09a11,11,0,0,0-1.81-.1,2.74,2.74,0,0,0-.85-.09,2.8,2.8,0,0,0-.86.09,18.94,18.94,0,0,0-7.31,1.43,1.54,1.54,0,0,0-.86.28l-.57.29c-.47.19-1,.38-1.33.57h-.09a23.86,23.86,0,1,0,13.77-2.47Zm0,0h-.09a11,11,0,0,0-1.81-.1,2.74,2.74,0,0,0-.85-.09,2.8,2.8,0,0,0-.86.09,18.94,18.94,0,0,0-7.31,1.43,1.54,1.54,0,0,0-.86.28l-.57.29c-.47.19-1,.38-1.33.57h-.09a23.86,23.86,0,1,0,13.77-2.47Zm0,0h-.09a11,11,0,0,0-1.81-.1,2.74,2.74,0,0,0-.85-.09,2.8,2.8,0,0,0-.86.09,18.94,18.94,0,0,0-7.31,1.43,1.54,1.54,0,0,0-.86.28l-.57.29c-.47.19-1,.38-1.33.57h-.09a23.86,23.86,0,1,0,13.77-2.47Zm77.16,14.54v-.1c-2.38-12.64-9.79-23.85-20.62-32.78v-.1c-1.14-.85-2.28-1.8-3.52-2.66A76.2,76.2,0,0,0,693,843.69a26.41,26.41,0,0,0-3-1.33c-.09-.1-.19-.1-.19,0a86.08,86.08,0,0,0-15-4.75c-.57-.1-1.14-.29-1.81-.38H673a3.27,3.27,0,0,0-1-.19,4.86,4.86,0,0,0-1.62-.29,16.85,16.85,0,0,0-2.37-.47c-.19,0-.48-.1-.67-.1a2.74,2.74,0,0,0-.85-.09c-.38-.1-.76-.1-1.14-.19s-.57-.1-1-.1q-3.42-.42-6.85-.57a17.66,17.66,0,0,0-2.18-.09,14.7,14.7,0,0,0-2.09-.1H652a11,11,0,0,0-1.81.1h-.09a7.07,7.07,0,0,0-2,.09h-.47a9.82,9.82,0,0,0-1.71.1h-.19c-.67,0-1.33.09-1.9.09q-2.85.15-5.7.57c-.86.1-1.71.29-2.57.38-.38.1-.66.1-1,.19a4,4,0,0,0-1.52.29,23,23,0,0,0-2.56.47,16.66,16.66,0,0,0-2.28.48h-.19c-.29.09-.48.09-.76.19a10.55,10.55,0,0,0-1.9.57c-.1,0-.29.09-.38.09h-.1a77.35,77.35,0,0,0-8.26,2.66c-.38.1-.67.29-1,.38,0,0,0,.1-.09.1a3.77,3.77,0,0,0-1,.38h-.1c-1,.38-1.8.76-2.66,1.14a12.79,12.79,0,0,0-1.71.76c-.47.19-.85.38-1.23.57a5.56,5.56,0,0,0-1.33.76h-.1a75.4,75.4,0,0,0-11.4,6.93c-.1.1-.29.19-.38.29l-.1.09c-1.23.95-2.28,1.71-3.42,2.76l-.09.09a34.9,34.9,0,0,0-2.76,2.38,10.75,10.75,0,0,0-1,1.14l-.1.1a21.34,21.34,0,0,0-2.56,2.56,63.65,63.65,0,0,0-7.89,11c-.1.1-.1.1,0,.19l-.1.19c-.57,1.24-1.23,2.09-1.8,3.42a47.42,47.42,0,0,0-4,13.59c1.9-1.42,4.18-3,6.65-4.94.47-.28,1-.76,1.61-1.14,2.76-2,5.8-4.09,9-6.37a14.69,14.69,0,0,0,1.62-1c.85-.57,1.71-1.14,2.56-1.62a14.69,14.69,0,0,1,1.62-1c.38-.29.85-.48,1.23-.76a21.73,21.73,0,0,1,2-1.24l.19-.09a18.8,18.8,0,0,1,1.9-1q3.42-2,7.12-4h.1c.47-.28,1.14-.57,1.62-.85H609a.83.83,0,0,0,.29.57c.28-.38.57-.67.85-1.05,1.43-.76,3-1.52,4.47-2.18.76-.29,1.52-.67,2.28-1H617l.1-.1c.57-.19,1-.47,1.71-.66.09-.1.28-.1.38-.19,1.9-.76,3.8-1.43,5.89-2.09h.09c.57-.19,1.05-.38,1.62-.57.09,0,.19-.1.28-.1.57-.19,1.24-.38,1.9-.57l2-.57c.76-.19,1.52-.38,2.37-.57.67-.19,1.24-.29,1.91-.47.09,0,.28-.1.38-.1.38-.1.76-.19,1.23-.29.1,0,.29-.09.38-.09,2.19-.38,4.47-.86,6.75-1.14a5.11,5.11,0,0,1,1.23-.1,2.23,2.23,0,0,1,.76-.09c.48-.1.86-.1,1.24-.19s.95-.1,1.33-.1a22.62,22.62,0,0,1,2.47-.19,16.24,16.24,0,0,1,2.09-.09h.38a9.82,9.82,0,0,1,1.71-.1h1.52a44.11,44.11,0,0,1,6,.38h.09a16.67,16.67,0,0,1,2.09.38h.19a16.67,16.67,0,0,1,2.09.38c1,.1,2,.38,3,.57s2.18.57,3.23,1c.57.1.95.29,1.42.39h.1a6.2,6.2,0,0,1,1.23.47,36.7,36.7,0,0,1,5.32,2.09,11.1,11.1,0,0,1,1.62.67h.09a4.85,4.85,0,0,1,1,.47c.28.1.47.19.76.29.09,0,.19.09.28.09.86.38,1.72.86,2.57,1.24h.1a5.19,5.19,0,0,1,1.61.85,13.11,13.11,0,0,1,1.62.76c.09.1.28.1.38.19.76.38,1.42.86,2.18,1.24h.1l.09.09c2.09,1.14,4.18,2.28,6.18,3.52.66.47,1.33.85,1.9,1.23.19.1.28.19.47.29a7.38,7.38,0,0,1,1.9,1.14,19.22,19.22,0,0,1,2.66,1.71c1.62,1,3.33,2.09,4.85,3.13s3,2.09,4.47,3.14l1.71,1.14c4.84,3.52,9.21,6.65,12.82,9,.57.38,1,.76,1.52,1a.14.14,0,0,1,0-.19A14.68,14.68,0,0,0,731.87,887.78Zm-77.16-14.54h-.09a11,11,0,0,0-1.81-.1,2.74,2.74,0,0,0-.85-.09,2.8,2.8,0,0,0-.86.09,18.94,18.94,0,0,0-7.31,1.43,1.54,1.54,0,0,0-.86.28l-.57.29c-.47.19-1,.38-1.33.57h-.09a23.86,23.86,0,1,0,13.77-2.47Zm0,0h-.09a11,11,0,0,0-1.81-.1,2.74,2.74,0,0,0-.85-.09,2.8,2.8,0,0,0-.86.09,18.94,18.94,0,0,0-7.31,1.43,1.54,1.54,0,0,0-.86.28l-.57.29c-.47.19-1,.38-1.33.57h-.09a23.86,23.86,0,1,0,13.77-2.47Zm0,0h-.09a11,11,0,0,0-1.81-.1,2.74,2.74,0,0,0-.85-.09,2.8,2.8,0,0,0-.86.09,18.94,18.94,0,0,0-7.31,1.43,1.54,1.54,0,0,0-.86.28l-.57.29c-.47.19-1,.38-1.33.57h-.09a23.86,23.86,0,1,0,13.77-2.47Zm0,0h-.09a11,11,0,0,0-1.81-.1,2.74,2.74,0,0,0-.85-.09,2.8,2.8,0,0,0-.86.09,18.94,18.94,0,0,0-7.31,1.43,1.54,1.54,0,0,0-.86.28l-.57.29c-.47.19-1,.38-1.33.57h-.09a23.86,23.86,0,1,0,13.77-2.47Zm0,0h-.09a11,11,0,0,0-1.81-.1,2.74,2.74,0,0,0-.85-.09,2.8,2.8,0,0,0-.86.09,18.94,18.94,0,0,0-7.31,1.43,1.54,1.54,0,0,0-.86.28l-.57.29c-.47.19-1,.38-1.33.57h-.09a23.86,23.86,0,1,0,13.77-2.47Z"/>
  <path class="cls-11" d="M732.44,891a.1.1,0,0,1-.1-.1,16.29,16.29,0,0,0-.28,11.21,7,7,0,0,1,.28.76,42.79,42.79,0,0,0,.38-6.08C732.72,894.9,732.63,892.91,732.44,891Zm-1.62-1.14c-3.61-2.38-8-5.51-12.82-9a17.54,17.54,0,0,0,.76,6.75,23.87,23.87,0,0,0,3.23,6.46c-.67.19-1.33.38-1.9.57a23.53,23.53,0,0,1-3-6.08,18.52,18.52,0,0,1-.85-8.84c-1.43-1.05-2.95-2.09-4.47-3.14s-3.23-2.09-4.85-3.13a19.22,19.22,0,0,0-2.66-1.71,7.38,7.38,0,0,0-1.9-1.14,25.31,25.31,0,0,0,1.43,2.66,10.28,10.28,0,0,0,1.42,2.09.92.92,0,0,1-.09,1.33,1.49,1.49,0,0,1-.67.09c-.28,0-.57,0-.66-.28a23,23,0,0,1-2.76-4.28,17.59,17.59,0,0,1-1-3.13c-2-1.24-4.09-2.38-6.18-3.52A52.27,52.27,0,1,1,599.7,896.8a51,51,0,0,1,8.46-28.41c-.1-.09-.1-.09-.1-.19-.38-.47-.57-1-.86-1.33q-3.71,2-7.12,4a18.8,18.8,0,0,0-1.9,1L598,872a21.73,21.73,0,0,0-2,1.24c-.38.28-.85.47-1.23.76a8.2,8.2,0,0,0,.66,1.23,16.34,16.34,0,0,1-1.61,1,7.54,7.54,0,0,1-.67-1.24c-.85.48-1.71,1.05-2.56,1.62a14.69,14.69,0,0,1-1.62,1c-3.23,2.28-6.27,4.38-9,6.37-.57.38-1.14.86-1.61,1.14-2.47,1.9-4.75,3.52-6.65,4.94a50.16,50.16,0,0,0-.48,6.65c0,34.11,36.21,61.76,80.77,61.76,40.38,0,73.92-22.7,79.81-52.35a18.43,18.43,0,0,1-1.33-3.23A17.74,17.74,0,0,1,730.82,889.87Z"/>
  <path class="cls-10" d="M691.49,862.6c-.57-.67-1.14-1.24-1.71-1.9a47.06,47.06,0,0,0-5.14-4.57,8.13,8.13,0,0,0-1.8-1.33,7.71,7.71,0,0,0-1-.76,12.79,12.79,0,0,0-1.81-1.33,51.09,51.09,0,0,0-7.5-4,14.47,14.47,0,0,1-1.9-.76,51.07,51.07,0,0,0-7.41-2.18c-.1,0-.29-.1-.38-.1l-1.43-.28h-.29c-1-.19-2.18-.38-3.23-.48-.09,0-.09-.09-.19,0a17.79,17.79,0,0,0-3.8-.28h-.47a7.82,7.82,0,0,0-1.52-.1h-.29a7.77,7.77,0,0,0-1.52.1,61.46,61.46,0,0,0-6.17.57.37.37,0,0,0-.29.09,4,4,0,0,0-1.52.29H642a40.3,40.3,0,0,0-7.51,2c-.18.1-.37.1-.57.19a5,5,0,0,0-1.23.48,1.89,1.89,0,0,0-.57.38,3.16,3.16,0,0,0-1.33.47,24.57,24.57,0,0,0-2.85,1.33h-.1a15,15,0,0,0-2.09,1.24,6,6,0,0,0-1.33.76c-.09.09-.19.09-.28.19a6.41,6.41,0,0,0-1.33,1,40.84,40.84,0,0,0-5.61,4.27c-.57.48-1,1-1.52,1.43a38.57,38.57,0,0,0-5.51,6.27c1.43-.76,3-1.52,4.47-2.18.76-.29,1.52-.67,2.28-1H617l.1-.1c.57-.19,1-.47,1.71-.66.09-.1.28-.1.38-.19,1.9-.76,3.8-1.43,5.89-2.09h.09c.57-.19,1.05-.38,1.62-.57.09,0,.19-.1.28-.1.57-.19,1.24-.38,1.9-.57l2-.57c.76-.19,1.52-.38,2.37-.57.67-.19,1.24-.29,1.91-.47.09,0,.28-.1.38-.1.38-.1.76-.19,1.23-.29.1,0,.29-.09.38-.09,2.19-.38,4.47-.86,6.75-1.14a5.11,5.11,0,0,1,1.23-.1,2.23,2.23,0,0,1,.76-.09c.48-.1.86-.1,1.24-.19s.95-.1,1.33-.1a22.62,22.62,0,0,1,2.47-.19,16.24,16.24,0,0,1,2.09-.09h.38a9.82,9.82,0,0,1,1.71-.1h1.52a44.11,44.11,0,0,1,6,.38h.09a16.67,16.67,0,0,1,2.09.38h.19a16.67,16.67,0,0,1,2.09.38c1,.1,2,.38,3,.57s2.18.57,3.23,1c.57.1.95.29,1.42.39h.1a6.2,6.2,0,0,1,1.23.47,36.7,36.7,0,0,1,5.32,2.09,11.1,11.1,0,0,1,1.62.67h.09a4.85,4.85,0,0,1,1,.47c.28.1.47.19.76.29.09,0,.19.09.28.09.86.38,1.72.86,2.57,1.24h.1a5.19,5.19,0,0,1,1.61.85,13.11,13.11,0,0,1,1.62.76c.09.1.28.1.38.19.76.38,1.42.86,2.18,1.24h.1C693.1,864.5,692.25,863.55,691.49,862.6Zm-36.78,10.64h-.09a11,11,0,0,0-1.81-.1,2.74,2.74,0,0,0-.85-.09,2.8,2.8,0,0,0-.86.09,18.94,18.94,0,0,0-7.31,1.43,1.54,1.54,0,0,0-.86.28l-.57.29c-.47.19-1,.38-1.33.57h-.09a23.86,23.86,0,1,0,13.77-2.47Z"/>
  <path class="cls-10" d="M693.86,865.54l-.09-.09h-.1c-.76-.38-1.42-.86-2.18-1.24-.1-.09-.29-.09-.38-.19a13.11,13.11,0,0,0-1.62-.76,5.19,5.19,0,0,0-1.61-.85h-.1c-.85-.38-1.71-.86-2.57-1.24a3.16,3.16,0,0,0,.2,1c.18.48.28,1,.47,1.43a24.33,24.33,0,0,0,2.76,5c-.67.19-1.34.38-1.91.57a25.17,25.17,0,0,1-2.56-5,21,21,0,0,1-2.76-4.47,36.7,36.7,0,0,0-5.32-2.09,2.54,2.54,0,0,0,.38.67,1,1,0,0,1-.19,1.33,1.42,1.42,0,0,1-.57.19,1.18,1.18,0,0,1-.76-.38c-.57-1-1.14-1.81-1.61-2.67-1.05-.38-2.19-.66-3.23-1s-2-.47-3-.57a16.67,16.67,0,0,0-2.09-.38h-.19a24.41,24.41,0,0,0,2.38,4.28c-.67.19-1.33.38-1.9.57a20.25,20.25,0,0,1-2.57-5.23h-.09a44.11,44.11,0,0,0-6-.38h-1.52a9.82,9.82,0,0,0-1.71.1h-.38a16.24,16.24,0,0,0-2.09.09,22.62,22.62,0,0,0-2.47.19c-.38,0-.86.1-1.33.1a3.6,3.6,0,0,0,.47.85c-.66.19-1.33.29-1.9.48a3,3,0,0,1-.57-1.05,5.11,5.11,0,0,0-1.23.1c-2.28.28-4.56.76-6.75,1.14-.09,0-.28.09-.38.09-.47.1-.85.19-1.23.29-.1,0-.29.1-.38.1-.67.18-1.24.28-1.91.47-.85.19-1.61.38-2.37.57l-2,.57c-.66.19-1.33.38-1.9.57-.09,0-.19.1-.28.1a20.25,20.25,0,0,1,1.23,1.71c-.66.28-1.33.38-1.9.57a7.7,7.7,0,0,1-1-1.71h-.09c-2.09.66-4,1.33-5.89,2.09-.1.09-.29.09-.38.19-.67.19-1.14.47-1.71.66l-.1.1h-.09c-.76.28-1.52.66-2.28,1-1.52.66-3,1.42-4.47,2.18-.28.38-1.9,2.76-2,2.85a51,51,0,0,0-8.46,28.41,52.26,52.26,0,1,0,94.16-31.26Zm-41.9,55a23.79,23.79,0,0,1-11-44.85H641c.38-.19.86-.38,1.33-.57l.57-.29a1.54,1.54,0,0,1,.86-.28,18.94,18.94,0,0,1,7.31-1.43,2.8,2.8,0,0,1,.86-.09,2.74,2.74,0,0,1,.85.09,11,11,0,0,1,1.81.1h.09A23.74,23.74,0,0,1,652,920.56Z"/>
  <path d="M675.71,896.8a23.76,23.76,0,1,1-34.77-21.09H641c.38-.19.86-.38,1.33-.57l.57-.29a1.54,1.54,0,0,1,.86-.28,18.94,18.94,0,0,1,7.31-1.43,2.8,2.8,0,0,1,.86-.09,2.74,2.74,0,0,1,.85.09,11,11,0,0,1,1.81.1h.09A23.74,23.74,0,0,1,675.71,896.8Z"/>
  <path class="cls-10" d="M676.28,859.56a1.42,1.42,0,0,1-.57.19,1.18,1.18,0,0,1-.76-.38c-.57-1-1.14-1.81-1.61-2.67.57.1.95.29,1.42.39h.1a6.2,6.2,0,0,1,1.23.47,2.54,2.54,0,0,0,.38.67A1,1,0,0,1,676.28,859.56Z"/>
  <path class="cls-4" d="M742.23,892.05c0,4.09-3.62,2.85-9.79-1a.1.1,0,0,1-.1-.1c-.47-.28-1-.66-1.52-1-3.61-2.38-8-5.51-12.82-9l-1.71-1.14c-1.43-1.05-2.95-2.09-4.47-3.14s-3.23-2.09-4.85-3.13a19.22,19.22,0,0,0-2.66-1.71,7.38,7.38,0,0,0-1.9-1.14c-.19-.1-.28-.19-.47-.29-.57-.38-1.24-.76-1.9-1.23-2-1.24-4.09-2.38-6.18-3.52l-.09-.09h-.1c-.76-.38-1.42-.86-2.18-1.24-.1-.09-.29-.09-.38-.19a13.11,13.11,0,0,0-1.62-.76,5.19,5.19,0,0,0-1.61-.85h-.1c-.85-.38-1.71-.86-2.57-1.24-.09,0-.19-.09-.28-.09-.29-.1-.48-.19-.76-.29a4.85,4.85,0,0,0-1-.47H683a11.1,11.1,0,0,0-1.62-.67,36.7,36.7,0,0,0-5.32-2.09,6.2,6.2,0,0,0-1.23-.47h-.1c-.47-.1-.85-.29-1.42-.39-1.05-.38-2.19-.66-3.23-1s-2-.47-3-.57a16.67,16.67,0,0,0-2.09-.38h-.19a16.67,16.67,0,0,0-2.09-.38h-.09a44.11,44.11,0,0,0-6-.38h-1.52a9.82,9.82,0,0,0-1.71.1h-.38a16.24,16.24,0,0,0-2.09.09,22.62,22.62,0,0,0-2.47.19c-.38,0-.86.1-1.33.1s-.76.09-1.24.19a2.23,2.23,0,0,0-.76.09,5.11,5.11,0,0,0-1.23.1c-2.28.28-4.56.76-6.75,1.14-.09,0-.28.09-.38.09-.47.1-.85.19-1.23.29-.1,0-.29.1-.38.1-.67.18-1.24.28-1.91.47-.85.19-1.61.38-2.37.57l-2,.57c-.66.19-1.33.38-1.9.57-.09,0-.19.1-.28.1-.57.19-1,.38-1.62.57h-.09c-2.09.66-4,1.33-5.89,2.09-.1.09-.29.09-.38.19-.67.19-1.14.47-1.71.66l-.1.1h-.09c-.76.28-1.52.66-2.28,1-1.52.66-3,1.42-4.47,2.18-.38.1-7.79,4-10.07,5.32a18.8,18.8,0,0,0-1.9,1L598,872a21.73,21.73,0,0,0-2,1.24c-.38.28-.85.47-1.23.76a14.69,14.69,0,0,0-1.62,1c-.85.48-1.71,1.05-2.56,1.62a14.69,14.69,0,0,1-1.62,1c-3.23,2.28-6.27,4.38-9,6.37-.57.38-1.14.86-1.61,1.14-2.47,1.9-4.75,3.52-6.65,4.94-6.46,4.56-10,6.27-10,1.9,0-23.66,33.45-52.92,70-63,1-.28,2.18-.57,3.23-.76a90.69,90.69,0,0,1,21.76-2.75C701.27,825.54,742.23,863,742.23,892.05Z"/>
  <path class="cls-11" d="M705.17,876.66a1.49,1.49,0,0,1-.67.09c-.28,0-.57,0-.66-.28a23,23,0,0,1-2.76-4.28c.95.29,1.81.67,2.76,1a10.28,10.28,0,0,0,1.42,2.09A.92.92,0,0,1,705.17,876.66Z"/>
  <path class="cls-11" d="M703.84,873.24c-1-.38-1.81-.76-2.76-1a17.59,17.59,0,0,1-1-3.13c.66.47,1.33.85,1.9,1.23.19.1.28.19.47.29A25.31,25.31,0,0,0,703.84,873.24Z"/>
  <path class="cls-10" d="M667.26,859.08c-.67.19-1.33.38-1.9.57a20.25,20.25,0,0,1-2.57-5.23,16.67,16.67,0,0,1,2.09.38A24.41,24.41,0,0,0,667.26,859.08Z"/>
  <path class="cls-10" d="M688.64,868.58c-.67.19-1.34.38-1.91.57a25.17,25.17,0,0,1-2.56-5,.64.64,0,0,0,.66.38,1.43,1.43,0,0,0,.67-.19,1.18,1.18,0,0,0,.38-.76A24.33,24.33,0,0,0,688.64,868.58Z"/>
  <path class="cls-10" d="M685.88,863.55a1.18,1.18,0,0,1-.38.76,1.43,1.43,0,0,1-.67.19.64.64,0,0,1-.66-.38,4.44,4.44,0,0,1-.38-1,16.6,16.6,0,0,1-.67-2.75,4.85,4.85,0,0,1,1,.47,14.26,14.26,0,0,0,1.42,2.19A.83.83,0,0,1,685.88,863.55Z"/>
  <path class="cls-10" d="M685.88,863.55a.83.83,0,0,0-.29-.57,14.26,14.26,0,0,1-1.42-2.19c.28.1.47.19.76.29.09,0,.19.09.28.09a3.16,3.16,0,0,0,.2,1C685.59,862.6,685.69,863.07,685.88,863.55Z"/>
  <path class="cls-10" d="M684.17,864.12a21,21,0,0,1-2.76-4.47,11.1,11.1,0,0,1,1.62.67h.09a16.6,16.6,0,0,0,.67,2.75A4.44,4.44,0,0,0,684.17,864.12Z"/>
  <path class="cls-11" d="M722,894.05c-.67.19-1.33.38-1.9.57a23.53,23.53,0,0,1-3-6.08,18.52,18.52,0,0,1-.85-8.84l1.71,1.14a17.54,17.54,0,0,0,.76,6.75A23.87,23.87,0,0,0,722,894.05Z"/>
  <path class="cls-11" d="M732.06,902.12a7,7,0,0,1,.28.76v.1c-.19,1-.38,2.18-.57,3.23a18.43,18.43,0,0,1-1.33-3.23,17.74,17.74,0,0,1,.38-13.11c.57.38,1,.76,1.52,1A16.29,16.29,0,0,0,732.06,902.12Z"/>
  <path class="cls-4" d="M735.29,908.49a19.53,19.53,0,0,1-1.9.57,14.24,14.24,0,0,1-1.62-2.85c.19-1.05.38-2.19.57-3.23A22.46,22.46,0,0,0,735.29,908.49Z"/>
  <path class="cls-9" d="M103.81,844.54S129.06,601.23,244.17,495.6c123.66-113.47,380.7-110.4,380.7-110.4S727.78,589.72,456.45,744C327.9,817.13,103.81,844.54,103.81,844.54Z"/>
  <path class="cls-12" d="M503.55,1154.77c-44.42,0-93.42-28.34-67.12-68.81,67.73-104.23,22.7-226.31,67.12-226.31s1.47,115.22,69.57,231.78C597.64,1133.41,548,1154.77,503.55,1154.77Z"/>
  <path class="cls-9" d="M598.74,808.46c-13.18-31.7,47.83-20.77,114.31,2.09,38.83,13.35,78.39,42.52,77.54,92.67-.35,20.3-26.08-1.48-33.71-18.67C742.74,852.72,609.6,834.57,598.74,808.46Z"/>
  <path class="cls-9" d="M386.33,809.61c12.19-32.09-48.45-19.26-114.19,5.67-38.39,14.55-77,44.94-74.61,95,1,20.29,26-2.29,33.11-19.71C243.78,858.35,376.29,836.05,386.33,809.61Z"/>
  <polygon class="cls-11" points="1502.63 219.62 1575.78 296.47 1473.96 308.04 1502.63 219.62"/>
  <g>
    <path class="cls-3" d="M68.62,359.28c-.4-.06-1.24-.14-2.51-.26a14.14,14.14,0,0,1-3.59-.79,5.77,5.77,0,0,1-2.63-1.79c-.63-.78-.51-1.87.37-3.27a8.09,8.09,0,0,1,1.81-2.05c.89-.78,1.44-1.12,1.66-1l49.15,21.31q-4.26-6.45-8.15-13.57A114.65,114.65,0,0,1,98,343.12a88,88,0,0,1-4.26-15.75,61.13,61.13,0,0,1-.6-16.58q.16-2.61.64-6.67c.31-2.7.66-5.35,1-7.94s.68-4.82,1-6.71a19.18,19.18,0,0,1,.51-2.92l5.15-4.54c1.14.24,1.69,1.09,1.65,2.58a19.32,19.32,0,0,1-.84,4.84,50.5,50.5,0,0,1-1.74,4.92,19.33,19.33,0,0,0-1,2.84,85.43,85.43,0,0,0,.17,25.38,89.33,89.33,0,0,0,6.58,21.68A112.86,112.86,0,0,0,117.71,364q6.87,9.51,15,19.55l-.39,1a14.17,14.17,0,0,0-.66,1.35c-.21.49-.43.94-.65,1.35s-.39.7-.47.87a2.56,2.56,0,0,1-.79,1c-.43.38-.73.54-.89.48Z"/>
    <path class="cls-3" d="M105.88,287.29a4.14,4.14,0,0,1-.24-5.3,8.84,8.84,0,0,1,5.09-3.56l3.76,4.89a7.75,7.75,0,0,1-1,1c-.5.43-1,.88-1.64,1.33s-1.16.87-1.71,1.25a6.71,6.71,0,0,1-1.2.7,3.38,3.38,0,0,1-1.67.11C106.49,287.61,106,287.48,105.88,287.29Zm56.59,66a9.69,9.69,0,0,1-1.62-1c-.75-.54-1.57-1.16-2.44-1.86s-1.68-1.4-2.43-2.09a14.35,14.35,0,0,1-1.56-1.59L120,302a1.65,1.65,0,0,1,0-2,8.31,8.31,0,0,1,1.83-2.07,22.86,22.86,0,0,1,2.23-1.64l1.17-.75L163.29,345a4.12,4.12,0,0,0,3.13,1.69,10.93,10.93,0,0,0,4-.48,14.64,14.64,0,0,0,3.81-1.76,11.22,11.22,0,0,0,2.72-2.31q3,.81,2.32,3.13a9.66,9.66,0,0,1-3.3,4.59,18.83,18.83,0,0,1-6.46,3.5A9.72,9.72,0,0,1,162.47,353.29Z"/>
    <path class="cls-3" d="M180.75,336.46a36,36,0,0,1-2.25-5c-.88-2.27-1.87-4.64-3-7.11a61.09,61.09,0,0,0-3.76-7.08,16.41,16.41,0,0,0-4.5-5,6,6,0,0,0-5.18-.88c-1.84.52-3.79,2.29-5.87,5.32-1.86.72-3.14.81-3.84.25a3.3,3.3,0,0,1-1-2.84,23.25,23.25,0,0,1,.76-4.83c.47-1.87.93-3.79,1.4-5.76s.8-3.83,1-5.59a7.45,7.45,0,0,0-.49-4.32c-.43-.46-1.32-1.48-2.69-3.08s-3-3.43-4.83-5.49-3.79-4.28-5.8-6.66-4-4.61-5.84-6.71-3.48-3.92-4.83-5.49-2.25-2.61-2.72-3.13a11.57,11.57,0,0,1-1.56-2.38,4.43,4.43,0,0,1-.48-2.43,3.81,3.81,0,0,1,1.1-2.24,7.63,7.63,0,0,1,3.22-1.73q3.06,3.27,6.77,7.48t7.73,8.64q4,4.42,8.2,8.74t8.17,7.78a17.92,17.92,0,0,0,.79-4.43q.24-2.91.42-6.36t.54-7a32.43,32.43,0,0,1,1.13-6.15,8.67,8.67,0,0,1,2.14-3.87c.9-.86,2.08-.94,3.52-.25a2.38,2.38,0,0,1,.67.74,3.27,3.27,0,0,1,.52,1,25.11,25.11,0,0,1,.38,10.19q-.86,5.38-2,10.66a60.86,60.86,0,0,0-1.27,10.12,14.4,14.4,0,0,0,2.22,8.57c1,.06,2.51.24,4.54.53l15.2,1.8c2.86.28,5.59.59,8.17.92s4.89.65,6.91.95l4.48.44,3.35.44a22.11,22.11,0,0,1,4.45,1.1,7.17,7.17,0,0,1,3.24,2.14q1.1,1.36-.31,3.74a3.1,3.1,0,0,1-.85.73,3.71,3.71,0,0,1-1,.55Q208,311.15,197,309.49a106.48,106.48,0,0,0-21.67-1.07l1.52,2.9q1,2,2.24,4.53c.81,1.7,1.66,3.49,2.58,5.35s1.75,3.66,2.52,5.39,1.46,3.28,2.07,4.64,1.06,2.38,1.31,3a9.08,9.08,0,0,1,.42,1.9,13.09,13.09,0,0,1,.11,2.82,6.86,6.86,0,0,1-.72,2.68,2.74,2.74,0,0,1-2,1.48c-.17-.26-.49-.67-.94-1.26s-.94-1.23-1.44-2-1-1.43-1.37-2.09S180.93,336.72,180.75,336.46Z"/>
    <path class="cls-3" d="M248.11,293.2a34.31,34.31,0,0,1-8.75-6.14,66.07,66.07,0,0,1-7.51-8.47,88,88,0,0,1-6.18-9.45q-2.74-4.86-4.84-9a8,8,0,0,0-3.54,2.32,49.68,49.68,0,0,0-3.44,4.08q-1.72,2.28-3.48,4.77a28.83,28.83,0,0,1-3.52,4.2,10.64,10.64,0,0,1-3.65,2.38,4.49,4.49,0,0,1-4-.52c-1.35-.74-1.81-1.67-1.4-2.81a9.94,9.94,0,0,1,2.63-3.61,43.17,43.17,0,0,1,5-3.95q2.94-2,5.44-4a30.11,30.11,0,0,0,4.07-3.77c1-1.18,1.35-2.24.92-3.15l-18.23-40.62a2.11,2.11,0,0,1,.27-2,5.06,5.06,0,0,1,1.77-1.7,4.69,4.69,0,0,1,2.2-.67,1.76,1.76,0,0,1,1.7,1L222.75,245a8.61,8.61,0,0,0,3.06-1.84c.85-.81,1.67-1.67,2.47-2.58a27.53,27.53,0,0,1,2.45-2.49,8.75,8.75,0,0,1,3-1.76,1.77,1.77,0,0,1,1,2.19,9.14,9.14,0,0,1-1,2.52l-1.42,2.3c-.64,1-1.31,2.08-2,3.25s-1.39,2.26-2.07,3.28-1.17,1.71-1.47,2.06c.47,1,1.35,2.64,2.66,5s2.71,4.8,4.23,7.42,3,5.06,4.34,7.35,2.38,3.88,3,4.78a35.53,35.53,0,0,0,7.07,7.45,17.25,17.25,0,0,0,7.9,3.61,11.68,11.68,0,0,0,7.85-1.6q3.82-2.22,7.15-8.32a5.94,5.94,0,0,1,2.28,4.19,7.57,7.57,0,0,1-1.3,4.59,16,16,0,0,1-4.13,4.2,21.14,21.14,0,0,1-5.94,3.05,22.43,22.43,0,0,1-6.91,1.12A14.82,14.82,0,0,1,248.11,293.2Z"/>
    <path class="cls-3" d="M271.2,283.17a19.35,19.35,0,0,1-7.78-6.86,46.64,46.64,0,0,1-4.9-10,95.74,95.74,0,0,1-3.28-11.47q-1.31-6-2.79-11.38a65.92,65.92,0,0,0-3.49-9.81,15.68,15.68,0,0,0-5.33-6.64,3.05,3.05,0,0,0-3.34-.36,22.92,22.92,0,0,0-3.23,2.1,16.46,16.46,0,0,1-3.55,2.07,4.89,4.89,0,0,1-4.23-.39,3.27,3.27,0,0,1,.35-1.53,4.2,4.2,0,0,1,.74-1.33q10-6.6,18.79-6.83a31.23,31.23,0,0,1,16,3.66,40.27,40.27,0,0,1,12.61,10.84,64.38,64.38,0,0,1,8.65,14.78,59.5,59.5,0,0,1,4.22,15.47,30.2,30.2,0,0,1-.74,12.86,10.39,10.39,0,0,1-6.29,7Q279,287.1,271.2,283.17Zm4.37-6.68a2.9,2.9,0,0,0,1.12.49c.56.15,1.16.33,1.81.53a17.32,17.32,0,0,0,1.78.49,5.1,5.1,0,0,0,1.11.16A16.64,16.64,0,0,0,285,269a22.87,22.87,0,0,0-1.55-9.6,41,41,0,0,0-5.22-9.42,67.6,67.6,0,0,0-7.34-8.5,63.65,63.65,0,0,0-8.1-6.76,50.67,50.67,0,0,0-7.38-4.4c.36.94.89,2.41,1.57,4.4s1.49,4.23,2.42,6.71,1.87,5.12,2.86,7.92,1.92,5.46,2.82,8,1.7,4.8,2.38,6.79,1.21,3.47,1.58,4.41a10.37,10.37,0,0,0,1.21,2.32,21,21,0,0,0,1.79,2.29c.64.72,1.28,1.37,1.92,2A13.39,13.39,0,0,0,275.57,276.49Z"/>
    <path class="cls-3" d="M305.32,272.15q-.51,4.34-1.84,4.94c-.88.4-2-.08-3.22-1.45A32.82,32.82,0,0,1,296,269.4q-2.34-4.18-4.72-9.5c-1.57-3.54-3.13-7.3-4.65-11.28s-2.92-7.84-4.2-11.59-2.38-7.2-3.29-10.39-1.54-5.73-1.89-7.63-.35-3,0-3.33,1.15.5,2.41,2.41a94.37,94.37,0,0,1,6.45-8.32,68,68,0,0,1,7.78-7.68,47.68,47.68,0,0,1,9-6A31.12,31.12,0,0,1,312.8,193a6.59,6.59,0,0,1,1.43,3.18,3.18,3.18,0,0,1-1.36,3.31,36.41,36.41,0,0,0-5.27,1.77,59.81,59.81,0,0,0-6.55,3.16,53.08,53.08,0,0,0-6.53,4.28,32.35,32.35,0,0,0-5.39,5.14,16.13,16.13,0,0,0-3.12,5.65,8.72,8.72,0,0,0,.34,5.94Z"/>
    <path class="cls-3" d="M416.68,236.63a30.83,30.83,0,0,1-10.23-7.31,43.86,43.86,0,0,1-6.83-10.06,12.39,12.39,0,0,1-2.11,1.68,23.89,23.89,0,0,1-3,1.71,19.86,19.86,0,0,1-3.07,1.2,3.67,3.67,0,0,1-2.33.12q-.79-.33-.66-1.47a10.23,10.23,0,0,1,1.82-3.69,13.8,13.8,0,0,1,1.36-1.78l2.48-3c.88-1.06,1.68-2.07,2.41-3a18.72,18.72,0,0,0,1.28-1.82,18.07,18.07,0,0,0,.63-6.61c-.19-2.33-.49-4.73-.89-7.22s-.69-5-.86-7.46a17.54,17.54,0,0,1,3.35-12.35,54,54,0,0,1,4.79-6.22,65,65,0,0,1,5.69-5.69,18.82,18.82,0,0,1,5.28-3.48c1.55-.59,2.78-.45,3.69.4s1.23,2.78,1,5.74a39.6,39.6,0,0,1-2.6,10.56q-2.08,5.26-4.37,10.46t-4.26,10.26a33.66,33.66,0,0,0-2.31,10,24.8,24.8,0,0,0,.44,6.23,29,29,0,0,0,2.19,7,19.51,19.51,0,0,0,4.15,5.93,10.91,10.91,0,0,0,6.44,3,17.53,17.53,0,0,0,8.44-.8,30,30,0,0,0,7.66-4.09,41.78,41.78,0,0,0,6.73-6.22,87.36,87.36,0,0,0,5.68-7.21c1.71-2.44,3.22-4.77,4.52-7s2.38-4.15,3.26-5.72l2.58,1.66c.69.35.55,1.72-.41,4.09a48.88,48.88,0,0,1-4.55,8.31,94.78,94.78,0,0,1-7.54,9.91,63.89,63.89,0,0,1-9.46,9,33.14,33.14,0,0,1-10.28,5.5A13.61,13.61,0,0,1,416.68,236.63Zm-13.32-49a12.64,12.64,0,0,0,.16,2c.13,1,.29,2,.48,3s.39,2.06.6,3a12,12,0,0,0,.54,1.91,143.73,143.73,0,0,0,5.4-14.78,81.17,81.17,0,0,0,3.16-15.33,16.94,16.94,0,0,0-4.89,3.77,20.22,20.22,0,0,0-3.32,5.08,22.83,22.83,0,0,0-1.73,5.68A28.78,28.78,0,0,0,403.36,187.66Z"/>
    <path class="cls-3" d="M478,228.72a8.85,8.85,0,0,1-.67-1.3c-.25-.57-.51-1.18-.76-1.82s-.51-1.23-.76-1.76a3.89,3.89,0,0,1-.4-1.15c-.13-.84-.32-2.15-.55-3.92s-.5-3.77-.8-6-.58-4.6-.86-7.11-.56-4.87-.86-7.11-.54-4.24-.73-6-.31-3.09-.35-3.94a6.21,6.21,0,0,0-2.38.13l-3.58,1q-2.54.72-5.4,1.58l-5.47,1.47-3.51,1L444.85,189l26-8.43,2-44.58a13.81,13.81,0,0,1,2.62-7.48,18.74,18.74,0,0,1,5.67-5.09,19.65,19.65,0,0,1,6.93-2.48,14,14,0,0,1,6.3.29,6.24,6.24,0,0,1,3.88,3.15q1.18,2.32-.32,6.13c-1.27.93-2.29,1.34-3,1.22a2.58,2.58,0,0,1-1.77-1,8.23,8.23,0,0,1-1.11-2,4.87,4.87,0,0,0-1.16-1.8q-2.62-2.06-4.49-1.2a7,7,0,0,0-3.16,3.78,33.38,33.38,0,0,0-2.11,7.28,86.64,86.64,0,0,0-1.19,9.32q-.39,5-.5,10c-.08,3.38-.1,6.46-.08,9.26s.09,5.15.2,7.08l.2,3.49a11.78,11.78,0,0,0,5.86-.45,40.16,40.16,0,0,0,6.46-2.69q3.27-1.69,6.48-3.56a41.7,41.7,0,0,1,6-3,11.45,11.45,0,0,1,5.18-.87,5.23,5.23,0,0,1,3.92,2.69l-4.13,4.19-27,11.63-2.26,2.11a18.68,18.68,0,0,0,0,3.26c.06,2,.18,4.41.33,7.2s.34,5.62.55,8.52.4,5.27.59,7.13a20.19,20.19,0,0,0,1.21,3.77,47,47,0,0,1,1.75,5.37,16.31,16.31,0,0,1,.57,5.38,4.27,4.27,0,0,1-2.51,3.69,2.78,2.78,0,0,1-2.71-.08A6.8,6.8,0,0,1,478,228.72Z"/>
    <path class="cls-3" d="M546,222.77a34.37,34.37,0,0,1-3.94-9.94,66.29,66.29,0,0,1-1.63-11.21,86.74,86.74,0,0,1,0-11.29c.25-3.71.54-7.1.89-10.19a8.05,8.05,0,0,0-4.23,0,49.26,49.26,0,0,0-5.11,1.52q-2.7,1-5.53,2.08a28.73,28.73,0,0,1-5.25,1.57,10.63,10.63,0,0,1-4.36,0,4.51,4.51,0,0,1-3-2.62c-.72-1.35-.59-2.39.37-3.12a10,10,0,0,1,4.19-1.57,43,43,0,0,1,6.31-.58c2.39-.06,4.64-.19,6.77-.38a30.4,30.4,0,0,0,5.47-.92c1.52-.41,2.35-1.12,2.5-2.13L546.48,130a2.1,2.1,0,0,1,1.35-1.55,5,5,0,0,1,2.4-.45,4.69,4.69,0,0,1,2.21.65,1.77,1.77,0,0,1,.9,1.73l-2.13,38.18a8.48,8.48,0,0,0,3.57.14c1.15-.21,2.31-.47,3.48-.8a29.86,29.86,0,0,1,3.41-.74,8.87,8.87,0,0,1,3.49.2,1.78,1.78,0,0,1-.39,2.36,9.12,9.12,0,0,1-2.2,1.57l-2.45,1.14c-1.08.48-2.24,1-3.46,1.61s-2.4,1.13-3.53,1.61-1.92.79-2.36.92c-.15,1.07-.32,3-.51,5.61s-.38,5.51-.54,8.53-.31,5.86-.41,8.53-.15,4.55-.12,5.64A35.17,35.17,0,0,0,551,215a17.2,17.2,0,0,0,4.61,7.35,11.72,11.72,0,0,0,7.44,3q4.41.24,10.55-3a6,6,0,0,1-.4,4.75,7.52,7.52,0,0,1-3.61,3.11,15.76,15.76,0,0,1-5.75,1.25,21.49,21.49,0,0,1-6.64-.71,22.22,22.22,0,0,1-6.39-2.86A14.94,14.94,0,0,1,546,222.77Z"/>
    <path class="cls-3" d="M583.48,233.15a30.82,30.82,0,0,1-7.2-10.31,43.82,43.82,0,0,1-3.09-11.75,13.33,13.33,0,0,1-2.55.88,24.76,24.76,0,0,1-3.38.62,20.53,20.53,0,0,1-3.3.11,3.68,3.68,0,0,1-2.23-.66,1.25,1.25,0,0,1-.14-1.62,10.36,10.36,0,0,1,2.95-2.87,13.68,13.68,0,0,1,1.87-1.22l3.34-2c1.18-.7,2.27-1.39,3.28-2.05a19.15,19.15,0,0,0,1.81-1.29,18,18,0,0,0,2.8-6q.89-3.39,1.56-7.1t1.67-7.32A17.41,17.41,0,0,1,588.15,170a54.24,54.24,0,0,1,6.59-4.28,64.77,64.77,0,0,1,7.26-3.46,18.43,18.43,0,0,1,6.13-1.52c1.66,0,2.78.49,3.35,1.61s.24,3-1,5.72a39.32,39.32,0,0,1-6,9.09q-3.71,4.27-7.6,8.41t-7.44,8.26a33.72,33.72,0,0,0-5.5,8.64,25,25,0,0,0-1.65,6,28.88,28.88,0,0,0-.27,7.32,19.42,19.42,0,0,0,1.94,7,10.83,10.83,0,0,0,5.06,5,17.46,17.46,0,0,0,8.23,2.06,29.66,29.66,0,0,0,8.57-1.3,42.07,42.07,0,0,0,8.42-3.63A85.59,85.59,0,0,0,622,220c2.43-1.72,4.62-3.42,6.59-5.1s3.64-3.11,5-4.3l1.88,2.42q.79.84-1.75,3.72a49.69,49.69,0,0,1-7.06,6.32,94.19,94.19,0,0,1-10.42,6.83,63.62,63.62,0,0,1-11.91,5.35A33.47,33.47,0,0,1,592.81,237,13.64,13.64,0,0,1,583.48,233.15Zm3.76-50.61a13.19,13.19,0,0,0-.53,2c-.2.95-.39,1.95-.56,3s-.32,2.07-.43,3a12.83,12.83,0,0,0-.12,2,141.88,141.88,0,0,0,10-12.14A80.81,80.81,0,0,0,603.7,167a16.63,16.63,0,0,0-5.87,1.92A20.1,20.1,0,0,0,593,172.6a22.58,22.58,0,0,0-3.52,4.78A28.46,28.46,0,0,0,587.24,182.54Z"/>
    <path class="cls-3" d="M627.13,242.18c-2,2.11-3.5,3-4.45,2.84s-1.51-1.25-1.7-3.1a33.24,33.24,0,0,1,.38-7.54q.66-4.75,2-10.42t3.09-11.81q1.77-6.14,3.63-11.78t3.63-10.27c1.19-3.09,2.23-5.5,3.1-7.23s1.54-2.62,2-2.65.62,1.09.46,3.37a92.89,92.89,0,0,1,10.17-2.75,68.19,68.19,0,0,1,10.84-1.44,48.26,48.26,0,0,1,10.76.66,30.76,30.76,0,0,1,9.8,3.46,6.5,6.5,0,0,1-.78,3.4,3.17,3.17,0,0,1-3.08,1.83,35.13,35.13,0,0,0-5.27-1.77,58.73,58.73,0,0,0-7.13-1.43,52.73,52.73,0,0,0-7.79-.52,32.1,32.1,0,0,0-7.4.85,16.17,16.17,0,0,0-5.9,2.63,8.7,8.7,0,0,0-3.3,5Z"/>
    <path class="cls-3" d="M792.25,284.86a10.58,10.58,0,0,0,.06-2.32,8.81,8.81,0,0,0-.35-2.39c-.73-.71-2.08-2-4.07-3.81s-4.07-3.79-6.26-5.89-4.28-4.09-6.24-5.95l-4.16-3.92a14.85,14.85,0,0,1-1.19-1.45l-2-2.56c-.71-.92-1.38-1.76-2-2.5a5.88,5.88,0,0,0-1.27-1.29q-2.23-1.12-5.45.24a45.23,45.23,0,0,0-7,3.89l-8,5.38a51.67,51.67,0,0,1-8.59,4.71,24.11,24.11,0,0,1-8.49,2,11,11,0,0,1-7.69-2.78l1.83-3.63c.86-.34,2.23-.86,4.12-1.56s4-1.52,6.26-2.44,4.72-1.89,7.3-2.89,5-2,7.3-2.89,4.34-1.76,6.14-2.5,3.15-1.31,4-1.72c1.61-.66,2.62-2.22,3-4.66a44.54,44.54,0,0,0,.48-8.29c-.07-3.07-.25-6.2-.51-9.37a38.62,38.62,0,0,1,0-7.83c.24-2.05.91-3.27,2-3.68s3,.64,5.67,3.13a53,53,0,0,0,.09,11.24,25,25,0,0,0,3.88,11.07,33.17,33.17,0,0,0,10.11-2.32,65.44,65.44,0,0,0,10.49-5.25,103.51,103.51,0,0,0,10.31-7.23q5.06-4,9.6-8.17t8.25-8q3.72-3.85,6.34-6.7a7.2,7.2,0,0,1,3.8-.94,27.13,27.13,0,0,1,4,.35c.24.9-.18,2.6-1.24,5.1s-2.48,5.49-4.24,9-3.78,7.33-6.05,11.53-4.5,8.44-6.73,12.74-4.33,8.53-6.33,12.69-3.61,7.89-4.85,11.22a37.89,37.89,0,0,0-2.25,8.43c-.28,2.29.22,3.75,1.48,4.39l12.37,6.24L813,289.74l-10.25-5.18c-1.41-.71-2.36-.21-2.83,1.5a31.06,31.06,0,0,0-.83,7.07c-.08,3-.1,6.35-.05,10.06a98.63,98.63,0,0,1-.38,10.42,28.38,28.38,0,0,1-1.89,8.29c-1,2.29-2.46,3.49-4.48,3.59a6.94,6.94,0,0,1-2.17-.83,7.24,7.24,0,0,1-2-1.25q.36-2.16.89-7.62t1.22-11.63q.66-6.17,1.21-11.62T792.25,284.86Zm-12.17-26.58c.37.44,1.07,1.25,2.1,2.42s2.17,2.45,3.41,3.81,2.43,2.64,3.61,3.83,2,2.06,2.54,2.59a2.94,2.94,0,0,0,.89.58,3,3,0,0,0,1,.37A68,68,0,0,0,799,261.2q2.78-6.67,5.41-13.8t4.93-13.72q2.29-6.6,3.82-10.51L772.5,247.81c.21.36.67,1.05,1.39,2.07s1.46,2.08,2.23,3.21,1.51,2.17,2.25,3.15A18.25,18.25,0,0,0,780.08,258.28Z"/>
    <path class="cls-3" d="M802,313.92c.61-.81,1.58-2.25,2.91-4.35l8.49-13.33c1.33-2.09,2.23-3.59,2.69-4.48.18-.44.59-1.38,1.24-2.8s1.4-3.11,2.26-5,1.77-4,2.72-6.12,1.84-4.2,2.66-6.15,1.56-3.65,2.21-5.07,1.08-2.39,1.3-2.9a16.26,16.26,0,0,1,1.64-2.95,7.23,7.23,0,0,1,2.23-2.16,3.67,3.67,0,0,1,2.75-.38,7.16,7.16,0,0,1,3.41,2.51q-1.2,2.13-2.7,5.1c-1,2-2,4.08-3,6.3s-1.89,4.44-2.69,6.69a40.87,40.87,0,0,0-1.76,6.45c2.51-1.8,4.81-3.34,6.93-4.61a37.51,37.51,0,0,1,6.45-3.13,43.2,43.2,0,0,1,6.85-1.91,62.54,62.54,0,0,1,8.12-1q5.7-.36,8,1.84a8,8,0,0,1,2.23,6.1,30.7,30.7,0,0,1-1.75,9q-1.7,5.12-4,10.64t-4.34,10.88a52.16,52.16,0,0,0-2.84,9.76,14.06,14.06,0,0,0,.37,7.4c.77,2,2.57,3.22,5.42,3.65q-.67,3.29-2.18,4a3.47,3.47,0,0,1-3.32-.18,10.81,10.81,0,0,1-3.57-3.37,26.18,26.18,0,0,1-3-5.49,23.09,23.09,0,0,1-1.6-6.46,15.47,15.47,0,0,1,.6-6.37,47.65,47.65,0,0,1,2.9-6.28q2.22-4.23,4.49-9.26a70.45,70.45,0,0,0,3.71-10.38,21,21,0,0,0,.57-9.63l-12,1.71a26.8,26.8,0,0,0-3.86,2.5q-3.29,2.33-7.43,5.4t-8.25,6.32q-4.09,3.25-6.39,5.37c-.52.49-1.4,1.47-2.64,2.93s-2.56,3-3.95,4.72-2.64,3.3-3.77,4.83-1.91,2.63-2.32,3.28a3.86,3.86,0,0,1-5.79-3.68Z"/>
    <path class="cls-3" d="M796.4,393.71a12.23,12.23,0,0,1,1-6,22.94,22.94,0,0,1,3.44-5.55,36.14,36.14,0,0,1,4.71-4.71,40.45,40.45,0,0,1,4.82-3.49c.82-.56,2.11-1.38,3.85-2.47s3.74-2.32,6-3.66l7.06-4.26q3.68-2.23,7.07-4.18l6.09-3.45,4-2.27a38.62,38.62,0,0,0,5.2-7.35,68.39,68.39,0,0,0,3.65-7.89q1.55-4,2.78-8.28c.82-2.84,1.67-5.7,2.53-8.6a2.59,2.59,0,0,1,1.61-1.93,3.31,3.31,0,0,1,2.3.07,4.86,4.86,0,0,1,2,1.58,4.35,4.35,0,0,1,.92,2.71,25.85,25.85,0,0,1-1.08,7c-.65,2.15-1.4,4.27-2.25,6.38s-1.7,4.23-2.57,6.37a35.06,35.06,0,0,0-2,6.87l5.81-.09a70.52,70.52,0,0,1,8.61.4,48,48,0,0,1,8.8,1.74,12.64,12.64,0,0,1,6.35,3.93,5.16,5.16,0,0,1,.58,1.48,3,3,0,0,1,.15,1.6,10.47,10.47,0,0,1-4.58.32q-2.86-.31-6.34-1t-7.08-1.52a68.58,68.58,0,0,0-6.8-1.26,23.22,23.22,0,0,0-5.67-.1,4.78,4.78,0,0,0-3.49,1.73l-24.51,34.63a15.83,15.83,0,0,1-3.8,3.43,44.64,44.64,0,0,1-6.27,3.6,41.69,41.69,0,0,1-7.43,2.72,19.56,19.56,0,0,1-7.24.64,9.79,9.79,0,0,1-5.66-2.51C797.53,398.94,796.64,396.73,796.4,393.71Zm17.22-12.44a31.44,31.44,0,0,0-2,2.49q-1.35,1.82-2.84,3.9t-2.76,4a29,29,0,0,0-1.65,2.67,3.24,3.24,0,0,0,.85.75,3.29,3.29,0,0,0,1,.55,8.45,8.45,0,0,0,5.42-1.14,49.34,49.34,0,0,0,6.11-3.72q3-2.12,5.19-4a30.89,30.89,0,0,0,2.44-2.19q.92-1.06,2.94-3.82t4.29-5.94q2.25-3.18,4.17-6c1.29-1.9,2.16-3.25,2.63-4.05a120.18,120.18,0,0,0-14,6.79A43,43,0,0,0,813.62,381.27Zm70.52-83.64a2,2,0,0,1,1.56-2.1,4.8,4.8,0,0,1,3,.38,7.91,7.91,0,0,1,2.84,2.15,4,4,0,0,1,1.09,3.05c-.16,1.13-.69,1.77-1.61,1.92a5.16,5.16,0,0,1-3-.47,8.83,8.83,0,0,1-2.86-2A3.58,3.58,0,0,1,884.14,297.63Z"/>
    <path class="cls-3" d="M868.58,358a22.5,22.5,0,0,1,3.82-9.54,53.88,53.88,0,0,1,6.75-7.71c.73-.8,1.91-1.95,3.52-3.45s3.39-3.15,5.36-5,4.05-3.71,6.28-5.71,4.32-3.9,6.28-5.71,3.74-3.4,5.31-4.78,2.74-2.41,3.49-3.1a63.18,63.18,0,0,1,6.93-5.14,12.39,12.39,0,0,1,5.95-2.07,9,9,0,0,1,5.7,1.93,30.1,30.1,0,0,1,6.21,6.74,3,3,0,0,1,.61,1.58,3.77,3.77,0,0,1,.05,1.44q-.72,1.35-2.07,4.28l-3.08,6.65c-1.16,2.49-2.37,5.09-3.63,7.78L922.44,344q-1.74,3.74-3.09,6.66t-2,4.36q-3.5,7.72-3.17,12a8.86,8.86,0,0,0,2.87,6.43,12.68,12.68,0,0,0,6.54,2.66c2.68.36,5.38.64,8.11.86s5.24.51,7.5.9,3.77,1.31,4.53,2.78a8.63,8.63,0,0,1-3.58,2.66,21,21,0,0,1-4.63,1.33,26.64,26.64,0,0,1-4.9.39c-1.66,0-3.16-.1-4.49-.25q-8.48-1.14-12.53-4a13.87,13.87,0,0,1-5.4-6.71,16.35,16.35,0,0,1-.67-8.17,80.34,80.34,0,0,1,1.81-8.46c.75-2.75,1.35-5.25,1.82-7.49a7.33,7.33,0,0,0-.48-5.31q-1.25,1-4.51,3.12c-2.19,1.44-4.51,3-7,4.58s-4.83,3.12-7,4.53l-4.67,3c-.38.19-1.12.54-2.24,1.05a35.23,35.23,0,0,1-3.9,1.46,33.86,33.86,0,0,1-4.62,1.11,14.21,14.21,0,0,1-4.37.14,4.83,4.83,0,0,1-3.11-1.61C868.5,361.19,868.27,359.83,868.58,358ZM895,335.16a35.91,35.91,0,0,0-3.4,3.84c-1.55,1.93-3.19,4-4.9,6.19s-3.31,4.3-4.8,6.28a39.62,39.62,0,0,0-3,4.33,75.75,75.75,0,0,0,15.38-6.22,85.68,85.68,0,0,0,14.84-9.95,67,67,0,0,0,11.9-12.83,38.4,38.4,0,0,0,6.54-14.86,49.28,49.28,0,0,0-8.9,4.56q-4.92,3.11-9.52,6.65T900.81,330Q897,333.3,895,335.16Z"/>
  </g>
</svg>
