<svg id="Layer_1" data-name="Layer 1" xmlns="http://www.w3.org/2000/svg" viewBox="0 0 3120.89 726.58">
  <defs>
    <style>
      .cls-1 {
        fill: none;
        opacity: 0;
      }

      .cls-2 {
        fill: #f2dea2;
      }
    </style>
  </defs>
  <title>lidtommig</title>
  <rect class="cls-1" width="3120.89" height="726.58"/>
  <g>
    <path class="cls-2" d="M811.46,216.68c-3,29.21-50.79,66.19-121.22,66.19v-6.72c66,0,109-32.84,111.58-60,2.22-19.65-17.79-31.29-53.75-31.29C678,184.87,629.82,245.64,565.69,308c-50.42,49.13-97.5,101.36-157.18,131.36.37,0,.74.26,1.11.26,67.84,24.3,152.36,54.56,245.77,54.56,40.78,0,79.33-5.69,116-17.07l4.08,6.21a411.83,411.83,0,0,1-120.11,17.58c-95.64,0-182-31-250.22-55.34l-5.56-2.06a226.61,226.61,0,0,1-95.27,20.68c-28.91,0-51.15-13.7-49.67-30.51,1.85-13.7,20-23.79,43-23.79,26.32,0,60.8,11.64,101.2,25.86,59.68-28.44,106.76-80.94,159-131.62,63.76-62,114.18-125.92,190.17-125.92C789.59,178.15,814.05,192.89,811.46,216.68ZM389.6,440.08c-38.18-13.44-68.94-23.53-91.93-23.53-18.16,0-32.25,7.5-33.36,17.59-1.11,12.67,16.31,23.27,40,23.27A215.2,215.2,0,0,0,389.6,440.08Z"/>
    <path class="cls-2" d="M887.82,404.92C849.64,417.85,787.74,430,742.51,430c-46,0-69.32-7.5-69.32-23.27q0-5.82,4.45-11.64c-8.53,2.85-18.91,6-31.51,9.83l-3.71-6.21c31.51-9.31,48.19-15.25,54.5-18.87l.37-.26,6.3,5.17c-15.2,9.05-20.76,15-20.76,22,0,10.86,18.9,16.55,59.68,16.55,43.74,0,103.43-11.64,140.87-24.57ZM730.28,371l-5.19-5.68,19.27-8.8,5.19,5.69Z"/>
    <path class="cls-2" d="M1070.57,404.92c-42.25,12.41-101.2,27.92-126.4,27.92-16.31,0-25.95-5.17-25.95-14.22a15.85,15.85,0,0,1,1.48-7,95.43,95.43,0,0,1-17.42,10.6c-7,3.36-13.35,4.92-19.28,4.92-9.27,0-14.83-4.66-14.83-12.42,0-15.51,24.84-33.61,47.08-33.61a29.8,29.8,0,0,1,19.65,7c13.72-12.93,30.77-30.25,51.9-52.75,11.86-12.41,24.83-26.63,39.66-43.18l8.16,3.62c-14.83,16.29-27.81,30.77-39.67,43.44-19.27,20.69-35.21,36.72-48.56,49.39-4.08,4.39-18.53,20.17-18.53,30,0,5.17,4.82,7.5,16.31,7.5,18.53,0,63.76-10.08,122.7-27.41Zm-142-11.38a17.15,17.15,0,0,0-13.35-5.69c-16.68,0-37.44,15.26-37.44,26.89,0,4.14,1.86,5.69,5.19,5.69,3.71,0,8.53-1.29,14.09-3.62C904.87,413.19,915.25,405.69,928.6,393.54Z"/>
    <path class="cls-2" d="M1252.59,398.71l4.45,6.21s-125.3,44-167.93,44c-62.64,0-54.49-40.08,18.17-95.68,9.64-7.24,19.64-14.48,30.39-21.72H1131c-23,0-34.84-4.39-34.84-13.7h9.63c0,4.65,7.42,7,25.21,7,5.56,0,11.49-.26,17.8-.52,16.68-10.86,34.47-21.2,52.26-30.77l5.94,5.17c-14.09,7.5-28.18,15.78-41.52,24.31l15.94-1.55c17.79-1.55,35.58-3.1,49.67-3.1,20.76,0,31.51,3.87,31.51,12.15H1253c0-3.62-6.67-5.43-21.87-5.43-13.34,0-30.4,1.55-48.19,3.1-10,1-20,1.81-29.66,2.59-13.71,8.79-26.69,18.1-38.55,27.15-55.23,42.15-84.89,84.29-25.58,84.29C1129.52,442.15,1252.59,398.71,1252.59,398.71Z"/>
    <path class="cls-2" d="M1971,404.92c-55.61,18.87-99.35,23.53-126.41,23.53-23,0-25.21-7.76-8.16-24.82a83.52,83.52,0,0,0,9.64-10.61c-8.15,1-20.76,5.18-34.47,11.64l-37.81,18.62-6.31-5.17c13-9.05,24.84-26.9,19.65-26.9-2.59,0-4.82,1-22.24,9.05-11.49,5.43-29.29,13.71-57.46,25.86l-1.85-2.33-4.45-2.84c5.56-3.62,26.69-33.87,30.77-43.18Q1670.73,391,1620.69,391c-31.14,0-51.16-3.63-68.58-7-7.78-1.29-14.46-2.58-21.87-3.62a14.45,14.45,0,0,1,.74,3.88c0,16-36.33,41.37-58.57,41.37-8.9,0-14.09-4.13-14.09-10.86,0-9.3,11.49-22,25.58-28.7l5.19,5.69c-11.49,5.43-21.13,15.77-21.13,23,0,3.11,1.11,4.14,4.45,4.14,17,0,48.93-22.24,48.93-34.65,0-4.13-3-5.43-16.31-4.91l-.74-6.72h2.59c18.54-.52,32.63,2.32,47.45,4.91,17.43,3.1,36.33,6.72,66.36,6.72,33,0,70.8-4.65,112-13.44,4.82-1.3,9.64.77,9.64,4.65,0,4.4-12.61,24.05-23,37.49,18.54-8,31.14-14.22,40.41-18.35,18.53-8.8,22.24-10.09,27.43-10.09,13.35,0,12.61,10.34,4.82,21.46l14.09-7c17.42-8,33.36-12.93,43-12.93,4.08,0,7.41,2.07,7.41,4.66,0,4.91-6.67,11.37-11.86,16.8-13,12.93-13.35,14.23,0,14.23,26.32,0,68.21-4.66,122.33-23Z"/>
    <path class="cls-2" d="M2523,404.92c-55.6,18.62-107.13,25.86-134.19,25.86-23,0-24.84-7.76-7.78-24.83,5.56-5.43,8.15-8.53,9.26-10.6-7.78.78-20.76,5.17-34.47,11.64L2318,425.6l-2.6-2.84-3.33-2.33c13-9.05,24.46-26.89,19.27-26.89-7,0-24.09,6.72-82.29,32.06l-2.6-2.84-3-2.59.37-.25c3.33-2.33,12.6-12.42,18.9-21.21,5.94-7.75,10-15.25,10-18.36a12.79,12.79,0,0,0-3.33-.25c-18.17,0-67.47,15.51-99,24.82l-3.71-6.21c31.51-9.31,82.3-25.34,102.69-25.34,7.78,0,13,2.33,13,7s-4.08,12.67-10.75,21.47c-2.22,3.1-4.82,6.2-7.41,9.3,44.11-19.13,58.57-24.3,67.09-24.3,13.35,0,13,10.34,4.82,21.72l14.46-7.24c17-8,33-12.93,42.63-12.93,4.08,0,7.41,2.07,7.41,4.65,0,4.92-6.3,11.38-11.86,16.81-13,12.93-13,14.22,0,14.22,26.32,0,75.62-6.72,130.12-25.34Z"/>
    <path class="cls-2" d="M2757.24,404.92C2719.06,417.85,2657.16,430,2611.93,430c-46,0-69.32-7.5-69.32-23.27q0-5.82,4.45-11.64c-8.53,2.85-18.91,6-31.51,9.83l-3.71-6.21c31.51-9.31,48.19-15.25,54.5-18.87l.37-.26,6.3,5.17c-15.2,9.05-20.76,15-20.76,22,0,10.86,18.91,16.55,59.68,16.55,43.74,0,103.43-11.64,140.87-24.57ZM2599.7,371l-5.19-5.68,19.28-8.8,5.18,5.69Z"/>
    <path class="cls-2" d="M2750.94,458.18c-63,63.1-132.71,127.22-171.26,112.49-28.91-10.87-17.79-61,103.8-98.78l60.79-19.14c6.67-6.46,13-12.67,19.28-19.13,5.93-5.95,11.49-11.64,17.42-17.32-11.12,5.94-22.24,10.6-31.88,10.6-7.41,0-11.86-5.69-11.86-12.16,0-15.51,24.83-33.61,47.08-33.61a30.46,30.46,0,0,1,22.24,9.31l3.7-2.85.37-.26,3.34,2.33,3.71,2.07c-14.09,13.71-30,29.48-46.34,45.77-3.34,3.36-6.67,6.72-10,9.83,57.46-17.85,116-36.72,153.1-48.62l3.71,6.21C2878.09,417.85,2812.48,438.79,2750.94,458.18Zm-17.42,5.44c-15.94,5.17-31.88,9.82-46.34,14.48-116.4,36.2-126,78.09-103,86.88C2614.53,576.35,2674.21,522.31,2733.52,463.62Zm15.57-43.45c14.09,0,36-14.48,50.41-24.82-4.07-5.17-8.89-7.5-15.19-7.5-16.69,0-37.45,15.26-37.45,26.89C2746.86,417.59,2748.35,420.17,2749.09,420.17Z"/>
  </g>
</svg>
