<svg id="Layer_1" data-name="Layer 1" xmlns="http://www.w3.org/2000/svg" viewBox="0 0 3120.89 726.58">
  <defs>
    <style>
      .cls-1 {
        fill: none;
        opacity: 0;
      }

      .cls-2 {
        fill: #f2dea2;
      }
    </style>
  </defs>
  <title>portfolio_background</title>
  <rect class="cls-1" width="3120.89" height="726.58"/>
  <g>
    <path class="cls-2" d="M1114.69,273.56c-58.57,94.38-306.2,103.17-360.32,77.06a1056,1056,0,0,1-91.56,73.17c21.5,6.47,43.37,14,66.35,22.24l-4.45,6.21c-24.09-8.79-47.07-16.55-69.32-23.27-72.65,49.64-153.83,86.36-243.17,86.36-296.56,0-208.7-230.39,241.32-94.38,33-23,64.13-48.87,93.79-75-4.82-4.65-4.45-10.08,2.59-16l7.42,4.14c-2.23,2.07-3.34,4.14-3,5.95,24.47-22.24,47.82-44.48,70.06-65.42,36.7-34.65,70.06-66.2,99.72-88.18-90.08,3.62-186.83,29-225,79.13l-8.53-3.11c40-52.75,145.31-79.64,242.07-82,16.31-11.37,31.88-19.39,46-23l3.34,6.21c-10.75,2.84-22.61,8.53-35.22,16.55C1058,180,1152.5,212,1114.69,273.56ZM646.13,426.12c-431.49-129.54-512.31,82.49-233.91,82.49C497.48,508.61,575.69,474,646.13,426.12ZM938.24,185.91c-30.77,21.46-66,54.81-106,92.82-22.62,21.47-46.71,44.48-72.29,67,41.15,21.71,289.15,17.06,345.86-74.73C1141,214.35,1046.48,184.35,938.24,185.91Z"/>
    <path class="cls-2" d="M1493.92,404.92C1455.73,417.33,1393.83,430,1348.6,430c-41.14,0-48.19-29.74-13.34-49.13a1.76,1.76,0,0,0-1.11-.26,160.88,160.88,0,0,1-16.32-3.36c-3.7,4.14-9.63,8.28-16.68,12.15-44.48,22.5-100.46,35.43-153.09,35.43-24.1,0-42.26-2.85-53.38-8.53-11.5,5.17-23.73,8.79-33.74,8.79-8.9,0-14.46-3.88-14.46-10.35,0-9.3,11.5-22,25.58-28.7l5.19,5.69c-11.49,5.43-21.13,15.77-21.13,23,0,2.85,1.11,3.62,4.82,3.62,7.42,0,17-2.84,26.32-7a17,17,0,0,1-5.56-12.67c0-15.25,13-27.92,29.29-27.92,11.12,0,18.9,5.69,18.9,13.7,0,8.28-11.86,19.14-27.06,27.67,9.27,3.88,24.47,5.95,45.23,5.95,50.78,0,104.53-12.42,147.53-34.14a62.66,62.66,0,0,0,13.72-9.56c-20-7.76-18.91-29.22,1.11-24.57,14.09,3.36,17.79,11.9,12.23,21.46a131.22,131.22,0,0,0,13.72,2.59c14.09,2.33,15.94,6.46,5.19,12.15-28.17,15.26-24.47,37.24,7,37.24,43.74,0,103.43-12.16,140.87-24.57Zm-398.5,2.58c13.71-7.24,24.83-16.8,24.83-23,0-4.39-3.33-7-9.26-7-10.38,0-19.65,9.31-19.65,21.2C1091.34,402.07,1092.82,404.92,1095.42,407.5Zm218.71-38.78c3-5.69,1.11-10.6-6.67-12.41C1300,354.5,1304.86,365.1,1314.13,368.72Z"/>
    <path class="cls-2" d="M1682.6,398.71l4.45,6.21s-125.29,44-167.92,44c-62.65,0-54.5-40.08,18.16-95.68,9.64-7.24,19.65-14.48,30.4-21.72H1561c-23,0-34.84-4.39-34.84-13.7h9.64c0,4.65,7.41,7,25.2,7,5.56,0,11.5-.26,17.8-.52,16.68-10.86,34.47-21.2,52.27-30.77l5.93,5.17c-14.09,7.5-28.18,15.78-41.52,24.31l15.94-1.55c17.79-1.55,35.59-3.1,49.67-3.1,20.76,0,31.51,3.87,31.51,12.15H1683c0-3.62-6.67-5.43-21.87-5.43-13.34,0-30.4,1.55-48.19,3.1-10,1-20,1.81-29.65,2.59-13.72,8.79-26.69,18.1-38.56,27.15-55.23,42.15-84.89,84.29-25.57,84.29C1559.53,442.15,1682.6,398.71,1682.6,398.71Z"/>
    <path class="cls-2" d="M1953.58,335.88c-79.7,48.87-146.8,60.76-156.06,27.92-20.39,17.85-42.63,38.53-66,62.58.74,10.6,11.49,15.77,32.62,15.77,54.87,0,180.9-43.44,180.9-43.44l4.45,6.21s-128.26,44-185.35,44c-21.13,0-35.21-5.17-40-14.74-32.62,33.87-67.47,73.95-104.91,121.53l-8.15-3.1c63-80.16,119.36-139.38,168.29-182.82-23.72,10.09-57.83,23.53-92.3,35.17l-4.45-6.21c49.67-16.29,97.49-36.46,116-46h.37c94.9-78.87,161.25-97.49,199.06-97.49C2045.88,255.2,2025.49,291.66,1953.58,335.88Zm44.48-73.95c-36.32,0-99.71,17.58-191.65,94.38,1.12,39.82,79,12.41,140.5-25.6C2002.14,296.83,2036.25,261.93,1998.06,261.93Z"/>
    <path class="cls-2" d="M2373.58,398.71l3.7,6.21s-110.46,36.2-160.14,36.2c-28.17,0-48.56-12.15-48.56-29a39.85,39.85,0,0,1,3-13.71c-50.79,15.52-99.72,25.6-133.45,25.6-24.1,0-41.89-2.58-53-8-11.5,5.43-24.1,9-34.11,9-8.89,0-14.45-3.88-14.45-10.35,0-9.3,11.49-22,25.57-28.7l5.19,5.69c-11.49,5.43-21.13,15.77-21.13,23,0,2.85,1.12,3.62,4.82,3.62,7.42,0,17-2.84,26.69-7a16.15,16.15,0,0,1-5.93-12.67c0-15.25,13-27.92,29.29-27.92,11.12,0,18.9,5.69,18.9,13.7s-11.86,18.88-26.69,27.41c9.27,3.62,24.1,5.43,44.86,5.43,33.73,0,84.52-10.86,137.15-27.41,15.2-28.7,53.38-67,97.87-95.67,39.29-25.34,124.92-56.37,124.92-26.63,0,17.06-21.5,38.26-61.53,61.54-40.78,24-97.87,47.83-153.47,65.67-3,6.47-4.82,12.42-4.82,17.33,0,12.93,15.94,22.24,38.92,22.24C2264.59,434.4,2373.58,398.71,2373.58,398.71Zm-388.12,8.79c13.71-7.49,24.83-16.8,24.83-23,0-4.39-3.33-7-9.26-7-10.38,0-19.65,9.31-19.65,21.2C1981.38,402.07,1982.86,404.92,1985.46,407.5Zm202.4-21.72c51.15-16.8,103.42-39,142.35-61.8,38.18-22,58.19-41.63,58.19-56.36,0-15.78-64.13,2.84-108.61,31.54C2239.38,325.28,2204.17,359.15,2187.86,385.78Z"/>
    <path class="cls-2" d="M2618.61,404.92C2580.43,417.85,2518.52,430,2473.3,430c-46,0-69.32-7.5-69.32-23.27q0-5.82,4.45-11.64c-8.53,2.85-18.91,6-31.51,9.83l-3.71-6.21c31.51-9.31,48.19-15.25,54.49-18.87l.37-.26,6.3,5.17c-15.19,9.05-20.75,15-20.75,22,0,10.86,18.9,16.55,59.68,16.55,43.74,0,103.42-11.64,140.86-24.57ZM2461.06,371l-5.19-5.68,19.28-8.8,5.19,5.69Z"/>
    <path class="cls-2" d="M2707.21,424.83c-23.36,0-41.15-2.85-52.64-8-3.34,1.55-6.67,3.11-10.38,4.66-32.25,12.93-50.42,2.32-33.36-18.62,5.93-7.24,13.71-13.7,20.38-16.81l5.19,5.69c-5.19,2.59-12.23,8.28-17.42,14.48-11.86,14.74-2.59,18.62,20.76,9.31,2.6-1,5.19-2.07,7.79-3.36a16.94,16.94,0,0,1-6.68-13.45c0-15.25,13-27.92,29.29-27.92,11.12,0,18.9,5.69,18.9,13.7,0,7.5-11.12,18.62-26.32,27.93,9.27,3.62,24.1,5.69,44.49,5.69,35.21,0,73.4-11.38,100.46-19.4l3.7,6.21C2784.31,412.93,2744.65,424.83,2707.21,424.83ZM2654.94,408c14.09-8,24.47-17.84,24.47-23.53,0-4.39-3.34-7-9.27-7-10.38,0-19.65,9.31-19.65,21.2A11.93,11.93,0,0,0,2654.94,408Z"/>
  </g>
</svg>
