<svg xmlns="http://www.w3.org/2000/svg" width="1244.58" height="338.69" viewBox="0 0 1244.58 338.69"><defs><style>.cls-1{fill:#8939c6;}.cls-2{fill:#070707;}.cls-3{fill:#fbfbfb;}</style></defs><title>projectslogo.fb</title><g id="Layer_2" data-name="Layer 2"><path class="cls-1" d="M979.18,332.3a809.71,809.71,0,0,1-92.95-4.57l-11.9-1.31-6-.69-6-.79q-11.91-1.6-23.91-3.35c-15.92-2.56-32-5.16-47.87-8.22-16-2.86-31.83-6.2-47.66-9.27q-11.85-2.42-23.62-4.82L707.59,297l-11.68-2.37q-11.65-2.31-23.21-4.39c-7.69-1.44-15.33-2.85-22.93-4.11-15.21-2.43-30.15-4.8-44.88-6.4-8.88-.79-17.73-1.92-26.61-3.06L565,274.85l-6.68-.94c-2.23-.33-4.44-.7-6.66-1.06q-13.32-2.19-26.69-4.61c-4.46-.77-8.88-1.72-13.33-2.62l-13.33-2.81c-4.44-.95-8.89-1.91-13.33-2.92l-13.29-3.23-13.28-3.33-6.65-1.7-6.61-1.84q-13.23-3.71-26.45-7.57-13.15-4.09-26.29-8.33c-69.91-23.09-138.11-53.08-202.3-87,.72-2.92,4.32-5.22,6.51-7.92s2.93-5.72-2.14-9.65C153.15,100.62,155.32,91.91,157.78,82c.6-2.42,9,.34,16,2.65s12.61,4.07,7.68-.4c16.83,5.31,39.49,11.56,54,14.09s20.82,1.48,4.62-6.48C235.2,87.06,221,83.35,206.9,79.2s-28.1-8.64-32.85-13.88-1-8.22,2.86-11.54,7.76-6.84,2.88-11.54c-11.7-1.69-35.14-4.8-46.88-6.25-5.36-2.75-1.71-5.26,1.89-7.58s7.1-4.24,1.12-4.54c-4.35-.76-8.95-1.29-13.72-1.77-2.39-.23-4.83-.44-7.3-.63s-5-.31-7.59-.43l-7.82-.33c-2.65-.08-5.35-.1-8.07-.13q-8.17-.09-16.7-.07c-5.66-.06-11.49.19-17.35.31s-11.81.25-17.85.56-12.07.46-18.2.88S9.06,23,2.86,23.6L0,22.89l2.84.7,12.63-2.13L25.78,20c3.44-.52,6.84-.86,10.26-1.3L46.29,17.4l10.2-1,10.21-1,5.1-.5,5.08-.39,20.31-1.59c3.39-.3,6.76-.47,10.13-.68l10.13-.63c6.72-.31,13.47-.7,20.19-1s13.45-.56,20.15-.73,13.41-.4,20.1-.5L198,9.06,218,9l20,.17c3.33,0,6.65.08,10,.16l10,.22c26.55.64,53,1.68,79.36,3.42l9.89.6c3.3.19,6.57.49,9.86.73l19.71,1.49c6.56.54,13.1,1.18,19.66,1.76s13.11,1.14,19.63,1.88l19.59,2.08,4.9.52,4.88.59,9.76,1.2,19.51,2.41L494.07,29q77.77,11,154.11,28.11c101.75,22.81,201.36,54.26,297.92,96.47l18.06,8.06c3,1.33,6,2.73,9,4.14l9,4.21,9,4.22c3,1.4,6,2.91,8.93,4.37,6,2.94,11.91,5.83,17.85,8.82q35.58,18,70.52,38.23c46.56,27,92.3,56.86,136.63,91.54,5,4.12,9,7.22,11.92,9.76l3.73,3.12,2.39,2,1.35.34-1.13-.29-.22,0c-.07,0-.14-.11-.21-.16s-.29-.24-.46-.36l-1.08-.85c-1.59-1.22-3.76-2.76-6.36-4.56s-5.68-3.69-9-5.75-7.07-4.11-10.92-6.17q-2.91-1.54-5.9-3.09c-2-1-4-2-6-3a49.12,49.12,0,0,1,6.32,3.48c1.63,1,2.91,2,4.2,2.87s2.58,1.79,4.23,2.77,3.66,2,6.32,3.5c-.14.57-5.65-1.61-16.86-5.2-5.61-1.81-12.66-3.85-21.12-6.37s-18.36-5.27-29.59-8.81l16.7,5.86,8.35,2.94,8.34,3c5.43,2.5,5.28,3.1,3.68,3.46s-4.66.49-4.91,1.5c-11.36-3.1-22.69-6.16-23-4.79l-1.33,5.37c11.54,2.23,34.69,6.56,46.26,8.63-11.58-2.07-23.12-4.31-23.38-3.27s-.74,3-1,4c-3-.19-6.14-.4-9.43-.7s-6.68-.68-10.18-1.09c-7-.83-14.31-1.77-21.59-2.89-14.6-2.16-29.08-4.78-41.06-5.33l-1.58,6.36c5.78,1.11,12.37,2,19.4,2.66,3.51.34,7.12.66,10.78.94l11.12.75,41.8,2.27c-12.22.39-12.53,1.64-13.11,4-9.12.16-18.19.15-27.2-.15q-6.74-.28-13.44-.68l-13.39-.93-13.39-.89c-4.47-.28-9-.43-13.48-.55a169,169,0,0,0-27.59,1.46l8.94.53,9,.44c6,.28,12,.6,18,.79-6.67,2.47-15.31,3.77-25.11,4.39-4.9.31-10.05.32-15.4.24q-4-.07-8.13-.26c-2.73-.14-5.5-.34-8.28-.55-5.57-.43-11.22-.92-16.81-1.53l-16.58-1.86c-5.44-.56-10.72-1.2-15.8-1.59S983.73,332.24,979.18,332.3Z"/><path class="cls-2" d="M331.31,98c0,5.67-.27,11.34-.54,16.21-.81,8.1-2.16,12.69-4.32,15.39-5.94,8.1-15.93,12.15-30,12.42v12.69c0,13.23-.27,25.38-.54,36.18a51.76,51.76,0,0,0,.27,5.4v6.21c.27,3.78.27,8.1.27,13.23,0,6.48-.27,12.42-1.08,15.12-1.08,4.59-8.1,2.7-7-1.89.81-1.35,1.35-8.64,1.08-18.36a63.51,63.51,0,0,0-.27-7.56v-4.86c-.27-3.78-.27-6.21-.27-7.56.54-3.78.81-13.5.81-28.89V148c-.27-5.94-.27-12.42-.27-19.44-.27-3-.27-6.21-.27-9.45-.81-37.53-1.08-61-1.08-69.67a3.7,3.7,0,0,1-1.62-4.86,3,3,0,0,1,4.32-1.62,1,1,0,0,1,.81-.27,2.63,2.63,0,0,1,2.43,1.08c1.62,0,3.78.27,6.75.54a65.53,65.53,0,0,1,6.75.81C324,46.7,327.26,55.34,329.42,69.92A199.72,199.72,0,0,1,331.31,98Zm-7-1.08c0-17.82-2.16-34.56-4.86-38.61-2.7-3.51-7-5.67-13.23-6.21-.27-.27-2.16-.54-5.94-.81-1.89-.27-3.51-.27-5.13-.54,0,12.42.27,31.59.54,49.14.27,10.27.54,19.72.54,27.28.27,2.7.27,5.67.27,7.83,11.61-.54,19.71-3.51,24.57-9.45C322.94,122.58,324.29,112,324.29,96.92Z"/><path class="cls-2" d="M419.33,182.25c0,6.21-.27,13.23-.54,20.79v1.89c-.81,11.07-1.08,19.17-1.08,23.76a3.51,3.51,0,0,1-7,0c0-4.86.27-13,1.08-24.3V203c.27-7.56.54-14.58.54-20.79,0-11.61-.54-21.33-2.7-30-.81-4.05-4.86-8.91-9.18-10.8-4.86,1.89-10.26,1.89-15.93,1.89-1.89,0-3.24-.27-4.32-.27v30.24c0,4,.27,10.26.81,18.09V192l.27,1.08v1.08c.54,7,.81,12.15.81,17A123,123,0,0,1,380.72,229c-1.08,4.32-7.83,3-7-1.35a104.84,104.84,0,0,0,1.35-16.47c0-4.86-.27-9.45-.81-16.2v-1.35a4,4,0,0,1-.27-1.89c-.54-7.83-.81-14-.81-18.36,0-13.77,0-34.29.27-61.56s.27-47.53.27-61.3a3.87,3.87,0,0,1,1.35-3c.27-1.35,1.89-2.16,3.51-2.16.81.27,2.43.27,6.48.27a56.63,56.63,0,0,1,7.29.27C405,47,411.23,53.45,414.74,69.65a141.91,141.91,0,0,1,2.7,26.47,130.15,130.15,0,0,1-2.16,23.21c-2.16,8.11-4.86,14.32-8.1,18.1,4.59,3.24,8.37,8.37,9.45,13.23C418.79,160.11,419.33,170.37,419.33,182.25ZM410.15,94.5c0-17.29-3.51-32.68-8.37-37.81-2.43-2.16-5.67-3.51-10.26-4h-10.8V64.25c-.27,8.64-.27,21.06-.27,37v16.2c-.27,5.94-.27,12.15-.27,18.63,1.08,0,2.7.27,4.86.27,10.8,1.08,16.2-3.24,17.28-4C407.18,127.17,410.42,112,410.15,94.5Z"/><path class="cls-2" d="M508.16,164.43c0,32.13-1.62,50.76-5.4,57.51-3.78,5.94-11.07,9.72-18.9,9.72-10.53,0-18.09-7.29-21.06-19.44-1.08-4.05-1.35-9.18-1.35-17.28-.27-3.51-.27-5.67-.27-6.75v-4.32a45.76,45.76,0,0,1-.27-6.21c0-4.86.27-10.8.54-17.55V156.6c.54-8.37.81-15.93.81-21.87a29.4,29.4,0,0,0-.27-5.13v-3.52a15.42,15.42,0,0,1-.27-4v-1.35a6,6,0,0,1-.27-2.16,26.2,26.2,0,0,1-.27-4.59v-1.36a8.29,8.29,0,0,1-.27-2.7v.28l-.81-9.73V98.28a3.42,3.42,0,0,1-.27-1.62,14.31,14.31,0,0,1-.27-3.24c-.54-6-.54-11.08-.54-15.67,0-8.1.27-13,1.35-16.47,3-11.07,11.34-17.82,22.41-17.82,12.42,0,19.71,6.48,22.14,19.44,1.08,5.4,1.35,11.07,1.62,18.36V88C507.89,119.07,508.16,144.72,508.16,164.43Zm-7-7.56q0-27.94-1.62-68.86L499,71.81v.27l-.81-7.83c-2.16-9.18-7.29-14-14.58-14a18.2,18.2,0,0,0-9.18,2.7c-3.51,1.89-5.94,5.4-7,10.26-1.08,2.7-1.35,7-1.35,14.31,0,4.6,0,9.73.54,15.4V94a5.94,5.94,0,0,1,.27,2.42v1.36a7.45,7.45,0,0,1,.27,2.43v-.28l.81,9.73v1.62c.27,2.7.54,5.4.54,7.83a3.42,3.42,0,0,0,.27,1.62v1.62c0,2.16,0,2.7.27,3v3.78a39.88,39.88,0,0,1,.27,5.67q0,8.91-.81,22.68v3.78c-.27,6.21-.54,11.61-.54,16.47a34.52,34.52,0,0,0,.27,5.67v4.86c0,2.16.27,10.53.54,15.66a54.64,54.64,0,0,0,1.08,7c1.35,7,4.59,11.34,10,13.23a10.53,10.53,0,0,0,4.32.54c5.67,0,10.53-2.43,12.15-6.21C499.79,213,501.41,191.7,501.14,156.87Z"/><path class="cls-2" d="M596.18,191.7a98.37,98.37,0,0,1-1.89,21.06c-1.62,7.83-7.83,14.58-15.93,17.55a31.73,31.73,0,0,1-7.83,1.35c-13.23,0-20.52-13.5-20.52-37a3.51,3.51,0,1,1,7,0c0,19.44,5.13,29.7,14,29.7a11,11,0,0,0,5.13-1.08,16.28,16.28,0,0,0,11.07-12.15c1.35-5.4,1.89-11.34,1.89-19.44,0-3.51-.27-7.29-.54-11.34v-1.89a10.12,10.12,0,0,0-.27-3v-2.7c-.27-4.32-.27-7.29-.27-9.45V149.58c-.27-7-.27-15.12-.27-24.3v-8.64c-.27-3.52-.27-7-.27-10.81,0-3.5,0-6.75-.27-9.71V86.93c0-9.18,0-17.28-.27-24.3v-14a3.51,3.51,0,0,1,7,0v14c.27,7,.27,15.12.27,24.3v8.65c.27,3.5.27,6.75.27,10.25,0,3.79,0,7.29.27,10.27v9.18c0,9.18,0,17.28.27,24.3v13.77c0,1.89,0,4.86.27,8.37v2.7a15.45,15.45,0,0,1,.27,3.78v.54C595.91,183.33,596.18,187.92,596.18,191.7Z"/><path class="cls-2" d="M679.88,227.61a3.2,3.2,0,0,1-3.24,3.51,208,208,0,0,1-22.41,1.35c-6.75,0-11.07-.27-14.31-1.35-3.24-.81-3.24-4.86-1.08-6.48.81-14.31,1.35-31,1.35-50.76,0-11.34-.81-49.95-1.08-55.09-1.08-36.71-1.62-59.67-1.62-68.58a3.1,3.1,0,0,1-1.62-3,3.26,3.26,0,0,1,3.51-3.51c4,0,9.72,0,17.55-.27h17.55A3.26,3.26,0,0,1,678,47a3.26,3.26,0,0,1-3.51,3.51H658c-5.67.27-10.26.27-13.5.27,0,8.64.54,30,1.62,63.73.27,3.51.27,7,.27,10.53v4.86a16.6,16.6,0,0,1,.27,3.78,25.83,25.83,0,0,0,7.29.81,9.19,9.19,0,0,0,2.7-.27h2.7a12.11,12.11,0,0,1,3-.27c3-.27,5.13-.27,6.48-.27a3.51,3.51,0,1,1,0,7c-1.35,0-3.51,0-6.48.27a9.19,9.19,0,0,0-2.7.27h-2.7a14.27,14.27,0,0,1-3.24.27,53.09,53.09,0,0,1-7-.54c.27,11.88.54,22.95.54,33.21,0,19.17-.54,35.91-1.35,50.76a55.84,55.84,0,0,0,7.83.54c5.94,0,13.23-.54,22.68-1.35A3.26,3.26,0,0,1,679.88,227.61Z"/><path class="cls-2" d="M738.47,233.55c-8.64-2.43-16.2-9.18-18.36-16.47-2.43-9.45-3.51-19.71-3.51-32.94,0-14,0-17.82,1.08-34.83l.81-14.58v-3.24a38.26,38.26,0,0,0,.27-6.21V118c-.27-3.24-.27-7-.27-11.34a65.89,65.89,0,0,1-.27-7.29v-10c0-11.35.27-19.45,1.08-25.66,1.08-11.07,11.34-19.44,22.68-19.44a21.83,21.83,0,0,1,4,.27c11.34,1.35,18.63,10.8,18.63,24.84a41.22,41.22,0,0,1-1.08,10.26c-1.08,4.32-7.83,3-7-1.35a57.24,57.24,0,0,0,.81-8.91c0-11.61-5.4-18.09-14.85-18.09-8.1,0-15.39,5.67-16.2,13a214.26,214.26,0,0,0-1.08,25.12v10a58.81,58.81,0,0,0,.27,7c0,4.32,0,8.1.27,11.61v7.29a50,50,0,0,1-.27,6.75v2.7l-.81,14.85c-1.08,17-1.08,20.52-1.08,34.29,0,13.5,1.08,23.22,3.51,31.59,1.08,4.32,6.75,9.18,13.23,11.34a21.92,21.92,0,0,0,7,1.35c7.56,0,10.26-6.48,10.26-26.73a3.51,3.51,0,1,1,7,0c0,12.42-.81,20.25-3,24.3a18.15,18.15,0,0,1-15.93,9.18A26.25,26.25,0,0,1,738.47,233.55Z"/><path class="cls-2" d="M819.74,229a168.24,168.24,0,0,0,1.62-19.17c0-4.32-.27-11.07-.81-19.71-.54-9.18-.81-15.66-.81-20,0-15.12.81-50.77,1.08-60.48v-8.91c0-18.91-.81-34.84-1.89-48.34-9.72,0-15.12-1.08-17.55-3.24-4-2.7.27-8.37,3.78-5.4,1.89.81,8.37,1.62,16.2,1.62,5.67-.27,17.82-.81,20.25-.81a3.26,3.26,0,0,1,3.51,3.51,3.26,3.26,0,0,1-3.51,3.51c-1.35,0-4.05,0-7.83.27-3.24.27-5.67.27-7.83.27,1.35,14.58,1.89,30.78,1.89,48.61v8.91c-.27,9.71-1.08,45.36-1.08,60.48,0,4.05.27,10.26.81,18.09q.81,12.56.81,22.68a111.05,111.05,0,0,1-1.62,19.44C826,234.63,818.93,233.28,819.74,229Z"/><path class="cls-2" d="M932.87,182.79v5.94c0,32.67-4.59,42.12-22.68,44.55a21.83,21.83,0,0,1-4.05.27c-11.88,0-18.9-8.1-19.44-22.14-.27-1.08-.27-2.7-.27-6.48a36.37,36.37,0,0,0-.27-5.94c0-2.43,1.35-3.78,3.51-3.78a3.2,3.2,0,0,1,3.51,3.24,43.93,43.93,0,0,1,.27,6.48c0,4,0,5.13.27,5.94.27,10.53,4,15.66,12.15,15.66,8.37,0,14-3,16.47-8.37,2.16-4,3.51-14.31,3.51-29.43v-6.48c0-19.71,0-34.56-12.42-41.58h.27l-6.48-3.24c-5.67-3-10.8-5.94-14.58-9.18-6.21-6.21-8.91-15.13-8.91-29.71,0-6.21.54-13.77,1.35-23.22a4,4,0,0,1,.27-1.89V72.08c1.89-19.44,10.53-28.35,27-27,7.56.81,12.69,3.78,15.66,8.37q4.05,7.29,4,19.44c0,2.43-.27,5.4-.54,8.37v.54a3.51,3.51,0,1,1-7,0V80.18c.27-3,.54-5.13.54-7.83,0-7-1.08-11.88-3-15.39-1.62-3-6.75-5.13-12.69-5.13-3.78,0-7.56,1.08-9.72,3-5.4,4.59-8.91,21.6-8.91,42.12,0,13,2.43,21.87,6.75,26.2,2.7,2.7,6.48,4.59,17.55,10.26l2.16,1.08C933.14,144.18,933.14,162,932.87,182.79Z"/><path class="cls-3" d="M336.31,98c0,5.67-.27,11.34-.54,16.21-.81,8.1-2.16,12.69-4.32,15.39-5.94,8.1-15.93,12.15-30,12.42v12.69c0,13.23-.27,25.38-.54,36.18a51.76,51.76,0,0,0,.27,5.4v6.21c.27,3.78.27,8.1.27,13.23,0,6.48-.27,12.42-1.08,15.12-1.08,4.59-8.1,2.7-7-1.89.81-1.35,1.35-8.64,1.08-18.36a63.51,63.51,0,0,0-.27-7.56v-4.86c-.27-3.78-.27-6.21-.27-7.56.54-3.78.81-13.5.81-28.89V148c-.27-5.94-.27-12.42-.27-19.44-.27-3-.27-6.21-.27-9.45-.81-37.53-1.08-61-1.08-69.67a3.7,3.7,0,0,1-1.62-4.86,3,3,0,0,1,4.32-1.62,1,1,0,0,1,.81-.27,2.63,2.63,0,0,1,2.43,1.08c1.62,0,3.78.27,6.75.54a65.53,65.53,0,0,1,6.75.81C329,46.7,332.26,55.34,334.42,69.92A199.72,199.72,0,0,1,336.31,98Zm-7-1.08c0-17.82-2.16-34.56-4.86-38.61-2.7-3.51-7-5.67-13.23-6.21-.27-.27-2.16-.54-5.94-.81-1.89-.27-3.51-.27-5.13-.54,0,12.42.27,31.59.54,49.14.27,10.27.54,19.72.54,27.28.27,2.7.27,5.67.27,7.83,11.61-.54,19.71-3.51,24.57-9.45C327.94,122.58,329.29,112,329.29,96.92Z"/><path class="cls-3" d="M424.33,182.25c0,6.21-.27,13.23-.54,20.79v1.89c-.81,11.07-1.08,19.17-1.08,23.76a3.51,3.51,0,0,1-7,0c0-4.86.27-13,1.08-24.3V203c.27-7.56.54-14.58.54-20.79,0-11.61-.54-21.33-2.7-30-.81-4.05-4.86-8.91-9.18-10.8-4.86,1.89-10.26,1.89-15.93,1.89-1.89,0-3.24-.27-4.32-.27v30.24c0,4,.27,10.26.81,18.09V192l.27,1.08v1.08c.54,7,.81,12.15.81,17A123,123,0,0,1,385.72,229c-1.08,4.32-7.83,3-7-1.35a104.84,104.84,0,0,0,1.35-16.47c0-4.86-.27-9.45-.81-16.2v-1.35a4,4,0,0,1-.27-1.89c-.54-7.83-.81-14-.81-18.36,0-13.77,0-34.29.27-61.56s.27-47.53.27-61.3a3.87,3.87,0,0,1,1.35-3c.27-1.35,1.89-2.16,3.51-2.16.81.27,2.43.27,6.48.27a56.63,56.63,0,0,1,7.29.27C410,47,416.23,53.45,419.74,69.65a141.91,141.91,0,0,1,2.7,26.47,130.15,130.15,0,0,1-2.16,23.21c-2.16,8.11-4.86,14.32-8.1,18.1,4.59,3.24,8.37,8.37,9.45,13.23C423.79,160.11,424.33,170.37,424.33,182.25ZM415.15,94.5c0-17.29-3.51-32.68-8.37-37.81-2.43-2.16-5.67-3.51-10.26-4h-10.8V64.25c-.27,8.64-.27,21.06-.27,37v16.2c-.27,5.94-.27,12.15-.27,18.63,1.08,0,2.7.27,4.86.27,10.8,1.08,16.2-3.24,17.28-4C412.18,127.17,415.42,112,415.15,94.5Z"/><path class="cls-3" d="M513.16,164.43c0,32.13-1.62,50.76-5.4,57.51-3.78,5.94-11.07,9.72-18.9,9.72-10.53,0-18.09-7.29-21.06-19.44-1.08-4.05-1.35-9.18-1.35-17.28-.27-3.51-.27-5.67-.27-6.75v-4.32a45.76,45.76,0,0,1-.27-6.21c0-4.86.27-10.8.54-17.55V156.6c.54-8.37.81-15.93.81-21.87a29.4,29.4,0,0,0-.27-5.13v-3.52a15.42,15.42,0,0,1-.27-4v-1.35a6,6,0,0,1-.27-2.16,26.2,26.2,0,0,1-.27-4.59v-1.36a8.29,8.29,0,0,1-.27-2.7v.28l-.81-9.73V98.28a3.42,3.42,0,0,1-.27-1.62,14.31,14.31,0,0,1-.27-3.24c-.54-6-.54-11.08-.54-15.67,0-8.1.27-13,1.35-16.47,3-11.07,11.34-17.82,22.41-17.82,12.42,0,19.71,6.48,22.14,19.44,1.08,5.4,1.35,11.07,1.62,18.36V88C512.89,119.07,513.16,144.72,513.16,164.43Zm-7-7.56q0-27.94-1.62-68.86L504,71.81v.27l-.81-7.83c-2.16-9.18-7.29-14-14.58-14a18.2,18.2,0,0,0-9.18,2.7c-3.51,1.89-5.94,5.4-7,10.26-1.08,2.7-1.35,7-1.35,14.31,0,4.6,0,9.73.54,15.4V94a5.94,5.94,0,0,1,.27,2.42v1.36a7.45,7.45,0,0,1,.27,2.43v-.28l.81,9.73v1.62c.27,2.7.54,5.4.54,7.83a3.42,3.42,0,0,0,.27,1.62v1.62c0,2.16,0,2.7.27,3v3.78a39.88,39.88,0,0,1,.27,5.67q0,8.91-.81,22.68v3.78c-.27,6.21-.54,11.61-.54,16.47a34.52,34.52,0,0,0,.27,5.67v4.86c0,2.16.27,10.53.54,15.66a54.64,54.64,0,0,0,1.08,7c1.35,7,4.59,11.34,10,13.23a10.53,10.53,0,0,0,4.32.54c5.67,0,10.53-2.43,12.15-6.21C504.79,213,506.41,191.7,506.14,156.87Z"/><path class="cls-3" d="M601.18,191.7a98.37,98.37,0,0,1-1.89,21.06c-1.62,7.83-7.83,14.58-15.93,17.55a31.73,31.73,0,0,1-7.83,1.35c-13.23,0-20.52-13.5-20.52-37a3.51,3.51,0,1,1,7,0c0,19.44,5.13,29.7,14,29.7a11,11,0,0,0,5.13-1.08,16.28,16.28,0,0,0,11.07-12.15c1.35-5.4,1.89-11.34,1.89-19.44,0-3.51-.27-7.29-.54-11.34v-1.89a10.12,10.12,0,0,0-.27-3v-2.7c-.27-4.32-.27-7.29-.27-9.45V149.58c-.27-7-.27-15.12-.27-24.3v-8.64c-.27-3.52-.27-7-.27-10.81,0-3.5,0-6.75-.27-9.71V86.93c0-9.18,0-17.28-.27-24.3v-14a3.51,3.51,0,0,1,7,0v14c.27,7,.27,15.12.27,24.3v8.65c.27,3.5.27,6.75.27,10.25,0,3.79,0,7.29.27,10.27v9.18c0,9.18,0,17.28.27,24.3v13.77c0,1.89,0,4.86.27,8.37v2.7a15.45,15.45,0,0,1,.27,3.78v.54C600.91,183.33,601.18,187.92,601.18,191.7Z"/><path class="cls-3" d="M684.88,227.61a3.2,3.2,0,0,1-3.24,3.51,208,208,0,0,1-22.41,1.35c-6.75,0-11.07-.27-14.31-1.35-3.24-.81-3.24-4.86-1.08-6.48.81-14.31,1.35-31,1.35-50.76,0-11.34-.81-49.95-1.08-55.09-1.08-36.71-1.62-59.67-1.62-68.58a3.1,3.1,0,0,1-1.62-3,3.26,3.26,0,0,1,3.51-3.51c4,0,9.72,0,17.55-.27h17.55A3.26,3.26,0,0,1,683,47a3.26,3.26,0,0,1-3.51,3.51H663c-5.67.27-10.26.27-13.5.27,0,8.64.54,30,1.62,63.73.27,3.51.27,7,.27,10.53v4.86a16.6,16.6,0,0,1,.27,3.78,25.83,25.83,0,0,0,7.29.81,9.19,9.19,0,0,0,2.7-.27h2.7a12.11,12.11,0,0,1,3-.27c3-.27,5.13-.27,6.48-.27a3.51,3.51,0,1,1,0,7c-1.35,0-3.51,0-6.48.27a9.19,9.19,0,0,0-2.7.27h-2.7a14.27,14.27,0,0,1-3.24.27,53.09,53.09,0,0,1-7-.54c.27,11.88.54,22.95.54,33.21,0,19.17-.54,35.91-1.35,50.76a55.84,55.84,0,0,0,7.83.54c5.94,0,13.23-.54,22.68-1.35A3.26,3.26,0,0,1,684.88,227.61Z"/><path class="cls-3" d="M743.47,233.55c-8.64-2.43-16.2-9.18-18.36-16.47-2.43-9.45-3.51-19.71-3.51-32.94,0-14,0-17.82,1.08-34.83l.81-14.58v-3.24a38.26,38.26,0,0,0,.27-6.21V118c-.27-3.24-.27-7-.27-11.34a65.89,65.89,0,0,1-.27-7.29v-10c0-11.35.27-19.45,1.08-25.66,1.08-11.07,11.34-19.44,22.68-19.44a21.83,21.83,0,0,1,4,.27c11.34,1.35,18.63,10.8,18.63,24.84a41.22,41.22,0,0,1-1.08,10.26c-1.08,4.32-7.83,3-7-1.35a57.24,57.24,0,0,0,.81-8.91c0-11.61-5.4-18.09-14.85-18.09-8.1,0-15.39,5.67-16.2,13a214.26,214.26,0,0,0-1.08,25.12v10a58.81,58.81,0,0,0,.27,7c0,4.32,0,8.1.27,11.61v7.29a50,50,0,0,1-.27,6.75v2.7l-.81,14.85c-1.08,17-1.08,20.52-1.08,34.29,0,13.5,1.08,23.22,3.51,31.59,1.08,4.32,6.75,9.18,13.23,11.34a21.92,21.92,0,0,0,7,1.35c7.56,0,10.26-6.48,10.26-26.73a3.51,3.51,0,1,1,7,0c0,12.42-.81,20.25-3,24.3a18.15,18.15,0,0,1-15.93,9.18A26.25,26.25,0,0,1,743.47,233.55Z"/><path class="cls-3" d="M824.74,229a168.24,168.24,0,0,0,1.62-19.17c0-4.32-.27-11.07-.81-19.71-.54-9.18-.81-15.66-.81-20,0-15.12.81-50.77,1.08-60.48v-8.91c0-18.91-.81-34.84-1.89-48.34-9.72,0-15.12-1.08-17.55-3.24-4-2.7.27-8.37,3.78-5.4,1.89.81,8.37,1.62,16.2,1.62,5.67-.27,17.82-.81,20.25-.81a3.26,3.26,0,0,1,3.51,3.51,3.26,3.26,0,0,1-3.51,3.51c-1.35,0-4.05,0-7.83.27-3.24.27-5.67.27-7.83.27,1.35,14.58,1.89,30.78,1.89,48.61v8.91c-.27,9.71-1.08,45.36-1.08,60.48,0,4.05.27,10.26.81,18.09q.81,12.56.81,22.68a111.05,111.05,0,0,1-1.62,19.44C831,234.63,823.93,233.28,824.74,229Z"/><path class="cls-3" d="M937.87,182.79v5.94c0,32.67-4.59,42.12-22.68,44.55a21.83,21.83,0,0,1-4.05.27c-11.88,0-18.9-8.1-19.44-22.14-.27-1.08-.27-2.7-.27-6.48a36.37,36.37,0,0,0-.27-5.94c0-2.43,1.35-3.78,3.51-3.78a3.2,3.2,0,0,1,3.51,3.24,43.93,43.93,0,0,1,.27,6.48c0,4,0,5.13.27,5.94.27,10.53,4,15.66,12.15,15.66,8.37,0,14-3,16.47-8.37,2.16-4,3.51-14.31,3.51-29.43v-6.48c0-19.71,0-34.56-12.42-41.58h.27l-6.48-3.24c-5.67-3-10.8-5.94-14.58-9.18-6.21-6.21-8.91-15.13-8.91-29.71,0-6.21.54-13.77,1.35-23.22a4,4,0,0,1,.27-1.89V72.08c1.89-19.44,10.53-28.35,27-27,7.56.81,12.69,3.78,15.66,8.37q4.05,7.29,4,19.44c0,2.43-.27,5.4-.54,8.37v.54a3.51,3.51,0,1,1-7,0V80.18c.27-3,.54-5.13.54-7.83,0-7-1.08-11.88-3-15.39-1.62-3-6.75-5.13-12.69-5.13-3.78,0-7.56,1.08-9.72,3-5.4,4.59-8.91,21.6-8.91,42.12,0,13,2.43,21.87,6.75,26.2,2.7,2.7,6.48,4.59,17.55,10.26l2.16,1.08C938.14,144.18,938.14,162,937.87,182.79Z"/><path class="cls-3" d="M182.87,260.6c230-19.21,923,0,923,0"/></g></svg>
