<svg id="Layer_1" data-name="Layer 1" xmlns="http://www.w3.org/2000/svg" width="1920" height="1080" viewBox="0 0 1920 1080"><defs><style>.cls-1{fill:#6f8174;}.cls-2{fill:#ffd6b3;}.cls-3{fill:#7a5230;}.cls-4{fill:#fff;}.cls-5,.cls-6{fill:none;}.cls-5{stroke:#fff;}.cls-15,.cls-5,.cls-6{stroke-miterlimit:10;}.cls-15,.cls-6{stroke:#000;}.cls-7{fill:#d3a17a;}.cls-8{fill:#eda297;}.cls-9{fill:#ff756d;}.cls-10{fill:#451d00;}.cls-11{fill:#a7541e;}.cls-12{fill:#5c2a20;}.cls-13{fill:#732b00;}.cls-14{fill:#733b00;}.cls-15,.cls-17{fill:#c897d1;}.cls-15{stroke-width:2px;}.cls-16{fill:#f2f2f2;}</style></defs><title>vaelg_spiller</title><rect class="cls-1" width="1921" height="1080"/><path class="cls-2" d="M937.28,889.5c1.38,4.14-12.42,8.28-12.42,8.28S909.68,900.54,900,895l-33.13-1.38s-13.8,0-12.42-12.42-2.76-49.68-2.76-49.68-15.18-71.77-4.14-77.29l-11-140.77L831,612.1c1.38,4.14-12.42,140.77-12.42,140.77s9.66,2.76-8.28,110.41c0,0,9.66,29,0,29,0,0-1.38,4.14-20.7,0,0,0-12.42-2.76-23.46,0S752.35,895,749.59,895s-15.19-2.76-15.19-2.76-2.76-11,12.43-6.9,49.68-13.8,49.68-13.8l2.76-4.14-1.38-106.27s-9.66-20.7-4.14-26.22a1731.4,1731.4,0,0,1,15.18-187.69l1.38-12.42-4.14-103.51s-22.08,114.55-19.32,115.93l-1.38,48.3-1.38,30.36s-1.38,6.9-4.14-1.38a34.88,34.88,0,0,1-1.2-4.61l-1.56-16.09a93,93,0,0,0,1.56,16.09l2.58,26.69s0,9.67-5.52,2.76c0,0-13.8-45.54-5.52-55.2,0,0,4.14-8.28,2.76-16.56s11-157.33,20.7-157.33c0,0,5.52-26.22,42.78-23.46V365.07l10.49-.5.55,30.86s24.84,4.14,33.12,27.6S889,574.84,883.45,584.5c0,0,13.81,51.06-4.14,70.39,0,0-4.14,2.76-2.76-11S877.93,619,877.93,619l-2.76,22.08s-2.42,2.43-2.73-1.82c0-.27,0-.59,0-.94,0-5.52,2.76-46.92,2.76-46.92l-6.9-158.71s-4.14,98-5.52,100.75c-.71,1.43,2.69,55.08,6.12,106.07,3.14,46.76,6.3,91.28,6.3,91.28s2.76,19.32-2.76,24.84l-2.76,103.51s-8.28,16.56,34.51,22.08a90.93,90.93,0,0,0,13.8,4.14c6.9,1.38,8.28,1.38,11,1.38S935.9,885.36,937.28,889.5Z"/><path class="cls-2" d="M783.4,334c2.76,4.51,18.52,29.26,47.61,33.82,47.41,7.42,76.48-47.05,77.29-51.07,1.38-6.9,2.76-5.52-8.28-13.8s31.74-17.94,22.08-89.7c0,0-13.8-29-67.63-31.75s-84.18,20.71-84.18,20.71A113.25,113.25,0,0,0,762,224.3C749.18,273.61,773.46,318,783.4,334Z"/><path class="cls-3" d="M1185.69,895c1.38,4.14-12.42,8.28-12.42,8.28s-15.18,2.76-24.84-2.76l-33.12-1.38s-13.8,0-12.42-12.42-2.76-49.68-2.76-49.68S1085,765.29,1096,759.77L1085,619l-5.52-1.38c1.38,4.14-12.42,140.77-12.42,140.77s9.66,2.76-8.28,110.41c0,0,9.66,29,0,29,0,0-1.38,4.14-20.71,0,0,0-12.42-2.76-23.46,0s-13.8,2.76-16.56,2.76-15.18-2.76-15.18-2.76-2.76-11,12.42-6.9,49.69-13.8,49.69-13.8l2.76-4.14-1.38-106.27s-9.67-20.7-4.14-26.22a1731.4,1731.4,0,0,1,15.18-187.69l1.38-12.42-4.14-103.51s-22.09,114.55-19.33,115.93l-1.38,48.3-1.38,30.36s-1.38,6.9-4.14-1.38a38.29,38.29,0,0,1-1.2-4.61l-1.56-16.09a93,93,0,0,0,1.56,16.09l2.58,26.69s0,9.67-5.52,2.77c0,0-13.8-45.55-5.52-55.21,0,0,4.14-8.28,2.76-16.56s11-157.33,20.71-157.33c0,0,5.52-26.22,42.78-23.46V370.59l10.49-.5L1096,401s24.84,4.14,33.12,27.6,8.28,151.81,2.76,161.47c0,0,13.8,51.06-4.14,70.39,0,0-4.14,2.76-2.76-11s1.38-24.84,1.38-24.84l-2.76,22.08s-2.43,2.43-2.73-1.82c0-.27,0-.59,0-.94,0-5.52,2.76-46.92,2.76-46.92l-6.9-158.71s-4.14,98-5.52,100.75c-.72,1.43,2.69,55.08,6.11,106.07,3.15,46.76,6.31,91.28,6.31,91.28s2.76,19.32-2.76,24.84l-2.76,103.51s-8.28,16.56,34.5,22.08a90.93,90.93,0,0,0,13.8,4.14c6.9,1.38,8.28,1.38,11,1.38S1184.31,890.88,1185.69,895Z"/><path class="cls-3" d="M1031.81,340.91c2.77,4.52,18.53,29.26,47.62,33.82,47.41,7.42,76.48-47.05,77.28-51.07,1.38-6.9,2.76-5.52-8.28-13.8s31.74-17.94,22.08-89.7c0,0-13.8-29-67.62-31.75s-84.19,20.71-84.19,20.71a114.8,114.8,0,0,0-8.28,22.08C997.59,280.51,1021.88,324.85,1031.81,340.91Z"/><path class="cls-4" d="M901.4,249.14s6.9,11,0,13.8c-6.39,2.55-4.49,8.68-33.86,9.55,1.8-.47,2.73-5.12,2.09-10.63-.65-5.68-2.71-10.11-4.6-9.89a1.77,1.77,0,0,0-1.24.95l-3.8-1S869.65,243.62,901.4,249.14Z"/><path d="M854.47,224.3C872.41,225.68,871,234,871,238.1s-1.38,1.38-1.38,1.38-2.76-2.76-2.76-5.52-12.42,0-12.42,0Z"/><path d="M869.63,261.86c.64,5.51-.29,10.16-2.09,10.63H867c-1.78-.36-3.6-4.56-4.21-9.86-.5-4.27,0-8,1-9.72A1.77,1.77,0,0,1,865,252C866.92,251.75,869,256.18,869.63,261.86Z"/><path class="cls-4" d="M860,251.9l3.8,1c-1.06,1.68-1.51,5.45-1,9.72.61,5.3,2.43,9.5,4.21,9.86-2.17.07-4.49.1-7,.1C860,272.6,853.09,254.66,860,251.9Z"/><path d="M828.25,229.82v6.9s-1.38-1.38-5.52,0-9.66,6.9-9.66,6.9l-2.76-2.76s9.66-12.42,16.56-11Z"/><path class="cls-4" d="M828.25,257.42l-5.52,15.18h-9.66V271c1.44,0,3.26-2,4.14-5.34,1-3.69,1.38-9.66-1.38-9.66l-.14-3.49C828.25,251.94,828.25,257.42,828.25,257.42Z"/><path d="M815.83,256c2.76,0,2.35,6,1.38,9.66-.88,3.38-2.7,5.34-4.14,5.34a1.55,1.55,0,0,1-.37,0c-1.48-.39-1.89-3.7-.91-7.38S814.31,256,815.83,256Z"/><path class="cls-4" d="M815.69,252.55l.14,3.49c-1.52,0-3.08,3.89-4,7.58s-.57,7,.91,7.38a1.55,1.55,0,0,0,.37,0v1.56h-20.7c-11-12.42,0-15.18,0-15.18C803,254.15,810.43,252.82,815.69,252.55Z"/><path class="cls-5" d="M860,251.9s9.66-8.28,41.41-2.76c0,0,6.9,11,0,13.8-6.39,2.55-4.49,8.68-33.86,9.55H867c-2.17.07-4.49.1-7,.1C860,272.6,853.09,254.66,860,251.9Z"/><path class="cls-6" d="M863.79,252.92A1.77,1.77,0,0,1,865,252c1.89-.22,4,4.21,4.6,9.89.64,5.51-.29,10.16-2.09,10.63a.32.32,0,0,1-.16,0,1,1,0,0,1-.39,0c-1.78-.36-3.6-4.56-4.21-9.86C862.28,258.37,862.73,254.6,863.79,252.92Z"/><path class="cls-6" d="M815.83,256c2.76,0,2.35,6,1.38,9.66-.88,3.38-2.7,5.34-4.14,5.34a1.55,1.55,0,0,1-.37,0c-1.48-.39-1.89-3.7-.91-7.38S814.31,256,815.83,256Z"/><polyline class="cls-6" points="846.19 290.54 848.95 298.82 842.05 311.24"/><path class="cls-6" d="M828.25,229.82v6.9s-1.38-1.38-5.52,0-9.66,6.9-9.66,6.9l-2.76-2.76s9.66-12.42,16.56-11Z"/><path class="cls-6" d="M854.47,224.3V234s12.42-2.76,12.42,0,2.76,5.52,2.76,5.52,1.38,2.76,1.38-1.38S872.41,225.68,854.47,224.3Z"/><path class="cls-6" d="M844.81,336.08s2.76-4.14,15.18-4.14"/><path class="cls-4" d="M1151.19,253.28s6.9,11,0,13.8c-6.39,2.55-4.48,8.68-33.85,9.55,1.79-.47,2.73-5.12,2.08-10.63-.65-5.68-2.7-10.11-4.59-9.89a1.78,1.78,0,0,0-1.25.95l-3.79-1S1119.45,247.76,1151.19,253.28Z"/><path d="M1104.27,228.44c17.94,1.38,16.56,9.66,16.56,13.8s-1.38,1.38-1.38,1.38-2.76-2.76-2.76-5.52-12.42,0-12.42,0Z"/><path d="M1119.42,266c.65,5.51-.29,10.16-2.08,10.63h-.55c-1.78-.36-3.61-4.56-4.21-9.86-.5-4.27-.06-8,1-9.72a1.78,1.78,0,0,1,1.25-.95C1116.72,255.89,1118.77,260.32,1119.42,266Z"/><path class="cls-4" d="M1109.79,256l3.79,1c-1.06,1.68-1.5,5.45-1,9.72.6,5.3,2.43,9.5,4.21,9.86-2.17.07-4.49.1-7,.1C1109.79,276.74,1102.89,258.8,1109.79,256Z"/><path d="M1078.05,234v6.9s-1.38-1.38-5.52,0-9.66,6.9-9.66,6.9l-2.76-2.76s9.66-12.42,16.56-11Z"/><path class="cls-4" d="M1078.05,261.56l-5.52,15.18h-9.66v-1.56c1.43,0,3.25-2,4.14-5.34,1-3.69,1.38-9.66-1.38-9.66l-.14-3.49C1078.05,256.08,1078.05,261.56,1078.05,261.56Z"/><path d="M1065.63,260.18c2.76,0,2.34,6,1.38,9.66-.89,3.38-2.71,5.34-4.14,5.34a1.64,1.64,0,0,1-.38,0c-1.47-.39-1.89-3.7-.91-7.38S1064.11,260.18,1065.63,260.18Z"/><path class="cls-4" d="M1065.49,256.69l.14,3.49c-1.52,0-3.08,3.89-4.05,7.58s-.56,7,.91,7.38a1.64,1.64,0,0,0,.38,0v1.56h-20.7c-11.05-12.42,0-15.18,0-15.18C1052.76,258.29,1060.23,257,1065.49,256.69Z"/><path class="cls-5" d="M1062.87,276.74h9.66l5.52-15.18s0-5.48-12.56-4.87c-5.26.27-12.73,1.6-23.32,4.87,0,0-11.05,2.76,0,15.18Z"/><path class="cls-6" d="M1113.58,257.06a1.78,1.78,0,0,1,1.25-.95c1.89-.22,3.94,4.21,4.59,9.89.65,5.51-.29,10.16-2.08,10.63a.35.35,0,0,1-.17,0,.71.71,0,0,1-.38,0c-1.78-.36-3.61-4.56-4.21-9.86C1112.08,262.51,1112.52,258.74,1113.58,257.06Z"/><path class="cls-6" d="M1065.63,260.18c2.76,0,2.34,6,1.38,9.66-.89,3.38-2.71,5.34-4.14,5.34a1.64,1.64,0,0,1-.38,0c-1.47-.39-1.89-3.7-.91-7.38S1064.11,260.18,1065.63,260.18Z"/><polyline class="cls-6" points="1095.99 294.68 1098.75 302.96 1091.85 315.38"/><path class="cls-6" d="M1078.05,234v6.9s-1.38-1.38-5.52,0-9.66,6.9-9.66,6.9l-2.76-2.76s9.66-12.42,16.56-11Z"/><path class="cls-6" d="M1104.27,228.44v9.66s12.42-2.76,12.42,0,2.76,5.52,2.76,5.52,1.38,2.76,1.38-1.38S1122.21,229.82,1104.27,228.44Z"/><path class="cls-6" d="M1094.61,340.22s2.76-4.14,15.18-4.14"/><path d="M790.14,256a13.75,13.75,0,0,1-10.5-1.95l-1.15,2.74c7.64,2,14,2.29,21.67.3,9.15-2.38,17.33-3.34,26.5-.35,1.84.59,2.63-2.3.8-2.9a41.56,41.56,0,0,0-21.16-1.38c-3.79.76-7.46,2.06-11.26,2.76-5.46,1-10.44,0-15.76-1.33a1.51,1.51,0,0,0-1.15,2.75,16.66,16.66,0,0,0,12.81,2.25c1.89-.39,1.09-3.28-.8-2.89Z"/><path d="M860.51,253.08c10.47-6.24,20-4.29,31.44-2.78,7,.92,13.81.37,19.44-4.16,1.51-1.2-.63-3.32-2.12-2.12-8.2,6.59-18.87,2.57-28.17,1.57a35.11,35.11,0,0,0-22.1,4.9,1.5,1.5,0,0,0,1.51,2.59Z"/><path d="M863.71,275.17c8-1.17,16.2-1.94,24.1-3.64,6.94-1.5,12.5-5.67,18-10,1.51-1.2-.63-3.31-2.13-2.12-6.28,5-12,8.57-20.08,9.83-6.87,1.07-13.77,2-20.65,3-1.91.28-1.1,3.17.79,2.89Z"/><path d="M819.2,272H803.31c-5.28,0-11.67.87-15.69-3.27-1.35-1.38-3.47.74-2.12,2.13,3.3,3.4,7.64,4,12.21,4.13,7.16.18,14.34,0,21.49,0a1.5,1.5,0,0,0,0-3Z"/><path d="M1154.3,262c-5.43,5.54-12.21,8.81-19.55,11.08s-15.47,4.7-23,3.75c-1.91-.24-1.89,2.76,0,3,8.29,1,17.49-1.76,25.31-4.33,7.27-2.39,14-5.88,19.4-11.38,1.35-1.38-.77-3.5-2.12-2.12Z"/><path d="M1151.5,253.54c-14.82-2.47-32.32-5.68-46,2.38a1.5,1.5,0,0,0,1.52,2.59c12.91-7.59,29.78-4.4,43.71-2.07,1.89.31,2.71-2.58.8-2.9Z"/><path d="M1077.64,258.71c-5-4.31-12.35-2.44-18.28-1.69-7.49.94-14.66,2.6-21.3,6.3-1.68.94-.17,3.53,1.52,2.59a49.56,49.56,0,0,1,16.73-5.46c5-.79,14.93-3.34,19.21.38,1.45,1.27,3.58-.85,2.12-2.12Z"/><path d="M1040.54,277.24a87.94,87.94,0,0,0,33.06-.14c1.89-.36,1.09-3.26-.8-2.89a83.43,83.43,0,0,1-31.46.13c-1.89-.35-2.7,2.54-.8,2.9Z"/><path class="cls-7" d="M812,441.13c1.21,6.6-1.72,13.53.94,19.93a9.05,9.05,0,0,0,11.15,5.36c5.35-1.5,8.4-6.42,9.63-11.57,1.15-4.77,1.74-11.24-2.54-14.66-.5-.4-1.21.3-.71.7,4.08,3.26,3.34,9.59,2.19,14.09-1.35,5.25-4.93,10.43-10.81,10.82s-8.71-4.89-9-10.07c-.32-5,1.08-9.88.16-14.87-.12-.63-1.08-.36-1,.27Z"/><path class="cls-7" d="M862.26,440.86c-1.31,7.15,4.17,25.84-8.89,24.94-5.71-.39-9.29-5.31-10.7-10.43-1.26-4.56-2.08-11.15,2.08-14.48.5-.4-.21-1.1-.71-.7-4.18,3.34-3.68,9.57-2.63,14.27,1.18,5.26,4.22,10.45,9.73,12a9,9,0,0,0,11-5c2.91-6.45-.16-13.56,1.08-20.25.11-.63-.85-.9-1-.27Z"/><ellipse class="cls-8" cx="821" cy="458.56" rx="3.8" ry="3.11"/><ellipse class="cls-9" cx="821.01" cy="458.57" rx="1.69" ry="1.38"/><ellipse class="cls-8" cx="854.13" cy="458.57" rx="3.8" ry="3.11"/><ellipse class="cls-9" cx="854.13" cy="458.57" rx="1.69" ry="1.38"/><path class="cls-10" d="M830.4,597.13c.73-5.45,1.67-6.45,2.85-3l1,.14,1.1-.71.1.78c.56-1,1.41-1,2.55,0l.79.6.27,4.79v1l-.42,1.52c-.55-.34-1,.5-.5.86l-1.77,2.79-.12.92v.91l.22.84a5.74,5.74,0,0,1-1.84.32.51.51,0,0,0-.86-.36l-1.2.67.61.35.11-.46-.79-.1-.1,1.19.68-.18-1-1.53-.91.38c.21-.37.08-.63-.37-.77a1.82,1.82,0,0,1-.87-1.76l.1-.79a2.48,2.48,0,0,1-.07-2.56.52.52,0,0,0-.23-.57l-.48-2.79a.52.52,0,0,0,.08-.61l1.3.68c.09.46.69.43.91.12q5.44-.9,3.9,4.62a10.16,10.16,0,0,1-2.13.81q-4.08,1.06-1.4-3a3.38,3.38,0,0,1,.61,4h.87c-1.09-1.74.14-3.22,1.15-4.36l.43-.48c.77-1.15,1.7-1.1,2.81.15h.87a22.17,22.17,0,0,1-1.53-2.58,2,2,0,0,0-1.11-1.52c-.94-.41-.78-1.1.47-2.06l.18-.69c-2.24,1.27-5.12-.78-7.59-.31a.5.5,0,0,0-.3.74,8.55,8.55,0,0,1,1.41,2.67,8.8,8.8,0,0,0,.54,2.09,1.46,1.46,0,0,0,1.32.82,1,1,0,0,0,.61-1.87.52.52,0,0,0-.49-.13c-1.63.67-2.51,3.47-2.5,5.13a3.79,3.79,0,0,0,2.57,3.75.53.53,0,0,0,.57-.23,3.1,3.1,0,0,0,.5-2.68.51.51,0,0,0-.92-.12c-.7,1.32-1.54,3.76.48,4.46s2.71-1.75,2.82-3.23a.5.5,0,0,0-1-.14A5.72,5.72,0,0,0,835.9,611l.22-.84c-3.22,1.1-6.3-.8-4.56-4.32a36.22,36.22,0,0,1,2.57-4.26l-.69.18a4.46,4.46,0,0,1,2.5,4.28l.64-.48c-1.59-.66-.85-2.72.18-3.53a6.61,6.61,0,0,1,2.39-1l-.61-.62-1.06,5.4c-.09.47-.8,5.53-1.64,5.2l.35.61,4.64-12.7a.51.51,0,0,0-.48-.64,5.15,5.15,0,0,0-4.7,2.46.5.5,0,0,0,.68.69c2.22-1.49,1.85-4.94-1.08-5.21-1.18-.11-1.39.29-2.67-.24s-.91-.91-1.85-1.62a2.11,2.11,0,0,0-2.74.33c-.48.43.23,1.13.71.71,1-.89,2.28,1.77,3.07,2.1a2.14,2.14,0,0,0,1.06.1l.45-.06c1.52-.56,2.37.44,2.55,3l.68.69a4.07,4.07,0,0,1,3.84-2l-.49-.63-4.63,12.71a.5.5,0,0,0,.35.61c1.38.55,1.82-.67,2.07-1.85.67-3.13,1.23-6.3,1.85-9.44a.51.51,0,0,0-.61-.62c-1.77.49-3.94,1.34-4.27,3.4a2.69,2.69,0,0,0,1.69,3.08c.32.13.62-.19.63-.48a5.31,5.31,0,0,0-3-5.14.52.52,0,0,0-.69.18c-1.35,2-4.14,5.29-3.22,8s4.05,2.88,6.35,2.1a.52.52,0,0,0,.22-.84,4.59,4.59,0,0,1-1-4.37l-1-.13c.24,1.22-.12,1.51-1.08.85-1.22,0-1.34-.58-.35-1.57l-.92-.12c-1.3.48-1.86.11-1.67-1.11l.29-1.53a15,15,0,0,1,1-2.23,2.9,2.9,0,0,1-.59-1.44,11.18,11.18,0,0,0-1.75-4l-.3.73c2.72-.51,5.23,1.69,7.84.22a.52.52,0,0,0,.18-.69,1.79,1.79,0,0,0-3.35.85c-.15,1.79,2.25,3.88,4,3.32,1.4-.44,1.37-2.3-.24-2.33-3-.07-.76,4.31,0,5.34.19.26.7.37.87,0,.85-2-1.32-3.29-3-2.43-2.38,1.19-4.64,4.6-3.08,7.12a.51.51,0,0,0,.87,0c1.31-2.18-.23-7.07-3.41-6.07s-1.48,4.76.84,5.5c2.15.68,7.41-.68,6.74-3.78s-4.49-1.94-4.57.8a.5.5,0,0,0,.36.48c2.57.63,3.88-2.85,2.19-4.63-1.26-1.32-3.77-.07-3,1.77s3.5,1.25,3.27-.67c-.34-2.84-3.72-2.8-5.08-.87l.92.12c-.22-1.14-1.07-2.69-2.49-2.12-1,.41-.84,1.33-1,2.11a4.85,4.85,0,0,0-.35,1.86c.12.72.71,1.07.9,1.66.38,1.25-.63,2.93,1.08,3.68a.52.52,0,0,0,.51,0l.28-.21c.22-.16.38-.56.1-.78-1.19-.93-2.37.13-1.91,1.54.34,1,2.39,3.25,3.41,1.92a.49.49,0,0,0,0-.51l-.11-.21c-.27-.53-1-.15-.91.38a2.93,2.93,0,0,0,1.48,2.14.5.5,0,0,0,.68-.18,2,2,0,0,0,.11-2.21.51.51,0,0,0-.79-.1c-.49.63-.51.64-.36,1.43a.5.5,0,0,0,.61.35,3.85,3.85,0,0,0,1.65-.92l-.85-.35c.15,1.92,2.64,1.67,3.38.14.46-.93-.43-2.1-1.24-1.17a.51.51,0,0,0,.22.84c3.12,1.22,3.08-4.12,0-2.85a.51.51,0,0,0-.12.92,2.66,2.66,0,1,0,2.78-4.52l-.5.86a1.88,1.88,0,1,0,.92-3.38c-.65,0-.63.95,0,1a2.92,2.92,0,0,0,2.85-4.3c-.7-1.35-3.6-1.87-3,.28.46,1.71,2.28.34,2.18-1-.12-1.52-2.32-3.21-3.16-1.29-.2.47.38,1.08.79.6a1.71,1.71,0,0,0-.37-2.65c-1.36-.85-2.73.28-3.6,1.26a.52.52,0,0,0,.1.79c1.44.8,3.28-.69,2.23-2.21-1.55-2.22-3.8.21-3.82,2.06a.5.5,0,0,0,1,.13c1.94-5.4-8.5-2.68-4.36.63a.52.52,0,0,0,.71,0c1.85-1.73-.58-4.07-2.5-2.68-2.54,1.82-.59,6.17,2.34,5.79.63-.08.64-1.08,0-1Z"/><ellipse class="cls-11" cx="1070.8" cy="447.52" rx="3.8" ry="3.11"/><ellipse class="cls-12" cx="1070.8" cy="447.53" rx="1.69" ry="1.38"/><ellipse class="cls-11" cx="1101.16" cy="447.52" rx="3.8" ry="3.11"/><ellipse class="cls-12" cx="1101.16" cy="447.53" rx="1.69" ry="1.38"/><path d="M1014.64,254.62l-1.72-28.42c-.46-7.67-12.46-7.72-12,0l1.72,28.42c.46,7.68,12.47,7.73,12,0Z"/><path d="M1016,246.4a114.26,114.26,0,0,1,14.71-25.51c3.62-4.8-3.44-11.5-8.21-8.21a122.83,122.83,0,0,1-19.5,11l8.81,3.59a28.23,28.23,0,0,1,1.94-15.48l-7.38,4.19a1.11,1.11,0,0,1,.54,1.52c-.15,7.89,11.16,7.49,12,0a12.61,12.61,0,0,1,.91-2.57c.69-2.14-.53,2.14-.48-1.31-.1,7.75,11.67,7.69,12,0,.2-4.87,3-8.35,7.35-10.39l-7.27-.93c1.09,1.25,1,2.25.94,3.84l11.78-1.6c.07.23-.3.65-.55.58,2.81.83,5.15-.65,6.78-2.76l7.8-10.13-8.21,2.15a13.56,13.56,0,0,1,3.57,2.58c2.66,2.65,7.57,2.22,9.42-1.21,1-1.85,2.07-4.09,3.88-5.27,1.14-.75,2.52-.39,2.65-1.12l11.79,1.6-1.13,1.52.57-.2c.3.21,1.41,0,1.86.08,1.58.37,3,1.68,4.38,2.54,3.23,2,6.8,3.92,10.74,3.87,3.77,0,7-1.91,10.21-3.75.48-.28,2-.82,2.23-1.27l.68-.23-2.36-.78c-.53.72,3.59,4.28,3.85,4.45a10.28,10.28,0,0,0,8.85.84,40.73,40.73,0,0,0,4.33-1.92c.63-.29,2.5-.9,2-1.07a19.26,19.26,0,0,0,2.48,3.69,10.77,10.77,0,0,0,4.69,2.87c2.74.79,7.86-.49,8.07,3.64.19,3.59,3.73,7.21,7.6,5.79a20.41,20.41,0,0,1,8.1-1.36l-5.79-4.4a9.27,9.27,0,0,1-1.42,6.68c-3.59,6.09,4.42,11.62,9.43,7.27l-.72.32-4.41-5.79-.48,6.08,10.25-4.24c-9.79-7.74-21.26-10.75-33.55-11.71-14.08-1.1-28.48-.31-42.51,1.11a297,297,0,0,0-43.22,7.48c-11.24,2.85-22.54,7.07-30.38,16l10.24,4.24c2.6-22.61,31.18-26.38,49-26.73a221.25,221.25,0,0,1,70,10.09c7.39,2.3,10.55-9.28,3.19-11.57-26.38-8.19-54.65-12.12-82.27-10.13-23.31,1.67-48.89,12.17-51.9,38.34-.59,5.14,7,8,10.24,4.24,6.88-7.83,16.74-10.86,26.57-13.28a281.21,281.21,0,0,1,38.55-6.68,275.9,275.9,0,0,1,36.92-1.41c10.54.35,22.09,1.73,30.65,8.49,4.15,3.28,9.81,1.23,10.24-4.24l.48-6.08c.21-2.54-2-5.18-4.4-5.78-4.29-1.07-7.66-.1-11,2.77l9.42,7.27a22.19,22.19,0,0,0,2.63-15.93c-.47-2.62-3.31-4.33-5.78-4.41a29.52,29.52,0,0,0-11.29,1.79l7.59,5.78c-.26-5.21-2.62-10.1-7.21-12.89-2.63-1.6-5.17-1.53-8-2.19-2-.46-2.06-1.71-3.67-3.44-3.38-3.61-8-4.34-12.53-2.73-.46.16-5.78,2.13-5.84,2.64s1.41,1.75,1.61.58c.13-.76-1.9-2.62-2.37-3.06-3.86-3.66-8.94-2.71-13.22-.46-1.68.88-3.87,3-5.83,3.08-2.16.13-4.81-2.36-6.54-3.44-7.89-4.92-21.42-4-21.88,7.63-.27,6.64,10.56,8.33,11.78,1.59,1.33-7.31-3.41-13.68-10.85-14.72-8.11-1.13-14.1,5.36-17.61,11.86l9.42-1.21a25.13,25.13,0,0,0-6-4.46c-3.15-1.66-6.16-.52-8.21,2.15l-7.8,10.13,6.77-2.76c-8.51-2.53-16.71,5.69-14.21,14.19,2,6.7,11.31,5.05,11.79-1.59a16.42,16.42,0,0,0-4.46-12.33c-1.85-2.12-5-2-7.27-.94-8.14,3.85-12.92,11.88-13.29,20.75h12c.08-6.89-6.21-11.94-13-11-7.48,1-10.73,8.2-11.47,14.88h12c.11-6.35-3.58-10.91-9.35-13.09-3.26-1.24-6.29,1.41-7.39,4.19a39.76,39.76,0,0,0-1.93,21.86c.72,4.19,5.65,5,8.81,3.59a123.32,123.32,0,0,0,19.51-11l-8.21-8.21a125.06,125.06,0,0,0-15.92,28.38c-2.92,7.14,8.68,10.26,11.57,3.19Z"/><path d="M1021.33,253a29.37,29.37,0,0,1,6.86-24.48c5.08-5.79-3.38-14.31-8.48-8.49a42.31,42.31,0,0,0-10,36.16c1.38,7.59,12.94,4.37,11.58-3.19Z"/><path d="M1002.83,251.26a15.34,15.34,0,0,0,4.07,15c2.25,2.18,6.27,2.41,8.48,0a6.1,6.1,0,0,0,0-8.49,8.62,8.62,0,0,1-.73-.75c.4.52.41.5,0-.08s-.33-.61-.07,0a7.16,7.16,0,0,1-.23-.75,5.36,5.36,0,0,1-.18-.77c.08.72.1.73,0,0s0-.7-.09,0a9.05,9.05,0,0,1,.24-1,6,6,0,0,0-11.57-3.19Z"/><path d="M1018.68,261.24c.7-6.18,1.72-12.29,3-18.37,1.56-7.54-10-10.76-11.57-3.19-1.47,7.13-2.58,14.32-3.4,21.56-.37,3.22,3,6,6,6,3.55,0,5.63-2.77,6-6Z"/><path d="M1021.33,260.87q1.14-5.7,2.4-11.38.58-2.62,1.18-5.23c.3-1.29.38-4.24,1.2-5.21,5-5.86-3.49-14.39-8.49-8.49-3,3.57-3.66,7.78-4.68,12.25-1.13,4.94-2.18,9.9-3.19,14.87-1.52,7.54,10,10.77,11.58,3.19Z"/><path d="M1159.75,222.64a10.49,10.49,0,0,0,1.48.46c-.3,0-1.07-.55-.38-.13.28.16.57.3.84.47s.86.65.19.08,0,0,.14.14a11.91,11.91,0,0,1,1.2,1.26c2,2.41,6.42,2.25,8.49,0a6.17,6.17,0,0,0,0-8.49,17.11,17.11,0,0,0-8.77-5.36c-3-.77-6.65,1-7.38,4.19a6.11,6.11,0,0,0,4.19,7.38Z"/><path class="cls-13" d="M796.53,179.28c-34.86,14.56-39.82,56.18-37.77,89.39,2.42,39.1,15,76.54,27.63,113.32,2.07,6.05,11.74,3.45,9.64-2.66-11.5-33.53-23.27-67.67-26.67-103.16-2.81-29.2-2.57-73.72,29.82-87.25,5.86-2.45,3.29-12.13-2.65-9.64Z"/><path class="cls-13" d="M789.28,192.4c-33.08,58.77-40.1,130.86-18.69,194.85,2,6.08,11.69,3.47,9.64-2.66C759.65,323.07,766.08,254,797.92,197.44c3.16-5.61-5.48-10.66-8.64-5Z"/><path class="cls-13" d="M794.36,195.25c26.53-7.76,53.6-3.77,77.66,9.44a285.62,285.62,0,0,1,31.65,20.16c9.15,6.76,17.6,15,20.71,26.29,1.71,6.2,11.36,3.56,9.64-2.66-3.34-12.11-11.55-21.51-21.24-29.17a259.09,259.09,0,0,0-35.72-23.25c-26.34-14.47-56.28-19-85.36-10.45-6.16,1.8-3.54,11.46,2.66,9.64Z"/><path class="cls-13" d="M801.75,190.09a105,105,0,0,1,95.09,24.06c7.56,6.92,14.14,19.17,26,17a5,5,0,0,0,3.67-4.83c-2.65-26.77-25-44-49.52-50.84-26.28-7.34-54.88-5.71-79.73,5.7-5.84,2.68-.76,11.3,5,8.63,21.35-9.8,46.06-11.1,68.74-5.54,20.82,5.09,43.14,18.63,45.46,42.05l3.67-4.82c-4.31.8-9.89-8.14-12.51-10.79a111.07,111.07,0,0,0-12.79-11,115.54,115.54,0,0,0-95.78-19.22c-6.24,1.57-3.6,11.21,2.66,9.65Z"/><path class="cls-13" d="M886.28,196.49a103.49,103.49,0,0,1,22.59,17.69c4.48,4.63,11.55-2.45,7.07-7.08a113.89,113.89,0,0,0-24.61-19.25c-5.57-3.24-10.61,5.4-5.05,8.64Z"/><path class="cls-13" d="M920.69,230.81c6.75,48.81,1.84,98.62-.89,147.56-.36,6.43,9.64,6.41,10,0,2.78-49.95,7.42-100.41.53-150.22-.88-6.34-10.51-3.64-9.64,2.66Z"/><path class="cls-13" d="M922.5,246.83c-4.69,22.2-9.47,44.81-8.58,67.63.88,22.44,7.61,44.26,7.11,66.79-.15,6.44,9.85,6.44,10,0,.49-21.91-5.86-43.1-7-64.88-1.2-22.61,3.48-44.89,8.13-66.88,1.32-6.28-8.31-9-9.64-2.66Z"/><path class="cls-13" d="M915.09,219.61c11.39-5.91,16.19,22.71,17.72,28.74a329.49,329.49,0,0,1,7.83,42.15,337,337,0,0,1-.71,85c-.86,6.29,8.77,9,9.64,2.66A350.49,350.49,0,0,0,949,278a313.53,313.53,0,0,0-11.26-49.17c-3.79-11.76-13.83-25-27.66-17.84-5.71,3-.66,11.6,5.05,8.64Z"/><path class="cls-13" d="M933.74,220.53c-11.14-26.94-39.86-35-66.43-37.76-6.39-.66-6.35,9.35,0,10,21.35,2.18,47.64,8.29,56.79,30.42,2.42,5.86,12.1,3.29,9.64-2.66Z"/><path class="cls-13" d="M929.18,251c-.91,22.58-1.82,45.26.46,67.79,1.09,10.85,3.35,21.51,4.74,32.32a183.56,183.56,0,0,1,1,33.88c-.38,6.43,9.63,6.41,10,0a185,185,0,0,0-.92-32.94c-1.34-11.13-3.72-22.1-4.85-33.26-2.28-22.53-1.37-45.21-.46-67.79.26-6.44-9.74-6.42-10,0Z"/><path class="cls-13" d="M761.08,222.68a418,418,0,0,0-.23,170.44c1.31,6.3,10.95,3.64,9.65-2.65a405.37,405.37,0,0,1,.22-165.13c1.32-6.28-8.32-9-9.64-2.66Z"/><path d="M1018.69,256.13l0,13.11c0,1.55.36,4.11,0,5.62.6,2,.09,2.44-1.51,1.35a6.65,6.65,0,0,1-2-1.75c-4.86-5.43-6.86-14.48-9.57-21.13l-4.57,1.92c2.41,5.47,5.54,19.37,13.93,17.95a5,5,0,0,0,.75-9.74c-3.07-1-4.38,3.85-1.32,4.82-4.9-1.55-7.17-11.29-9-15.55-1.13-2.56-5.64-.7-4.57,1.93,2.39,5.87,4.55,11.91,7.24,17.65,1.71,3.64,4.23,7.59,8.25,8.95,3.27,1.1,6.48.33,7.28-3.27.73-3.31.11-7.24.1-10.62V256.13c0-3.22-5-3.23-5,0Z"/><path d="M1017.41,276.81c3.22,0,3.22-5,0-5s-3.22,5,0,5Z"/><path class="cls-14" d="M1078.74,618.31v21.11s1.34,3.68,3.65,3.73c1.49,0,2.66-1.43,3.18-2.08,3.81-4.77,3-17.83,2.63-22.76Z"/><path d="M1089.22,622.34a9.72,9.72,0,0,0-7.23,1.07l.75.43a2.66,2.66,0,0,0-1.39-2.47,2.49,2.49,0,0,0-1.45-.25,8.18,8.18,0,0,0-.8.25l-.12,0c-.81.47-.88.44-.21-.1.22-.48.48-.55.78-.23a6,6,0,0,1,.62.41,11.39,11.39,0,0,0,1.25.78,3.63,3.63,0,0,0,1.61.41,3.24,3.24,0,0,0,2.84-1.81H1085a3.51,3.51,0,0,0,6,.6c.37-.49-.38-.94-.78-.61l-1.12.93.83.49a2.44,2.44,0,0,0,.19-1.48.54.54,0,0,0-.37-.49,4.78,4.78,0,0,0-3.25.11l.49.83a1.76,1.76,0,0,0-.92-2.84c-1.88-.62-2.91,1.56-3.23,3h1a7.78,7.78,0,0,0-8.8-5.75.52.52,0,0,0-.35.62c.59,2,3,1.74,3.08-.39a.5.5,0,0,0-.5-.5,8.07,8.07,0,0,0-4.29,1.09.47.47,0,0,0-.25.43,2.71,2.71,0,0,0,3.78,2.33l-.62-.35a3.72,3.72,0,0,0,6.31,1.41.52.52,0,0,0,.08-.6l-.7-1.48-.3.73a9.08,9.08,0,0,1,5.35-.62c1.89.38,3,1.46,4.57,2.45,1.26.77,2.76.84,3.27-.77.17-.53-.66-.9-.91-.39-1.29,2.61,3.93,3.29,3.14-.66s-6-2-4,.52a.51.51,0,0,0,.92-.12c1.09-3.66-3.88-4-6.2-3-3.11,1.35-.69,4.23,1.91,3.95s4.77-3.65,2.41-5.78a2.61,2.61,0,0,0-4.14,2.9.54.54,0,0,0,.49.37,2,2,0,0,0,2.24-2.59.5.5,0,0,0-.35-.35c-1.76-.45-4.56-1-5.56,1.06a2.46,2.46,0,0,0,.85,3.17,1.82,1.82,0,0,0,2.47-1.66c.24-1.95-1.64-2.92-3.29-3.18-1.93-.3-4.48-.11-5.68,1.69a2.54,2.54,0,0,0,1,3.93,2,2,0,0,0,2.67-2.23c-.25-2.13-2.85-3.12-4.54-3.84s-3-.31-2.8,1.68c.21,2.47,3,3.77,5.17,3.49.63-.09.64-1.09,0-1a3.74,3.74,0,0,1-3.2-.88c-.94-.58-1-1.1,0-1.58.32-.77.76-.9,1.31-.38.56.09,1,.68,1.58.8s1.46-.63,2.35-.73c.55-.06,2.18-.22,2.63.16q-.41,2.92,1.4.89a1.93,1.93,0,0,1,2.6-.62l2.79,1.35c-.69,1.92-1.93,2.67-3.7,2.26l.34-2.12q2.49-.86,4.26,2l.92-.12c2.69.25,3,.64.9,1.15l-.91-.39c-.51,1.59-3.21-1-3.82-1.32A9.62,9.62,0,0,0,1081,618a.51.51,0,0,0-.3.73c1.23,2.59-3.21,2.1-3.85-.1a.52.52,0,0,0-.62-.35q-2.67.8-1.34-1.6c1.76,0,2-.24.76-.66l-.35.61a6.77,6.77,0,0,1,7.57,5.05.5.5,0,0,0,1,0,3.17,3.17,0,0,1,.34-1.08c.21-1,.93-1,2.14-.07-.27.34,0,1,.49.83.8-.49,1.53-.29,2.2.63-.17.52.48.78.83.49l1.13-.93-.79-.61a2.5,2.5,0,0,1-4.29-.6.51.51,0,0,0-.86,0l-3.41.88-.62-.41c-.44-.21-.81-.59-1.25-.81a4,4,0,0,0-1.64-.5,2.09,2.09,0,0,0-2.15,1.41,1.59,1.59,0,0,0,.48,1.82c1.23.93,5.24-1.6,5.32,1.08a.5.5,0,0,0,.75.43,8.76,8.76,0,0,1,6.47-1c.63.14.89-.82.26-1Z"/><rect class="cls-15" x="709.24" y="44.94" width="510.33" height="93.35" rx="20"/><path class="cls-16" d="M733.12,91.14a14.19,14.19,0,0,1-.17-3.4c.08-1.17.12-2.31.12-3.4a29,29,0,0,0-.21-3.37c-.14-1.19-.25-2.33-.35-3.43a26.8,26.8,0,0,1-.12-3,5.58,5.58,0,0,1,.38-2.14A3.93,3.93,0,0,1,734,71a10.81,10.81,0,0,0,1.34-1.14,4.3,4.3,0,0,1,1.38.44,3.54,3.54,0,0,1,1.05.82,3.37,3.37,0,0,1,.65,1,1.84,1.84,0,0,1,.09,1.06,6.89,6.89,0,0,1,2.37,2.37,13.21,13.21,0,0,1,1.41,3.28,23.23,23.23,0,0,1,.7,3.78c.14,1.33.25,2.64.35,3.93s.2,2.51.29,3.66a14.28,14.28,0,0,0,.56,3c1.72-2.5,3.17-4.72,4.37-6.65s2.39-3.79,3.6-5.57,2.57-3.58,4.07-5.42A80.75,80.75,0,0,1,762,69.4a4.94,4.94,0,0,1,1.17.29L764,70a4,4,0,0,0,.87.27,4.07,4.07,0,0,0,1.29,0c.2.47.34.81.44,1s.19.42.27.62l.29.76.53,1.41a.9.9,0,0,1,.14.61c0,.26,0,.48-.08.68a1.28,1.28,0,0,0,0,.46c0,.12.14.12.38,0a5.53,5.53,0,0,1-.76,1.79,3,3,0,0,0-.47,1.91c-1.06,1.4-2.23,2.85-3.52,4.33s-2.58,3-3.87,4.66-2.53,3.3-3.72,5a30.89,30.89,0,0,0-3,5.54.71.71,0,0,0-.53.17,2.15,2.15,0,0,0-.32.41l-.3.47a.53.53,0,0,1-.5.23,6.39,6.39,0,0,1-1.37,3.55,20.63,20.63,0,0,1-2.55,2.84,3.23,3.23,0,0,1,.12.76,3,3,0,0,1-.06.59,6,6,0,0,0-.09.61,3.78,3.78,0,0,0,0,.8,7.25,7.25,0,0,1-1.38,2.34,6,6,0,0,1-1.84,1.41,4,4,0,0,1-4-.36,2.13,2.13,0,0,1-.7-.64c-.2-.27-.4-.54-.62-.79s-.43-.49-.64-.71a1.61,1.61,0,0,0-.79-.43,3.66,3.66,0,0,0,0-1.24,7.48,7.48,0,0,0-.26-1.17,3.8,3.8,0,0,0-.42-.88c-.15-.23-.31-.35-.46-.35-.16-1-.37-2-.62-3.19s-.51-2.29-.76-3.43-.46-2.24-.62-3.34a17.16,17.16,0,0,1-.17-3.05,2,2,0,0,0-.27-1.25A4,4,0,0,1,733.12,91.14Z"/><path class="cls-16" d="M757.5,107.6l.88-.58.23-1.23c1.29-2.39,2.61-4.67,4-6.86s2.74-4.43,4.19-6.74c.47-.74.94-1.48,1.43-2.23s1-1.5,1.44-2.28a1.66,1.66,0,0,1,.17-1.11,21.56,21.56,0,0,0,1.62-2.11l1.26-1.94c.46-.78,1-1.56,1.49-2.34A18.2,18.2,0,0,1,776,77.89l.52-.58.65.06a3.26,3.26,0,0,1,.5-.21,2.09,2.09,0,0,1,.67-.09l1,.18a12.61,12.61,0,0,0,3.78-2.55,41.36,41.36,0,0,0,3.61-4l.82-1,.88.59a4.31,4.31,0,0,0,.9.35c.41.12.83.25,1.26.41.78.2,1.55.42,2.29.67a4.07,4.07,0,0,1,1.7,1,15,15,0,0,1,.26,1.7q0,.53,0,1,.06,1.23.06,2.43t-.12,2.67c.16,1.49.28,3.07.35,4.75.08,1.13.16,2.21.24,3.25a17.42,17.42,0,0,0,.47,3h.79a1.59,1.59,0,0,1,.56.06,5,5,0,0,1,.87-.24c.39-.78.78-1.55,1.15-2.31a23,23,0,0,0,1-2.49,5.77,5.77,0,0,1-1.43-2,12.58,12.58,0,0,1-.68-2.19c-.15-.74-.27-1.5-.35-2.26a12.15,12.15,0,0,0-.47-2.31,6.23,6.23,0,0,1,1.7-1.73,9.88,9.88,0,0,1,2.23-1.11,17.14,17.14,0,0,1,2.63-.71c.94-.17,1.92-.38,2.93-.61q2.82-.89,5-1.38c1.49-.33,2.93-.61,4.34-.82s2.87-.41,4.39-.59,3.29-.44,5.28-.79a.22.22,0,0,0,.23.18h.41a.55.55,0,0,0,.59.41V70a.93.93,0,0,1,.29.06l.35.12a.25.25,0,0,0,.27,0,.65.65,0,0,0,.08-.38,6.47,6.47,0,0,0,1.79,2,12.39,12.39,0,0,0,2.43,1.38,2.45,2.45,0,0,1,.09.76,3.12,3.12,0,0,1-.09.44,2.81,2.81,0,0,0-.09.47,1.67,1.67,0,0,0,.15.73,8.88,8.88,0,0,1-2.2,2.46,9.58,9.58,0,0,1-2.54,1.35,16,16,0,0,1-2.85.7c-1,.16-2,.32-3,.5a25,25,0,0,0-3.11.73,13.42,13.42,0,0,0-3.08,1.41,1.92,1.92,0,0,0-.84-.15,4,4,0,0,0-.8.15c-.27.08-.58.15-.93.23a3.17,3.17,0,0,1-1.23,0,2.34,2.34,0,0,1-1.06.59l-1.29.35a2.73,2.73,0,0,1,.27,1.29,2.91,2.91,0,0,0,.14,1.11,29.28,29.28,0,0,0,5.45,0c2-.17,4-.3,5.92-.38a.56.56,0,0,1-.12.41.58.58,0,0,0-.11.41,6.29,6.29,0,0,1,1,.88l1,1a4.65,4.65,0,0,0,1,.82,2.13,2.13,0,0,0,1.26.26,3.59,3.59,0,0,1,.38,1.23,3,3,0,0,1-.14,1.35c-.78.51-1.55,1-2.29,1.55a19.82,19.82,0,0,1-2.34,1.44,14.24,14.24,0,0,1-2.61,1,9.42,9.42,0,0,1-3,.35h-.52a.68.68,0,0,1-.47-.23,3.12,3.12,0,0,1-1.61.2,3.25,3.25,0,0,0-1.62.21,5.4,5.4,0,0,0-1.87-.29,5.49,5.49,0,0,1-1.88-.3,32.87,32.87,0,0,0-2,3.2,26.06,26.06,0,0,0-1.64,3.54,22.21,22.21,0,0,0,4,.29,29.59,29.59,0,0,0,3-.23l2.87-.35a25.36,25.36,0,0,1,3.66-.12,12.14,12.14,0,0,1,3.4-1,22.13,22.13,0,0,0,3.57-.79,1.94,1.94,0,0,1,1,.68l.76,1a4.44,4.44,0,0,0,.82.85,1.25,1.25,0,0,0,1.08.24,1.28,1.28,0,0,1,.38.7c.06.27.11.53.15.76a1.11,1.11,0,0,0,.24.56c.11.14.33.18.64.15a11.22,11.22,0,0,1-2.49,3.51,10.15,10.15,0,0,1-3.11,1.91,18.29,18.29,0,0,1-3.86,1c-1.43.22-3,.48-4.78.79a2,2,0,0,1-1,0,3,3,0,0,0-.94-.14c-1.09.19-2.39.39-3.9.58a29.83,29.83,0,0,1-4.54.24,20.29,20.29,0,0,1-4.39-.59,7.62,7.62,0,0,1-3.52-1.87,1.75,1.75,0,0,1-.55-.85,2.19,2.19,0,0,0-.56-.91,10.83,10.83,0,0,1-1.67,1.64,13.72,13.72,0,0,1-2.08,1.35,12.82,12.82,0,0,1-2.26.93,7.44,7.44,0,0,1-2.25.36,3.48,3.48,0,0,1-1.15-.41l-.61-.47a3,3,0,0,1-.32-.24c-.1-.08-.21-.15-.33-.23L784,112l.41-.88a.87.87,0,0,0,.06-.82,4.71,4.71,0,0,0-.7-.94,4.26,4.26,0,0,1-.35-.38,5.2,5.2,0,0,1-.35-.44l-1-1.35,2-.53a5.13,5.13,0,0,0,2.49-1.2,4.51,4.51,0,0,0,.85-2.6,5.56,5.56,0,0,0-2.34-.09c-.67.14-1.33.28-2,.44-.9.23-1.79.44-2.67.61a14.19,14.19,0,0,1-2.84.27,12.44,12.44,0,0,1-2.11-.18l-.65-.06-.05-.64-.15-.27a1.71,1.71,0,0,0-.21-.26,4.81,4.81,0,0,1-.58-.94,1.84,1.84,0,0,1,0-1.46,3.09,3.09,0,0,1-.18-.65,4.14,4.14,0,0,1-.06-.7,7.41,7.41,0,0,0-.49.91c-.14.29-.29.58-.44.85l-.3.76-.76.12a1.11,1.11,0,0,0-.23.35.84.84,0,0,0-.12.35l.12.64-.65.53a2.62,2.62,0,0,1-.32.29l-.32.24-.56,1.23c-.17.39-.36.78-.56,1.17-.31.63-.58,1.23-.82,1.82a7,7,0,0,0-.46,1.76l-.41.76a2.39,2.39,0,0,1-.83.7,9.41,9.41,0,0,1-.93.41,2.56,2.56,0,0,1-.44.23,1.13,1.13,0,0,0-.38.24l-.35.76-.82.12c-.55.12-.93.19-1.15.23a4,4,0,0,1-.73.06l-.76-.06c-.43-.47-.77-.83-1-1.08a3.79,3.79,0,0,0-.91-.68,5.52,5.52,0,0,1-.52-2.1,1.81,1.81,0,0,0-.18-1.06Zm20.86-15.23-1,1.2q-.5.62-1,1.26a6.46,6.46,0,0,1,.82-.06,5.38,5.38,0,0,0,.76-.06c1.4-.08,2.69-.17,3.87-.29s2.46-.31,3.86-.59c-.08-1.44-.2-2.92-.38-4.42s-.36-3-.56-4.54l-.35.58q-1.69,1.59-3.28,3.4c-1,1.21-2,2.37-2.75,3.46Z"/><path class="cls-16" d="M834.26,111a2.13,2.13,0,0,1-.41-.56,3.07,3.07,0,0,1-.3-.85,7.69,7.69,0,0,1-1.28-2.28,12.11,12.11,0,0,1-.65-2.67,12.89,12.89,0,0,1-.06-2.78,18.73,18.73,0,0,1,.41-2.64,11.06,11.06,0,0,0,.3-1.23c.19-.74.39-1.47.58-2.2a4.72,4.72,0,0,1,.88-1.78,1.93,1.93,0,0,1,.06-1.41c.19-.51.39-1,.59-1.4a2.62,2.62,0,0,0,.17-.33l.12-.26c.47-1.37.93-2.69,1.37-4s.89-2.49,1.32-3.66c.78-2.15,1.54-4.25,2.26-6.33s1.38-4.27,2-6.62a3.27,3.27,0,0,1,.82-.47l.3-.11a1.22,1.22,0,0,1,.41-.06,19.26,19.26,0,0,0,2.9,1.2,9.3,9.3,0,0,0,2.84.56l1,.88a11.52,11.52,0,0,1,1.32,1.84,3.76,3.76,0,0,1,.32,2.49,2,2,0,0,1-.58.65,21.51,21.51,0,0,1-.76,2.37c-.28.68-.55,1.34-.82,2s-.61,1.41-.88,2.11a14.67,14.67,0,0,0-.71,2.58,2.22,2.22,0,0,0-.44.7,4.56,4.56,0,0,1-.2.59c-.08.23-.18.48-.29.73a1.9,1.9,0,0,1-.53.67,12.17,12.17,0,0,1-.7,3L844.63,94c-.55,1.37-1.06,2.72-1.52,4.07a15.92,15.92,0,0,0-.82,4.6,5.07,5.07,0,0,1,1.28-.17,4.52,4.52,0,0,1,1.47.23,13.06,13.06,0,0,1,4.6-1.29c1.66-.15,3.31-.25,5-.29a37.47,37.47,0,0,0,3.81-.18,2.61,2.61,0,0,0,.76.44,4,4,0,0,0,.59,0h.35a2.59,2.59,0,0,1,.47.06,4.91,4.91,0,0,0,1.58,1.14c.51.22,1.05.42,1.64.62s1,.4,1.49.61a7.65,7.65,0,0,1,1.44.85l.53,3c.31.43.44.72.41.88a1.44,1.44,0,0,1-.24.82l.12.76a4.28,4.28,0,0,0-1.47.5,8.12,8.12,0,0,0-.76.67q-.64.06-1.23.06a8.88,8.88,0,0,0-2.4.35,11.14,11.14,0,0,0-3.87-.64c-.54,0-1.1,0-1.67.06s-1.12.09-1.67.17-1.17.15-1.76.21a17.09,17.09,0,0,1-1.75.09l-1,.17a3.22,3.22,0,0,0-.58.18c-1.33.43-2.77.86-4.31,1.29a17.34,17.34,0,0,1-4.66.64,8.38,8.38,0,0,1-5.57-1.76,4.82,4.82,0,0,0-.35-.7A3.76,3.76,0,0,1,834.26,111Z"/><path class="cls-16" d="M867.71,99.28a3.59,3.59,0,0,1,.18-1.17,2.92,2.92,0,0,0,.06-1.35,48.68,48.68,0,0,1,4.13-7.18,27.09,27.09,0,0,1,5.54-5.83,4.27,4.27,0,0,0,.85-.85c.21-.29.43-.57.64-.85a5,5,0,0,1,.73-.73,2.5,2.5,0,0,1,1.06-.44,18,18,0,0,1,3.51-3.1q2.05-1.41,4.28-2.7t4.48-2.63a28.37,28.37,0,0,0,4.08-2.93,1.2,1.2,0,0,0,1,.26,1.19,1.19,0,0,1,.79,0,3.17,3.17,0,0,0,1.38,1.55c.56.3,1.15.59,1.76.88a9.66,9.66,0,0,1,1.7,1.06,3.87,3.87,0,0,1,1.2,1.67c-.28,0-.4.09-.38.29a2.74,2.74,0,0,0,.14.64,2,2,0,0,1,.12.65c0,.19-.18.29-.53.29a.37.37,0,0,0,.41.41.36.36,0,0,1,.41.41,1,1,0,0,1-.14.56.81.81,0,0,0,0,.67A27.89,27.89,0,0,1,902,80.62l-3.63,1.79c-1.27.62-2.56,1.3-3.87,2a36.29,36.29,0,0,0-3.89,2.49q-1.94,1.41-3.9,3.1t-3.78,3.61q-1.82,1.91-3.4,3.92a34.3,34.3,0,0,0-2.69,4,1.71,1.71,0,0,0,.32.53,1.74,1.74,0,0,1,.32.52,31.79,31.79,0,0,0,4.16,0,13.66,13.66,0,0,1,3.87.27.8.8,0,0,0,.29-.47.54.54,0,0,1,.35-.41,47.89,47.89,0,0,0,7.44-1.32l7-1.85c-.71-.27-1.33-.48-1.88-.64-.23-.23-.22-.44,0-.62a3.07,3.07,0,0,0,.62-.55,4.32,4.32,0,0,1-2.29-3.69,1.08,1.08,0,0,0,.41-.82.92.92,0,0,0-.41-.77c-.2-.07-.31-.07-.35,0a1.17,1.17,0,0,0-.09.24.64.64,0,0,1-.12.23c0,.08-.16.08-.32,0a2.67,2.67,0,0,1,.29-1,3.26,3.26,0,0,0,.36-1l4.86-3.22a17.89,17.89,0,0,0,1.87,1.23c.75.43,1.53.86,2.35,1.29l2.52,1.32q1.29.67,2.4,1.32a7,7,0,0,1,1.82,1.14c.5.45,1,.92,1.46,1.4s.94,1,1.41,1.44a5.83,5.83,0,0,0,1.7,1.17,3.19,3.19,0,0,0,.11,1.53,2.64,2.64,0,0,1,.12,1.4,12.53,12.53,0,0,1-2.69,3.37,17.17,17.17,0,0,1-3.55,2.37,24.24,24.24,0,0,1-4.19,1.67c-1.48.45-3,.88-4.57,1.29s-3.13.84-4.72,1.29-3.13,1-4.65,1.55c-.67,0-1.23,0-1.7.06s-.92.1-1.35.18l-1.29.23a13.51,13.51,0,0,1-1.41.18c-.19,0-.32,0-.38.12a.79.79,0,0,1-.26.29,14.08,14.08,0,0,1-2.11.18H883a6.37,6.37,0,0,0-1.7.23,5.35,5.35,0,0,1-1.64.18,11,11,0,0,1-8.26-3.75q-3-3.53-3.29-9.67c0-.2,0-.33-.11-.38A1.14,1.14,0,0,1,867.71,99.28Z"/><path class="cls-16" d="M938,86.74c.11-.58.19-1.06.23-1.43a1.76,1.76,0,0,0-.41-1.2c.16-.63.28-1.12.38-1.47a3.8,3.8,0,0,0,0-1.46,6.47,6.47,0,0,1,1.61-2.58,11.69,11.69,0,0,1,2.38-1.79,16,16,0,0,1,2.69-1.23c.94-.33,1.82-.62,2.64-.85a.21.21,0,0,0-.24-.23c-.15,0-.19-.1-.11-.3a42.1,42.1,0,0,0,6.35-1.7q3.2-1.11,6.54-2A35.44,35.44,0,0,1,967,69.43a21.74,21.74,0,0,1,7.39.91,6.09,6.09,0,0,0,.64,1.34c.27.43.56.85.85,1.26s.56.81.79,1.2a2.89,2.89,0,0,1,.41,1.24,6,6,0,0,1,1.14,1.37,2.53,2.53,0,0,1,.15,2c-.43.32-.88.63-1.35.94a16.62,16.62,0,0,1-1.46.88,17.51,17.51,0,0,0-5.28-.47c-1.75.12-3.34.26-4.74.41A1.91,1.91,0,0,0,964,79.8a8.35,8.35,0,0,0-1.84.29l-1.91.53a4.46,4.46,0,0,1-1.75.15,3.49,3.49,0,0,1-1.7.79c-.71.13-1.45.24-2.23.32a.36.36,0,0,0,.12.41c.12.08.13.23.06.47a2.11,2.11,0,0,0,1.11.73c.47.14.95.26,1.44.38a5.66,5.66,0,0,1,1.31.5,1.56,1.56,0,0,1,.77,1,3.65,3.65,0,0,1,1.81.56,4.93,4.93,0,0,1,1.29,1.2,4.62,4.62,0,0,1,.76,1.5,3.72,3.72,0,0,1,.18,1.43c.15.39.32.55.5.47s.38,0,.61.29a4.78,4.78,0,0,0,1.09,1.85,7.65,7.65,0,0,1,1.31,2.08c.08,1.17.15,2.23.21,3.16a5.91,5.91,0,0,1-.5,2.76,14.55,14.55,0,0,1-2.87,4.63,22.32,22.32,0,0,1-4.25,3.6,33.48,33.48,0,0,1-5,2.7,46.38,46.38,0,0,1-5.21,1.9,1.32,1.32,0,0,0-.56,0c-.21,0-.26-.08-.15-.35a2.41,2.41,0,0,1-1.2.58,6.82,6.82,0,0,1-1.46.09c-.53,0-1.06,0-1.58-.09a6.75,6.75,0,0,0-1.56.06c-.31-.31-.59-.62-.85-.93a3.88,3.88,0,0,1-.61-1.12.31.31,0,0,1-.27-.38c0-.21-.06-.32-.26-.32a.79.79,0,0,1,.06-.35l.12-.24c.15-.11.22-.2.2-.26A.4.4,0,0,0,941,110a2.61,2.61,0,0,1-.3-.2.25.25,0,0,1-.08-.29,2.09,2.09,0,0,0,.2-1.26q-.09-.73-.15-1.5a4.18,4.18,0,0,1,.12-1.43,2,2,0,0,1,1-1.15,14.49,14.49,0,0,0,4.54-.23,21.91,21.91,0,0,0,4-1.29,38.27,38.27,0,0,0,3.63-1.79c1.16-.64,2.28-1.24,3.37-1.78a2.58,2.58,0,0,1,.56-1c.25-.27.52-.54.79-.79a8.39,8.39,0,0,0,.76-.82,2.92,2.92,0,0,0,.53-1.09.51.51,0,0,0,0-.35.57.57,0,0,0-.18-.2l-.23-.21a.46.46,0,0,1-.12-.35l-.32-.12a1,1,0,0,0-.26-.06,21.94,21.94,0,0,0-3.23-1.28,16.18,16.18,0,0,1-2.87-1.18,1.54,1.54,0,0,1-1.4.24c-.47-.16-1-.31-1.7-.47A41.26,41.26,0,0,1,945,91a17.54,17.54,0,0,1-4.25-1.23,2.46,2.46,0,0,0-.29-.61c-.12-.18-.39-.23-.82-.15-.28-.39-.56-.75-.85-1.09A6,6,0,0,1,938,86.74Z"/><path class="cls-16" d="M973.89,96.64a.22.22,0,0,1,.26-.2.8.8,0,0,0,.38,0,2.12,2.12,0,0,1-.58-1.26,2.51,2.51,0,0,0-.59-1.32,4.43,4.43,0,0,0,.2-.58c.06-.2.23-.28.5-.24a7.08,7.08,0,0,1,.06-2.4,9.09,9.09,0,0,1,.73-2.11,15.44,15.44,0,0,1,1.18-2c.44-.65.88-1.3,1.31-2,.36-.07.57,0,.65.09s.21.11.41-.09a3.59,3.59,0,0,0,1.29-1.43,4.28,4.28,0,0,0,.35-1.73c.35-1,.75-2,1.2-3a19.13,19.13,0,0,1,1.55-2.78,14.74,14.74,0,0,1,1.88-2.26,7.44,7.44,0,0,1,2.17-1.49,8.84,8.84,0,0,1,2.08-1.29,13.51,13.51,0,0,1,2.69-.91,15.17,15.17,0,0,1,3-.35,10,10,0,0,1,2.81.32c.2.08.32,0,.35-.14a.29.29,0,0,1,.3-.27,25.16,25.16,0,0,1,5.24,1.17,11.87,11.87,0,0,1,4,2.29,42,42,0,0,1,2.11,3.78,21.54,21.54,0,0,1,1.55,4.22,17.1,17.1,0,0,1,.5,4.54,13.66,13.66,0,0,1-1,4.69,15.78,15.78,0,0,1-5,4.13,36.14,36.14,0,0,1-6.3,2.58,61.63,61.63,0,0,1-7,1.67c-2.4.43-4.74.89-7,1.4,0,1.06,0,2.18,0,3.37a25.45,25.45,0,0,1-.38,3.57,21.63,21.63,0,0,1-.94,3.49,13.17,13.17,0,0,1-1.67,3.17,8.55,8.55,0,0,0-2.43.23c-.84.19-1.6.39-2.26.59-.31-.2-.61-.39-.91-.56a2.33,2.33,0,0,0-1.08-.32,1.82,1.82,0,0,0-.32-1.47l-1-1.49a3.93,3.93,0,0,1-.64-1.47,1.28,1.28,0,0,1,.67-1.32,1.62,1.62,0,0,1-.47-1.28.82.82,0,0,0,.59.23,7.14,7.14,0,0,1,.26-2.52c.25-1,.47-1.94.65-2.9a8.19,8.19,0,0,0,.08-2.64A2.15,2.15,0,0,0,973.89,96.64Zm15.23-13.71c-.16.43-.28.82-.38,1.15a7.8,7.8,0,0,1-.32.9c-.12.28-.25.55-.38.82s-.29.59-.44.94a.88.88,0,0,0,.47.53.91.91,0,0,1,.47.53,7.64,7.64,0,0,1,1.64-.62,15.32,15.32,0,0,1,1.64-.32c.54-.08,1.09-.18,1.64-.29a8.62,8.62,0,0,0,1.7-.59,11.18,11.18,0,0,1,1.84-.67c.65-.18,1.28-.36,1.91-.56s1.23-.42,1.81-.67a5,5,0,0,0,1.53-1,7.17,7.17,0,0,0-2.46-1.35,13.81,13.81,0,0,0-3.55-.73,13.24,13.24,0,0,0-3.81.26A7.14,7.14,0,0,0,989.12,82.93Z"/><path class="cls-16" d="M1009.45,113.87a4.25,4.25,0,0,1-1.32-1.35,9.35,9.35,0,0,1-.82-1.75,15,15,0,0,1-.52-2c-.14-.68-.29-1.34-.44-2a1.69,1.69,0,0,1,.35-1.2,7.51,7.51,0,0,1,.76-.73,21.61,21.61,0,0,0,2.52-.24l2.17-.35c.7-.12,1.4-.22,2.11-.32a16.16,16.16,0,0,1,2.28-.15c.59-1.21,1.14-2.37,1.64-3.48l1.47-3.2a15,15,0,0,1,.91-2.72c.37-.84.73-1.64,1.08-2.41s.66-1.52.94-2.28a10,10,0,0,0,.53-2.43q.69-2.06,1.26-3.78a22.19,22.19,0,0,0,.84-4.13c-1.48.23-2.67.46-3.57.67a9.7,9.7,0,0,0-1.93.62,4,4,0,0,1-1.85-.47,3.47,3.47,0,0,1-1.08-1,6.14,6.14,0,0,1-.71-1.35c-.19-.5-.43-1-.7-1.58a3,3,0,0,0,.12-1.55,2.17,2.17,0,0,0-.7-1.49,1.11,1.11,0,0,0,.7-.8,1.42,1.42,0,0,0,.06-1,10,10,0,0,1,2.11-.38l2.19-.18c.73-.06,1.42-.13,2.08-.23a4,4,0,0,0,1.7-.62l6.36-.23q3.32-.12,6.12-.29a7.87,7.87,0,0,0,2.43.35,23.24,23.24,0,0,1,2.76.17,7.24,7.24,0,0,1,2.46.76,3.18,3.18,0,0,1,1.49,2.06,2.62,2.62,0,0,1,1.32.46,1.52,1.52,0,0,1,.56.85,4,4,0,0,1,.09,1.12q0,.61,0,1.2a7.64,7.64,0,0,1-2.38,1.14,21.93,21.93,0,0,1-3.13.7,32.54,32.54,0,0,1-3.55.36l-3.6.14a40.61,40.61,0,0,1-1,4.54q-.73,2.61-1.5,5.1c-.51,1.66-1,3.15-1.32,4.45a9.08,9.08,0,0,0-.49,2.55c-.4.9-.72,1.66-1,2.29s-.49,1.21-.7,1.76l-.65,1.61c-.21.52-.48,1.12-.79,1.78h4a1.19,1.19,0,0,0,.53.88,5.06,5.06,0,0,0,.88.41,4.25,4.25,0,0,1,.85.44,1,1,0,0,1,.38.85,2.09,2.09,0,0,1,1.41.88,1.87,1.87,0,0,1,.14,1.26,4.25,4.25,0,0,1-.58,1.38c-.3.47-.58.88-.85,1.23a1.14,1.14,0,0,0-1,.26,8.79,8.79,0,0,0-.88.85,14.39,14.39,0,0,0-3.34-.06c-1.09.12-2.11.22-3,.3-.2,0-.28.14-.24.32a.33.33,0,0,1-.12.38,10,10,0,0,0-3.72-.47,24,24,0,0,0-3.86.56q-2,.44-4,.93A19.38,19.38,0,0,1,1009.45,113.87Z"/><path class="cls-16" d="M1042.73,111a2.7,2.7,0,0,1-.41-.56,3.47,3.47,0,0,1-.29-.85,7.5,7.5,0,0,1-1.29-2.28,12.09,12.09,0,0,1-.64-2.67,12.89,12.89,0,0,1-.06-2.78,17.38,17.38,0,0,1,.41-2.64,11.07,11.07,0,0,0,.29-1.23c.2-.74.39-1.47.59-2.2a4.57,4.57,0,0,1,.88-1.78,1.93,1.93,0,0,1,.06-1.41c.19-.51.39-1,.58-1.4a1.84,1.84,0,0,0,.18-.33l.11-.26q.7-2.06,1.38-4c.45-1.26.89-2.49,1.32-3.66.78-2.15,1.53-4.25,2.26-6.33s1.37-4.27,2-6.62a3.11,3.11,0,0,1,.82-.47l.29-.11a1.31,1.31,0,0,1,.41-.06,19.7,19.7,0,0,0,2.9,1.2,9.35,9.35,0,0,0,2.84.56l1,.88a11.52,11.52,0,0,1,1.32,1.84,3.76,3.76,0,0,1,.32,2.49,2,2,0,0,1-.58.65,19.48,19.48,0,0,1-.77,2.37c-.27.68-.54,1.34-.82,2s-.6,1.41-.88,2.11a15.66,15.66,0,0,0-.7,2.58,2.22,2.22,0,0,0-.44.7c-.06.2-.13.39-.2.59a7.06,7.06,0,0,1-.3.73,1.77,1.77,0,0,1-.52.67,11.68,11.68,0,0,1-.71,3c-.31.77-.62,1.52-.93,2.26-.55,1.37-1.06,2.72-1.53,4.07a16.26,16.26,0,0,0-.82,4.6,5.21,5.21,0,0,1,1.29-.17,4.52,4.52,0,0,1,1.47.23,12.94,12.94,0,0,1,4.6-1.29c1.66-.15,3.31-.25,5-.29a37.76,37.76,0,0,0,3.81-.18,2.48,2.48,0,0,0,.76.44,3.82,3.82,0,0,0,.58,0h.35a2.4,2.4,0,0,1,.47.06,5.14,5.14,0,0,0,1.58,1.14c.51.22,1.06.42,1.65.62s1,.4,1.49.61a7.65,7.65,0,0,1,1.44.85l.52,3c.32.43.45.72.41.88a1.51,1.51,0,0,1-.23.82l.12.76a4.19,4.19,0,0,0-1.47.5,7,7,0,0,0-.76.67q-.64.06-1.23.06a8.88,8.88,0,0,0-2.4.35,11.18,11.18,0,0,0-3.87-.64c-.55,0-1.11,0-1.67.06s-1.12.09-1.67.17-1.17.15-1.76.21a17.14,17.14,0,0,1-1.76.09l-1,.17a3.32,3.32,0,0,0-.59.18c-1.33.43-2.76.86-4.31,1.29a17.21,17.21,0,0,1-4.65.64,8.38,8.38,0,0,1-5.57-1.76,6.18,6.18,0,0,0-.35-.7A3.72,3.72,0,0,1,1042.73,111Z"/><path class="cls-16" d="M1080.7,111a2.7,2.7,0,0,1-.41-.56,3.47,3.47,0,0,1-.29-.85,7.5,7.5,0,0,1-1.29-2.28,12.09,12.09,0,0,1-.64-2.67,12.89,12.89,0,0,1-.06-2.78,17.38,17.38,0,0,1,.41-2.64,11.07,11.07,0,0,0,.29-1.23c.2-.74.39-1.47.59-2.2a4.57,4.57,0,0,1,.88-1.78,2,2,0,0,1,0-1.41c.2-.51.39-1,.59-1.4a1.84,1.84,0,0,0,.18-.33,2,2,0,0,1,.11-.26q.71-2.06,1.38-4c.45-1.26.89-2.49,1.32-3.66.78-2.15,1.53-4.25,2.25-6.33s1.38-4.27,2-6.62a3.11,3.11,0,0,1,.82-.47l.29-.11a1.27,1.27,0,0,1,.41-.06,19.7,19.7,0,0,0,2.9,1.2,9.3,9.3,0,0,0,2.84.56l1,.88a11.52,11.52,0,0,1,1.32,1.84,3.82,3.82,0,0,1,.32,2.49,1.92,1.92,0,0,1-.59.65,19.57,19.57,0,0,1-.76,2.37c-.27.68-.55,1.34-.82,2s-.6,1.41-.88,2.11a15.66,15.66,0,0,0-.7,2.58,2.22,2.22,0,0,0-.44.7c-.06.2-.13.39-.2.59a7.06,7.06,0,0,1-.3.73,1.79,1.79,0,0,1-.53.67,11.72,11.72,0,0,1-.7,3c-.31.77-.62,1.52-.94,2.26-.54,1.37-1,2.72-1.52,4.07a16.26,16.26,0,0,0-.82,4.6,5.21,5.21,0,0,1,1.29-.17,4.42,4.42,0,0,1,1.46.23,13.06,13.06,0,0,1,4.6-1.29c1.66-.15,3.31-.25,5-.29a37.41,37.41,0,0,0,3.8-.18,2.61,2.61,0,0,0,.77.44,3.82,3.82,0,0,0,.58,0h.35a2.4,2.4,0,0,1,.47.06,5.14,5.14,0,0,0,1.58,1.14c.51.22,1.06.42,1.64.62s1,.4,1.5.61a7.28,7.28,0,0,1,1.43.85l.53,3c.31.43.45.72.41.88a1.51,1.51,0,0,1-.23.82l.11.76a4.12,4.12,0,0,0-1.46.5,7,7,0,0,0-.76.67q-.65.06-1.23.06a9,9,0,0,0-2.41.35,11.13,11.13,0,0,0-3.86-.64c-.55,0-1.11,0-1.67.06s-1.13.09-1.67.17-1.17.15-1.76.21a17.29,17.29,0,0,1-1.76.09l-1,.17a3.32,3.32,0,0,0-.59.18c-1.33.43-2.76.86-4.31,1.29a17.21,17.21,0,0,1-4.65.64,8.38,8.38,0,0,1-5.57-1.76,6.18,6.18,0,0,0-.35-.7A3.72,3.72,0,0,1,1080.7,111Z"/><path class="cls-16" d="M1118.61,111.18a2.84,2.84,0,0,1-.67-1.12,1.85,1.85,0,0,0-1-1c-.08-.59-.18-1.26-.32-2s-.27-1.55-.41-2.35-.23-1.6-.29-2.4a8.75,8.75,0,0,1,.09-2.2,3.22,3.22,0,0,1,.38-1c.17-.32.35-.62.52-.91a3.69,3.69,0,0,0,.41-.91,1.67,1.67,0,0,0,0-.94.49.49,0,0,0,.44-.38c.06-.21.25-.28.56-.2.27-.86.56-1.66.88-2.41s.64-1.46,1-2.16l1.09-2.14a18.52,18.52,0,0,0,1-2.43,5.77,5.77,0,0,1-1.43-2,12.58,12.58,0,0,1-.68-2.19c-.15-.74-.27-1.5-.35-2.26a12.15,12.15,0,0,0-.47-2.31,6.23,6.23,0,0,1,1.7-1.73,10.09,10.09,0,0,1,2.2-1.11,16,16,0,0,1,2.61-.71c.94-.17,1.93-.38,3-.61q2.8-.89,5-1.38c1.49-.33,2.93-.61,4.34-.82s2.87-.41,4.4-.59,3.28-.44,5.27-.79c0,.12.11.18.2.18h.38a.66.66,0,0,0,.65.41,1.51,1.51,0,0,0,0-.32,1.39,1.39,0,0,1,0-.27,1.16,1.16,0,0,1,.32.06l.35.12a.26.26,0,0,0,.27,0c.08-.06.09-.19.06-.38a6.29,6.29,0,0,0,1.81,2,13.27,13.27,0,0,0,2.46,1.38,3.55,3.55,0,0,1,0,.76c0,.15,0,.3-.08.44a1.68,1.68,0,0,0-.06.47,3.06,3.06,0,0,0,.11.73,8.13,8.13,0,0,1-2.13,2.46,9.79,9.79,0,0,1-2.55,1.35,16,16,0,0,1-2.85.7c-1,.16-2,.32-3,.5a26.3,26.3,0,0,0-3.14.73,13,13,0,0,0-3.1,1.41,2,2,0,0,0-.85-.15,3.79,3.79,0,0,0-.79.15l-.91.23a3,3,0,0,1-1.2,0,2.82,2.82,0,0,1-1.09.59l-1.26.35a2.73,2.73,0,0,1,.27,1.29,2.91,2.91,0,0,0,.14,1.11,29.28,29.28,0,0,0,5.45,0q3-.26,5.86-.38c0,.2,0,.33-.06.41a.58.58,0,0,0-.11.41,5.39,5.39,0,0,1,1,.88c.32.35.64.7,1,1a5.53,5.53,0,0,0,1,.82,2,2,0,0,0,1.23.26,4.81,4.81,0,0,1,.41,1.23,2.4,2.4,0,0,1-.18,1.35c-.78.51-1.54,1-2.29,1.55a21.2,21.2,0,0,1-2.31,1.44,13.18,13.18,0,0,1-2.61,1,9.62,9.62,0,0,1-3,.35h-.5a.91.91,0,0,1-.5-.23,2.83,2.83,0,0,1-1.55.2,3.21,3.21,0,0,0-1.61.21,5.6,5.6,0,0,0-1.91-.29,5.49,5.49,0,0,1-1.9-.3,36.65,36.65,0,0,0-2,3.2,24.94,24.94,0,0,0-1.65,3.54,22.08,22.08,0,0,0,4,.29c1,0,2-.11,3-.23l2.9-.35a25.36,25.36,0,0,1,3.66-.12,11.47,11.47,0,0,1,3.37-1,20.43,20.43,0,0,0,3.54-.79,2.07,2.07,0,0,1,1,.68c.27.33.54.66.79,1a5,5,0,0,0,.79.85,1.19,1.19,0,0,0,1.06.24,1.42,1.42,0,0,1,.38.7c.06.27.11.53.17.76a1.33,1.33,0,0,0,.27.56c.11.14.33.18.64.15a11.22,11.22,0,0,1-2.49,3.51,10.23,10.23,0,0,1-3.1,1.91,18.55,18.55,0,0,1-3.87,1c-1.43.22-3,.48-4.78.79a2.13,2.13,0,0,1-1.08,0,3.09,3.09,0,0,0-.91-.14c-1.09.19-2.39.39-3.9.58a29.83,29.83,0,0,1-4.54.24,20.38,20.38,0,0,1-4.39-.59A7.62,7.62,0,0,1,1118.61,111.18Z"/><path class="cls-16" d="M1154,108.13c-.19,0-.37-.11-.52-.44s-.34-.65-.53-1h.64a4.81,4.81,0,0,1-.2-2.37c.14-.72.3-1.43.5-2.11s.36-1.35.49-2a3.48,3.48,0,0,0-.2-2,.28.28,0,0,0,.44-.15,3.39,3.39,0,0,0,.23-.82,4.5,4.5,0,0,0,.06-1.05,7.93,7.93,0,0,0-.09-.91,23.1,23.1,0,0,0,1.21-3.75c.29-1.29.55-2.57.79-3.84s.49-2.5.79-3.69a19.62,19.62,0,0,1,1.14-3.37,3.64,3.64,0,0,1,1.73.2,2.34,2.34,0,0,1,1.2.79,15.78,15.78,0,0,0,3.22-3.39q1.41-2,2.84-3.9A19.29,19.29,0,0,1,1171,71a8.46,8.46,0,0,1,4.51-1.76c.94.67,2,1.38,3.16,2.14a9.72,9.72,0,0,1,2.87,2.84c.32.2.62.4.91.62s.6.42.91.61v.88a7.19,7.19,0,0,1,1.38,1.79,17.91,17.91,0,0,1,1,2.17c.3.76.58,1.53.85,2.31a15.41,15.41,0,0,0,.94,2.17,1.43,1.43,0,0,0-.09.62,2.44,2.44,0,0,0,.12.52,4.22,4.22,0,0,1,.15.59,5.72,5.72,0,0,1,0,.79,7.92,7.92,0,0,1-2,5,14,14,0,0,1-4.33,3.1,37.53,37.53,0,0,1-5.42,2.06,47.68,47.68,0,0,0-5.22,1.84q0,.24.27.24c.17,0,.22.11.14.35,1.17.7,2.08,1.27,2.73,1.7a18.66,18.66,0,0,0,1.81,1.08,9.94,9.94,0,0,0,1.88.73c.68.2,1.63.43,2.84.71s2.16.49,2.84.67,1.3.31,1.85.41,1.13.19,1.76.26l2.51.3a5.18,5.18,0,0,1,1.06,1.52A8.1,8.1,0,0,1,1191,109a5.59,5.59,0,0,1,.08,1.67,2.22,2.22,0,0,1-.5,1.26.27.27,0,0,0,.33.2,1.73,1.73,0,0,1,.55,0,3.15,3.15,0,0,0-.7.71l-.59.82a5.29,5.29,0,0,1-.67.76,1.65,1.65,0,0,1-1,.41,9.33,9.33,0,0,1-5.39.06,69.23,69.23,0,0,1-8.38-2.7c-1.68-.62-3-1.19-4.1-1.7A29.28,29.28,0,0,1,1168,109a19.81,19.81,0,0,1-2.17-1.58c-.66-.57-1.43-1.24-2.28-2a.29.29,0,0,0-.21.24.28.28,0,0,1-.2.23,14.9,14.9,0,0,1-.91,3.81,13.66,13.66,0,0,1-1.79,3c-.62-.12-1.05-.06-1.26.18a4,4,0,0,1-.79.64,1.39,1.39,0,0,1-.88,0,3.38,3.38,0,0,1-.53-.32,4.28,4.28,0,0,0-.52-.35,1.59,1.59,0,0,0-.94-.12c-.12-.35-.24-.69-.35-1s-.43-.47-.94-.44a2,2,0,0,0,.12-.9,3.69,3.69,0,0,0-.18-.71,4.73,4.73,0,0,1-.2-.67A1.42,1.42,0,0,1,1154,108.13Zm19.57-26.78a12.75,12.75,0,0,1-1.69,2c-.63.61-1.25,1.23-1.85,1.88a12.79,12.79,0,0,0-1.61,2.11,8,8,0,0,0-1,2.72,20.22,20.22,0,0,0,5.16-1.37c1.79-.73,3.49-1.42,5.1-2.09a6.21,6.21,0,0,0-1.53-3.48A6.57,6.57,0,0,0,1173.57,81.35Z"/><polygon class="cls-17" points="857.82 964.1 845.72 943.24 833.62 922.38 821.6 943.29 809.58 964.2 827.53 964.16 827.53 998.62 840.53 998.62 840.53 964.14 857.82 964.1"/><polygon class="cls-17" points="1110.52 965.09 1098.42 944.23 1086.33 923.37 1074.31 944.28 1062.29 965.19 1080.24 965.15 1080.24 999.6 1093.24 999.6 1093.24 965.12 1110.52 965.09"/></svg>
